<svg width="405" height="695" viewBox="0 0 405 695" fill="none" xmlns="http://www.w3.org/2000/svg">
<path d="M293.459 479.998C245.105 504.925 168.97 625.095 128.435 676.822C127.779 677.659 126.827 676.613 127.186 675.47C146.637 613.494 160.797 534.694 172.831 470.782C179.234 436.773 178.526 398.624 162.475 377.042C143.585 351.644 105.292 355.659 78.4331 355.313C59.5426 355.07 40.4778 355.926 21.6209 355.485C18.953 355.422 16.1722 353.172 13.6035 355.375C9.63579 358.777 21.9762 355.702 26.2189 353.887C44.4456 346.091 62.6074 334.182 80.573 323.945C98.0029 314.013 115.01 304.81 127.048 281.178C144.141 247.621 159.301 197.969 158.411 160.921C157.619 127.941 143.465 102.611 129.981 80.7829C122.617 68.8633 137.537 90.8149 138.226 91.623C154.079 110.232 173.373 117.862 195.221 121.776C221.515 126.486 253.687 126.568 278.331 92.9695C307.323 53.4432 325.945 -6.9694 337.253 -56.579C337.527 -57.7825 344.648 -91.4144 341.052 -87.4494C333.785 -79.4375 326.22 -66.2898 322.411 -55.0277C308.083 -12.6696 316.636 32.9439 325.918 67.5825C337.495 110.786 357.88 138.563 385.612 160.725C413.886 183.32 436.457 178.682 470.796 183.537C494.95 183.579 522.599 182.618 517.487 174.565C489.649 130.708 432.396 230.22 414.365 268.024C396.521 305.437 375.639 348.994 375.907 390.946C376.154 429.392 397.427 455.513 411.1 482.249C415.894 491.623 424.182 508.443 428.079 519.822C428.667 521.538 430.456 524.831 428.961 525.626C427.111 526.61 426.311 522.877 425.016 521.452C420.709 516.712 416.694 511.479 412.158 507.133C380.215 476.526 340.082 455.965 293.459 479.998Z" stroke="#FF3A27" stroke-width="30" stroke-linecap="round"/>
</svg>
