<svg width="513" height="395" viewBox="0 0 513 395" fill="none" xmlns="http://www.w3.org/2000/svg">
<path d="M396.971 176.508C397.047 149.102 388.789 141.589 372.678 142.066C353.382 142.637 296.193 149.479 296.193 149.479L271.147 150.32C270.294 167.319 272.215 188.888 289.964 192.679C299.806 194.781 312.081 192.33 331.241 186.906C350.401 181.483 361.384 178.374 361.384 178.374C357.118 195.905 363.116 210.345 365.396 228.582C367.808 247.87 368.158 253.976 367.91 263.393C367.793 267.871 368.884 274.783 374.85 278.068C375.705 278.539 376.686 278.713 377.648 278.876C398.611 282.426 417.814 282.216 439.067 281.813C440.433 281.787 446.047 280.995 446.291 279.64C446.413 278.968 445.118 275.896 444.737 275.331C442.229 271.623 438.295 271.995 433.592 270.506C426.8 268.356 421.509 265.733 415.195 262.424C409.887 259.641 407.425 259.138 401.904 255.105C398.873 252.891 395.975 248.851 395.53 237.095C394.966 222.201 396.91 197.835 396.971 176.508Z" fill="#FFCCCC"/>
<path d="M366.626 238.875C364.302 239.391 363.878 241.671 364.822 246.886C367.211 260.079 365.501 266.451 365.467 269.635C365.432 272.82 362.303 286.803 369.238 289.053C376.173 291.303 389.827 289.578 403.673 289.376C417.518 289.175 434.09 287.462 439.501 287.105C447.859 286.553 447.551 277.263 443.295 273.736C439.038 270.21 428.442 270.092 419.711 264.746C410.979 259.4 402.56 254.928 400.226 251.014C397.893 247.101 398.128 245.523 397.673 241.536C397.48 239.851 398.072 237.573 395.532 237.095C395.4 238.076 395.313 239.084 395.269 240.118C395.269 240.118 393.835 244.675 381.349 245.111C369.275 245.533 366.961 241.956 366.961 241.956L366.626 238.875Z" fill="#303030"/>
<path d="M435.709 269.222C429.865 267.883 426.494 266.712 421.391 263.959C415.48 260.77 404.873 252.786 402.451 250.889C399.299 248.418 391.689 249.093 388.18 254.605C386.892 254.068 385.527 253.653 384.186 253.952C382.91 254.237 381.862 255.125 380.872 255.984C379.03 257.58 376.366 261.014 371.943 261.009C367.553 261.004 366.033 255.927 366.033 255.927L365.522 251.395C361.882 252.941 362.387 254.364 362.905 257.132C363.361 259.561 363.279 263.894 363.056 267.438C362.804 271.464 362.571 275.796 362.748 282.773C363.635 287.687 368.599 288.424 376.224 288.159C386.032 287.819 419.171 286.667 419.171 286.667C426.204 286.423 437.093 286.045 441.339 285.897C445.586 285.749 448.774 282.176 448.647 280.695C448.085 274.166 445.314 271.421 435.709 269.222Z" fill="#E85E50"/>
<path d="M413.737 272.969C416.487 269.135 422.511 265.382 427.984 267.014" stroke="#303030" stroke-width="1.5" stroke-miterlimit="10" stroke-linecap="round" stroke-linejoin="round"/>
<path d="M418.661 262.364C416.135 263.871 414.753 265.73 413.106 268.709" stroke="#303030" stroke-width="1.5" stroke-miterlimit="10" stroke-linecap="round" stroke-linejoin="round"/>
<path d="M421.391 263.959C418.073 263.93 413.421 265.054 405.559 266.672" stroke="#303030" stroke-width="1.5" stroke-miterlimit="10" stroke-linecap="round" stroke-linejoin="round"/>
<path d="M411.981 258.196C409.454 259.703 408.285 261.183 406.639 264.162" stroke="#303030" stroke-width="1.5" stroke-miterlimit="10" stroke-linecap="round" stroke-linejoin="round"/>
<path d="M414.71 259.792C411.393 259.763 406.741 260.887 398.878 262.504" stroke="#303030" stroke-width="1.5" stroke-miterlimit="10" stroke-linecap="round" stroke-linejoin="round"/>
<path d="M405.414 253.32C402.887 254.827 401.391 257.395 399.745 260.374" stroke="#303030" stroke-width="1.5" stroke-miterlimit="10" stroke-linecap="round" stroke-linejoin="round"/>
<path d="M408.028 255.624C404.711 255.594 400.059 256.719 392.196 258.337" stroke="#303030" stroke-width="1.5" stroke-miterlimit="10" stroke-linecap="round" stroke-linejoin="round"/>
<path d="M363.332 267.364C364.11 268.391 365.076 269.245 366.294 269.824C368.729 270.985 371.619 271.14 374.163 270.245C378.171 268.835 381.163 265.028 385.341 264.271C388.38 263.721 391.442 264.907 394.261 266.177C399.469 268.523 407.665 272.956 408.756 274.519C409.847 276.082 410.862 281.051 411.842 285.84" stroke="#303030" stroke-width="1.5" stroke-miterlimit="10" stroke-linecap="round" stroke-linejoin="round"/>
<path d="M446.07 290.699C442.33 291.856 421.465 292.435 421.465 292.435C421.465 292.435 386.773 293.64 378.836 293.916C370.901 294.192 366.668 294.085 364.548 291.333C363.299 289.71 362.55 287.059 362.747 282.772C366.144 285.588 365.33 286.449 378.89 285.977C392.448 285.506 425.543 284.462 432.727 284.107C437.731 283.859 445.534 284.267 448.645 280.693C449.884 282.245 451.773 288.935 446.07 290.699Z" fill="white" stroke="#303030" stroke-width="1.5" stroke-miterlimit="10" stroke-linecap="round" stroke-linejoin="round"/>
<path d="M270.264 148.862L336.412 142.532L342.373 141.851C342.373 141.851 373.392 136.614 386.103 143.574C394.153 147.981 398.752 159.852 398.534 169.667C398.317 179.482 398.857 197.073 399.346 203.612C399.836 210.15 401.19 213.111 395.714 217.268C390.239 221.425 374.827 224.229 364.163 220.596C357.871 218.454 358.999 209.69 358.038 200.657C356.941 190.357 356.604 184.48 356.604 184.48C356.604 184.48 335.78 193.028 324.753 193.399L296.651 194.343C279.595 194.914 265.302 180.175 270.264 148.862Z" fill="#909AC9"/>
<path d="M362.767 163.058C359.49 169.762 357.394 177.049 356.604 184.48" stroke="#303030" stroke-width="1.5" stroke-miterlimit="10" stroke-linecap="round" stroke-linejoin="round"/>
<path d="M395.714 217.267L395.479 225.83C390.003 229.987 376.06 232.214 365.396 228.582L364.162 220.596C374.826 224.228 390.237 221.425 395.714 217.267Z" fill="#303030"/>
<path d="M104.098 338.084C103.837 338.084 103.583 338.114 103.325 338.124C101.892 338.158 100.471 338.37 99.0825 338.739C98.9926 338.762 98.9037 338.784 98.8139 338.815C96.0596 339.619 93.1791 338.462 91.709 336.137C91.3879 335.641 91.1416 335.085 90.9628 334.483C89.9855 331.107 91.9109 327.565 95.2619 326.581L147.939 311.068L139.378 281.57L79.8426 299.098C77.0883 299.902 74.2078 298.737 72.7377 296.42C72.4167 295.924 72.1703 295.368 71.9987 294.766C71.0213 291.39 72.9467 287.848 76.2977 286.864L77.2529 286.578C77.4023 286.533 77.5588 286.487 77.7082 286.443C78.7825 286.097 79.8355 285.607 80.828 284.969C86.8808 281.058 88.6497 272.945 84.7686 266.84C80.8876 260.742 72.8347 258.96 66.7739 262.87C65.7511 263.532 64.8556 264.306 64.0872 265.179C63.8782 264.773 63.6541 264.389 63.4077 263.998C58.2203 255.847 47.4584 253.471 39.3602 258.697C32.3967 263.186 29.6878 271.833 32.3593 279.361C26.1278 278.804 19.6641 280.248 13.9919 283.91C0.363787 292.707 -3.60708 310.971 5.12528 324.71C8.14012 329.447 12.2675 333.018 16.9321 335.319C11.1781 339.779 9.67778 348.005 13.6629 354.275C16.8796 359.343 22.7608 361.659 28.2915 360.554C28.3289 366.863 30.0906 373.232 33.7102 378.931C43.9198 394.985 65.1161 399.67 81.0583 389.383C86.839 385.653 91.1087 380.447 93.7456 374.582C96.7524 376.474 100.293 377.584 104.098 377.584C114.924 377.584 123.701 368.742 123.701 357.834C123.701 346.927 114.925 338.084 104.098 338.084Z" fill="#FC7E72"/>
<path d="M48.671 280.175C52.6844 280.175 55.9378 276.897 55.9378 272.854C55.9378 268.81 52.6844 265.532 48.671 265.532C44.6577 265.532 41.4043 268.81 41.4043 272.854C41.4043 276.897 44.6577 280.175 48.671 280.175Z" fill="white"/>
<path d="M99.7315 354.44C99.7315 359.17 95.9252 362.997 91.2384 362.997C90.0965 362.997 88.9991 362.771 88.0066 362.358C85.9246 374.517 75.4083 383.773 62.7353 383.773C48.5771 383.773 37.0984 372.208 37.0984 357.944C37.0984 356.395 37.2327 354.883 37.4942 353.41C36.0615 354.072 34.4714 354.441 32.7923 354.441C26.5527 354.441 21.4924 349.343 21.4924 343.056C21.4924 337.65 25.2321 333.123 30.2541 331.965C21.7308 328.574 15.7002 320.197 15.7002 310.4C15.7002 297.602 25.9996 287.225 38.7099 287.225C47.9723 287.225 55.9576 292.744 59.6003 300.691C60.4141 300.383 61.3017 300.21 62.2275 300.21C66.37 300.21 69.721 303.594 69.721 307.767C69.721 308.632 69.5796 309.459 69.311 310.226L127.28 293.157L131.257 306.865L78.9611 322.264C81.2147 323.565 82.7373 326.017 82.7373 328.829C82.7373 332.506 80.1253 335.574 76.6622 336.243C80.8492 338.98 84.1931 342.905 86.2154 347.544C87.6188 346.499 89.3575 345.882 91.2384 345.882C95.9252 345.883 99.7315 349.71 99.7315 354.44Z" fill="white"/>
<path d="M171.659 316.396L139.447 330.728C128.871 333.842 110.63 270.951 121.206 267.837L156.011 262.44L171.659 316.396Z" fill="#909AC9" stroke="#303030" stroke-width="1.5" stroke-miterlimit="10" stroke-linecap="round" stroke-linejoin="round"/>
<path d="M151.466 325.381C143.191 309.856 135.517 283.395 134.192 265.824L156.011 262.44L171.66 316.396L151.466 325.381Z" fill="#303030" stroke="#303030" stroke-width="1.5" stroke-miterlimit="10" stroke-linecap="round" stroke-linejoin="round"/>
<path d="M144.394 246.534C195.428 226.976 308.429 184.488 357.839 172.432C404.059 161.153 461.61 169.923 512.025 186.911C478.621 228.575 434.812 267.186 389.837 282.755C341.756 299.399 223.829 324.899 170.372 336.102C155.309 340.536 129.331 250.968 144.394 246.534Z" fill="white" stroke="#303030" stroke-width="1.5" stroke-miterlimit="10" stroke-linecap="round" stroke-linejoin="round"/>
<path d="M320.344 302.268C301.482 306.88 270.61 199.99 288.851 193.686" stroke="#303030" stroke-width="1.5" stroke-miterlimit="10" stroke-linecap="round" stroke-linejoin="round"/>
<path d="M453.454 204.154C450.202 192.942 448.799 181.774 449.033 171.191C470.384 174.597 491.779 180.088 512.025 186.91C498.611 203.641 483.517 219.877 467.345 234.328C461.491 225.537 456.705 215.366 453.454 204.154Z" fill="#909AC9" stroke="#303030" stroke-width="1.5" stroke-miterlimit="10" stroke-linecap="round" stroke-linejoin="round"/>
<path d="M467.344 234.328C461.491 225.537 456.705 215.365 453.453 204.154C451.946 198.958 450.853 193.774 450.119 188.65C450.465 190.131 454.063 204.412 465.129 209.103C476.805 214.054 489.398 203.931 512.024 186.909C498.61 203.642 483.515 219.877 467.344 234.328Z" fill="#303030"/>
<path d="M404.369 222.464C404.067 221.426 402.884 217.347 402.583 216.309C397.114 197.453 377.508 186.633 358.792 192.143C340.076 197.653 329.338 217.406 334.806 236.262C335.108 237.3 336.29 241.379 336.592 242.417C342.061 261.274 361.667 272.093 380.383 266.583C399.099 261.074 409.837 241.321 404.369 222.464Z" fill="#303030" stroke="#303030" stroke-width="1.5" stroke-miterlimit="10" stroke-linecap="round" stroke-linejoin="round"/>
<path d="M399.676 243.354C409.043 226.124 402.773 204.505 385.67 195.067C368.568 185.63 347.11 191.948 337.743 209.178C328.376 226.409 334.646 248.028 351.749 257.465C368.851 266.902 390.309 260.585 399.676 243.354Z" fill="#E85E50" stroke="#303030" stroke-width="1.5" stroke-miterlimit="10" stroke-linecap="round" stroke-linejoin="round"/>
<path d="M379.425 248.404C391.547 242.422 396.56 227.672 390.622 215.459C384.683 203.246 370.043 198.196 357.921 204.178C345.799 210.161 340.786 224.911 346.724 237.124C352.663 249.336 367.303 254.387 379.425 248.404Z" fill="#303030" stroke="#303030" stroke-width="1.5" stroke-miterlimit="10" stroke-linecap="round" stroke-linejoin="round"/>
<path d="M392.524 220.94C388.156 208.84 375.173 202.064 362.732 205.727C350.291 209.39 342.972 222.143 345.758 234.708C350.125 246.809 363.109 253.584 375.55 249.921C387.991 246.259 395.311 233.507 392.524 220.94Z" fill="#FC7E72" stroke="#303030" stroke-width="1.5" stroke-miterlimit="10" stroke-linecap="round" stroke-linejoin="round"/>
<path d="M356.046 223.373L375.462 238.582" stroke="white" stroke-width="1.5" stroke-miterlimit="10" stroke-linecap="round" stroke-linejoin="round"/>
<path d="M359.83 215.769L385.127 235.584" stroke="white" stroke-width="1.5" stroke-miterlimit="10" stroke-linecap="round" stroke-linejoin="round"/>
<path d="M253.651 262.976L240.737 276.43C236.115 281.244 230.133 284.505 223.604 285.769L85.3857 312.513L216.151 260.069C222.327 257.592 229.112 257.095 235.579 258.645L253.651 262.976Z" fill="#E85E50" stroke="#303030" stroke-width="1.5" stroke-miterlimit="10" stroke-linecap="round" stroke-linejoin="round"/>
<path d="M240.736 276.429C236.114 281.244 230.132 284.505 223.603 285.768L85.3848 312.513L253.65 262.975L240.736 276.429Z" fill="#303030" stroke="#303030" stroke-width="1.5" stroke-miterlimit="10" stroke-linecap="round" stroke-linejoin="round"/>
<path d="M102.479 371.452L247.538 363.393L275.091 313.103L228.176 323.726L225.232 342.358L102.479 371.452Z" fill="#303030" stroke="#303030" stroke-width="1.5" stroke-miterlimit="10" stroke-linecap="round" stroke-linejoin="round"/>
<path d="M68.2881 253.566L194.83 181.666L244.926 209.096L199.715 225.595L187.276 211.492L68.2881 253.566Z" fill="#E85E50" stroke="#303030" stroke-width="1.5" stroke-miterlimit="10" stroke-linecap="round" stroke-linejoin="round"/>
<path d="M343.597 228.05C351.556 201.844 345.814 192.241 330.258 187.992C311.626 182.902 254.926 172.746 254.926 172.746L230.713 166.235C225.006 182.255 220.637 203.459 236.533 212.272C245.347 217.157 257.801 218.398 277.699 218.803C297.597 219.209 309.002 219.442 309.002 219.442C299.875 234.974 301.459 250.546 298.393 268.665C295.151 287.829 293.73 293.775 290.783 302.716C289.381 306.967 288.437 313.9 293.201 318.787C293.884 319.488 294.773 319.941 295.646 320.378C314.687 329.898 333.125 335.306 353.582 341.128C354.896 341.503 360.498 342.384 361.122 341.159C361.431 340.552 361.076 337.233 360.874 336.581C359.54 332.299 355.669 331.506 351.596 328.707C345.714 324.666 341.405 320.611 336.315 315.598C332.034 311.384 329.823 310.185 325.7 304.712C323.437 301.708 321.826 296.995 324.784 285.613C328.53 271.195 337.402 248.444 343.597 228.05Z" fill="#FFCCCC"/>
<path d="M296.609 278.875C294.235 278.69 293.175 280.748 292.577 286.015C291.067 299.339 287.597 304.939 286.648 307.976C285.698 311.013 278.679 323.482 284.669 327.661C290.659 331.84 304.223 334.178 317.532 338.029C330.84 341.88 347.194 345.082 352.475 346.32C360.633 348.233 363.012 339.253 359.953 334.634C356.893 330.016 346.786 326.808 339.969 319.141C333.151 311.474 326.38 304.734 325.272 300.307C324.164 295.88 324.845 294.439 325.556 290.49C325.857 288.82 327.078 286.813 324.784 285.615C324.376 286.514 324.003 287.453 323.664 288.431C323.664 288.431 320.98 292.372 308.905 289.144C297.228 286.021 296.043 281.922 296.043 281.922L296.609 278.875Z" fill="#303030"/>
<path d="M353.992 328.097C348.784 325.108 345.895 323.003 341.803 318.878C337.064 314.099 329.21 303.361 327.438 300.838C325.131 297.552 317.655 295.974 312.711 300.225C311.632 299.334 310.446 298.538 309.077 298.433C307.773 298.332 306.516 298.877 305.32 299.409C303.099 300.399 299.561 302.907 295.329 301.611C291.128 300.324 291.135 295.021 291.135 295.021L291.949 290.534C288.02 290.951 288.095 292.461 287.794 295.261C287.531 297.719 286.206 301.842 284.973 305.168C283.573 308.948 282.103 313.026 280.265 319.754C279.7 324.717 284.239 326.872 291.612 328.846C301.097 331.384 333.143 339.961 333.143 339.961C339.944 341.781 350.474 344.6 354.581 345.699C358.688 346.799 362.768 344.31 363.072 342.855C364.414 336.444 362.552 333.008 353.992 328.097Z" fill="#E85E50"/>
<path d="M331.886 325.265C335.621 322.399 342.465 320.567 347.234 323.728" stroke="#303030" stroke-width="1.5" stroke-miterlimit="10" stroke-linecap="round" stroke-linejoin="round"/>
<path d="M339.65 316.553C336.799 317.258 334.941 318.634 332.508 321.004" stroke="#303030" stroke-width="1.5" stroke-miterlimit="10" stroke-linecap="round" stroke-linejoin="round"/>
<path d="M341.803 318.878C338.637 317.881 333.861 317.598 325.87 316.85" stroke="#303030" stroke-width="1.5" stroke-miterlimit="10" stroke-linecap="round" stroke-linejoin="round"/>
<path d="M334.454 310.613C331.602 311.317 330.058 312.391 327.625 314.761" stroke="#303030" stroke-width="1.5" stroke-miterlimit="10" stroke-linecap="round" stroke-linejoin="round"/>
<path d="M336.608 312.938C333.442 311.941 328.666 311.658 320.676 310.909" stroke="#303030" stroke-width="1.5" stroke-miterlimit="10" stroke-linecap="round" stroke-linejoin="round"/>
<path d="M329.574 304.029C326.722 304.733 324.552 306.754 322.119 309.125" stroke="#303030" stroke-width="1.5" stroke-miterlimit="10" stroke-linecap="round" stroke-linejoin="round"/>
<path d="M331.413 306.998C328.247 306 323.47 305.717 315.479 304.969" stroke="#303030" stroke-width="1.5" stroke-miterlimit="10" stroke-linecap="round" stroke-linejoin="round"/>
<path d="M285.259 305.179C285.708 306.388 286.386 307.488 287.385 308.399C289.382 310.22 292.104 311.213 294.796 311.099C299.036 310.921 302.997 308.152 307.213 308.648C310.279 309.009 312.869 311.039 315.201 313.078C319.51 316.845 326.078 323.48 326.672 325.296C327.266 327.11 326.809 332.163 326.368 337.033" stroke="#303030" stroke-width="1.5" stroke-miterlimit="10" stroke-linecap="round" stroke-linejoin="round"/>
<path d="M357.727 351.678C353.815 351.693 333.679 346.153 333.679 346.153C333.679 346.153 300.13 337.173 292.455 335.118C284.781 333.064 280.761 331.726 279.524 328.473C278.795 326.555 278.841 323.799 280.264 319.753C282.704 323.441 281.678 324.027 294.79 327.536C307.903 331.046 339.876 339.713 346.855 341.472C351.715 342.697 359.065 345.366 363.072 342.855C363.811 344.7 363.693 351.656 357.727 351.678Z" fill="white" stroke="#303030" stroke-width="1.5" stroke-miterlimit="10" stroke-linecap="round" stroke-linejoin="round"/>
<path d="M217.174 164.786L295.416 177.846L301.318 178.934C301.318 178.934 332.511 182.983 342.673 193.357C349.109 199.927 350.095 212.631 347.062 221.96C344.03 231.289 339.484 248.284 338.071 254.684C336.658 261.084 337.102 264.313 330.665 266.693C324.228 269.073 308.672 267.254 299.51 260.663C294.105 256.774 297.707 248.717 299.386 239.791C301.301 229.613 302.669 223.889 302.669 223.889C302.669 223.889 284.234 223.97 269.618 223.121C255.002 222.274 248.944 221.604 237.866 216.137C223.722 209.154 216.27 197.432 217.174 164.786Z" fill="#909AC9"/>
<path d="M314.732 205.187C309.667 210.646 305.564 217.008 302.669 223.888" stroke="#303030" stroke-width="1.5" stroke-miterlimit="10" stroke-linecap="round" stroke-linejoin="round"/>
<path d="M330.665 266.692L327.976 274.819C321.539 277.198 307.554 275.257 298.393 268.666L299.51 260.662C308.672 267.253 324.228 269.072 330.665 266.692Z" fill="#303030"/>
<path d="M298.148 180.892C300.03 170.156 300.095 148.915 300.095 148.915L219.053 138.633C219.053 138.633 217.175 153.942 217.175 164.786L298.148 180.892Z" fill="#909AC9"/>
<path d="M255.003 170.97C272.535 173.816 297.017 176.495 333.898 187.156" stroke="#303030" stroke-width="1.5" stroke-miterlimit="10" stroke-linecap="round" stroke-linejoin="round"/>
<path d="M299.236 163.426C299.084 168.839 298.928 173.253 297.787 178.283" stroke="#303030" stroke-width="1.5" stroke-miterlimit="10" stroke-linecap="round" stroke-linejoin="round"/>
<path d="M408.071 21.0571C406.273 21.6279 404.883 22.4889 401.348 24.4046C398.543 25.9242 396.679 26.9573 392.452 29.0082C391.019 29.7035 388.381 30.6712 386.91 31.3208C384.21 32.5143 381.794 34.998 378.783 37.4951C376.041 39.7692 374.336 41.8443 370.42 43.8594C361.854 48.266 351.881 52.1134 342.844 55.4232C311.542 62.0661 303.72 62.179 290.466 64.8814V101.331C300.16 95.0631 322.178 88.1872 332.488 85.2134C347.701 80.8257 350.835 78.2882 354.946 75.7696C360.96 72.0861 379.436 58.8773 382.214 57.4562C385.59 55.7296 389.589 58.3074 395.809 53.0291C397.775 51.3607 399.237 49.4307 399.237 49.4307C401.16 49.1503 402.204 48.6423 402.907 48.2525C404.564 47.3341 406.786 46.241 406.798 44.0333C406.8 43.6937 406.736 43.3559 406.616 43.0378C406.232 42.0038 405.544 41.2055 404.866 41.1858C405.521 40.3928 406.143 38.9278 405.683 37.6062C405.223 36.2846 404.616 35.3904 403.269 35.739C404.931 33.4676 403.423 30.7509 402.751 30.1775C403.822 29.4813 404.919 28.7708 405.369 28.4868C408.237 26.6813 409.103 26.0004 409.632 24.6348C410.241 23.0606 409.756 20.5222 408.071 21.0571Z" fill="#FFCCCC"/>
<path d="M394.839 35.6449C396.314 35.6449 398.082 34.2418 399.237 33.1541" stroke="#303030" stroke-width="1.5" stroke-miterlimit="10" stroke-linecap="round" stroke-linejoin="round"/>
<path d="M403.268 35.739C400.543 39.3221 397.506 39.7621 395.81 40.3355" stroke="#303030" stroke-width="1.5" stroke-miterlimit="10" stroke-linecap="round" stroke-linejoin="round"/>
<path d="M404.866 41.1858C402.492 43.7564 397.975 46.2697 395.481 44.6193" stroke="#303030" stroke-width="1.5" stroke-miterlimit="10" stroke-linecap="round" stroke-linejoin="round"/>
<path d="M399.539 49.1262C397.803 49.7131 394.328 49.7391 393.817 46.5278" stroke="#303030" stroke-width="1.5" stroke-miterlimit="10" stroke-linecap="round" stroke-linejoin="round"/>
<path d="M389.447 32.1667C391.01 32.9973 392.141 34.1854 393.231 35.5589C393.797 36.2739 394.318 36.8447 394.566 37.7541C394.802 38.6188 394.823 39.5166 394.808 40.4072C394.792 41.3605 394.783 42.3192 394.672 43.2672C394.599 43.8926 394.532 45.2151 393.798 45.4382C392.315 45.8889 391.339 44.0037 390.932 42.9106C390.32 41.2673 389.859 39.5103 388.313 38.496C387.591 38.0229 386.922 39.1859 387.639 39.6563C389.137 40.6383 389.349 42.7708 390.069 44.2824C390.788 45.7895 392.292 47.1675 394.078 46.7509C396.097 46.2796 396.062 43.2663 396.114 41.6446C396.179 39.6044 396.29 37.2837 394.982 35.5759C393.607 33.7822 392.139 32.0798 390.121 31.0063C389.362 30.6023 388.687 31.7617 389.447 32.1667Z" fill="#303030"/>
<path d="M389.727 43.3175C389.713 45.0387 388.933 46.6676 387.633 47.7795C386.174 49.0286 384.209 49.309 382.391 48.8395C381.558 48.6245 381.204 49.921 382.036 50.136C384.311 50.7238 386.668 50.3125 388.498 48.7965C390.103 47.4668 391.044 45.4024 391.061 43.3175C391.069 42.4519 389.735 42.451 389.727 43.3175Z" fill="#303030"/>
<path d="M285.975 63.7972C295.543 62.5007 322.794 59.0591 329.743 58.3074C335.803 71.2608 332.654 83.9903 329.587 89.0662C317.415 92.7191 311.796 93.9511 304.697 98.3057C298.214 102.282 285.975 112.859 285.975 112.859V63.7972Z" fill="#909AC9" stroke="#303030" stroke-width="1.5" stroke-miterlimit="10" stroke-linecap="round" stroke-linejoin="round"/>
<path d="M243.633 28.3722C244.25 39.4567 254.384 51.0196 265.903 50.3682C277.422 49.7168 285.965 37.0975 285.348 26.0131C284.731 14.9287 274.892 6.47132 263.373 7.12182C251.853 7.7741 243.016 17.2878 243.633 28.3722Z" fill="#303030"/>
<path d="M249.78 35.9111C248.04 36.1826 246.545 35.9013 245.046 34.8897C243.39 33.7697 242.769 30.8514 243.028 29.3103C242.338 29.5002 241.634 29.6785 240.919 29.6785C240.203 29.6794 239.464 29.4859 238.925 29.011C238.593 28.7171 238.373 28.1329 238.726 27.865C238.881 27.7468 239.09 27.7432 239.282 27.7118C240.264 27.5505 240.935 26.5721 241.131 25.5901C241.326 24.6081 241.165 23.5947 241.128 22.593C240.981 18.6058 243.27 13.1877 247.338 11.8956C248.805 11.4297 250.382 11.4422 251.909 11.6232C252.384 9.03648 253.858 6.68807 255.824 4.9561C257.791 3.22413 260.227 2.08621 262.761 1.45005C264.478 1.01908 266.268 0.810308 268.02 1.05581C271.276 1.51277 274.099 3.47232 277.119 4.78586C280.138 6.0985 283.938 6.66656 286.489 4.5744C286.94 4.20346 287.517 3.73037 288.029 4.01172C288.241 4.1273 288.371 4.3504 288.477 4.56813C289.651 6.9936 288.575 9.79629 286.672 11.5041C288.457 11.4028 290.219 11.9171 291.475 13.5469C292.66 15.0827 293.143 17.5108 293.018 19.4632C291.976 18.595 290.679 18.0413 289.335 17.8917C290.747 19.6792 291.189 22.1987 290.471 24.3652C289.908 26.065 288.647 27.5057 287.071 28.3265C286.235 28.7619 285.429 28.7512 284.545 28.9931C283.393 29.3094 282.24 29.6212 281.082 29.9187C276.453 31.1077 271.78 32.1183 267.074 32.948C264.215 33.4516 261.341 33.8109 258.475 34.2571C255.561 34.7087 252.69 35.4586 249.78 35.9111Z" fill="#303030"/>
<path d="M286.563 43.5629C286.201 40.7665 285.77 36.6216 285.738 34.0501C285.699 30.9275 285.783 29.0656 285.309 25.1053C284.612 19.2938 281.067 14.8757 281.067 14.8757C276.966 9.39663 266.361 6.4004 259.076 16.5593C254.378 17.0117 252.237 19.7293 251.669 23.4405C253.468 26.3848 255.375 29.5262 255.528 33.9434C255.679 36.9881 255.021 37.1484 253.755 35.8215C252.065 34.1065 249.607 32.7213 247.143 32.8951C243.933 33.1218 241.988 35.1683 241.665 37.5319C241.345 39.8678 243.346 42.2288 245.644 42.9966C247.942 43.7645 250.891 43.5486 252.848 42.0576C252.848 42.0576 253.113 44.8513 253.341 47.2499C253.568 49.6494 254.604 51.8133 256.39 53.3804L253.407 66.0695L247.485 67.4243C249.081 69.5962 259.31 79.6851 270.36 81.4305C281.41 83.1768 282.794 67.3105 282.794 67.3105L276.592 65.3357L276.755 58.0288C278.109 57.915 283.335 57.3022 285.584 54.6536C287.832 52.0077 287.235 48.7481 286.563 43.5629Z" fill="#FFCCCC"/>
<path d="M277.133 45.2205C277.139 45.3245 277.141 45.4356 277.088 45.5243C277.034 45.6148 276.934 45.6658 276.838 45.707C276.276 45.9463 275.657 46.0251 275.048 46.0081C274.439 45.9902 273.836 45.8791 273.24 45.7492C272.698 45.6309 272.153 45.4947 271.657 45.2429C271.162 44.9902 270.714 44.6103 270.472 44.1068C271.591 43.8926 272.619 43.3443 273.706 43.0029C274.122 42.8721 274.55 42.7718 274.985 42.7511C275.307 42.7359 275.63 42.7637 275.952 42.7924C276.29 42.8219 277.395 42.7305 277.327 43.3138C277.311 43.4473 277.22 43.571 277.178 43.6973C277.125 43.8604 277.099 44.0297 277.089 44.2C277.068 44.5405 277.113 44.8809 277.133 45.2205Z" fill="#303030"/>
<path d="M271.991 45.4947C273.205 46.3289 275.535 46.8065 276.641 45.544C277.313 44.7752 276.414 44.3227 275.754 44.1597C275.226 44.0298 274.662 44.0181 274.125 44.0916C273.636 44.1588 273.158 44.3129 272.725 44.5521C272.412 44.725 272.113 44.9482 271.929 45.2555C271.908 45.2904 271.888 45.3298 271.893 45.3711C271.898 45.4266 271.946 45.4642 271.991 45.4947Z" fill="#FC7E72"/>
<path d="M275.175 44.0969C274.178 44.4096 273.117 44.4293 272.072 44.4356C271.885 44.4365 271.692 44.4356 271.524 44.3532C271.356 44.2707 271.225 44.0799 271.273 43.898C271.323 43.7116 271.524 43.6166 271.705 43.5521C272.761 43.1713 273.872 42.9455 274.992 42.8828C275.333 42.864 276.06 42.7341 276.087 43.2475C276.112 43.7233 275.54 43.9822 275.175 44.0969Z" fill="white"/>
<path d="M279.653 42.3828C278.817 43.4141 277.045 42.6973 275.353 42.6713C274.378 42.657 273.346 42.8828 272.451 43.2734C271.557 43.6641 269.518 44.4669 268.092 43.4419" stroke="#303030" stroke-width="1.5" stroke-miterlimit="10" stroke-linecap="round" stroke-linejoin="round"/>
<path d="M278.654 42.907C277.913 43.0091 276.934 43.7044 277.218 44.7044C277.424 45.4283 276.944 45.8709 276.385 46.0089C274.339 46.5125 271.101 45.9955 270.186 43.9284" stroke="#303030" stroke-width="1.5" stroke-miterlimit="10" stroke-linecap="round" stroke-linejoin="round"/>
<path d="M276.077 30.0048C276.219 28.6357 277.333 27.729 278.692 27.3276C280.052 26.9262 282.101 26.841 282.868 28.7128C282.761 30.7807 278.499 32.2914 276.077 30.0048Z" fill="white"/>
<path d="M282.027 29.6841C281.787 30.6195 280.805 31.1786 279.831 30.9331C278.858 30.6876 278.263 29.7298 278.502 28.7944C278.741 27.859 279.725 27.2998 280.698 27.5454C281.672 27.7918 282.267 28.7496 282.027 29.6841Z" fill="#303030"/>
<path d="M278.37 28.772L280.265 29.2397L278.325 29.7782L278.37 28.772Z" fill="white"/>
<path d="M283.017 28.3024C281.861 27.0588 280.208 27.0489 278.849 27.4512C277.49 27.8535 276.26 29.0246 276.078 30.0057" stroke="#303030" stroke-width="1.5" stroke-miterlimit="10" stroke-linecap="round" stroke-linejoin="round"/>
<path d="M275.778 22.2562C277.881 20.5887 281.063 20.1631 283.663 22.24" stroke="#303030" stroke-width="1.5" stroke-miterlimit="10" stroke-linecap="round" stroke-linejoin="round"/>
<path d="M262.019 31.8784C262.171 30.417 263.359 29.4493 264.809 29.0201C266.261 28.591 268.448 28.5014 269.268 30.4985C269.153 32.7063 264.604 34.3182 262.019 31.8784Z" fill="white"/>
<path d="M268.369 31.5361C268.114 32.5343 267.064 33.131 266.026 32.8685C264.987 32.606 264.352 31.5845 264.607 30.5864C264.863 29.5882 265.912 28.9915 266.951 29.254C267.99 29.5157 268.624 30.538 268.369 31.5361Z" fill="#303030"/>
<path d="M264.466 30.5613L266.488 31.0612L264.419 31.6365L264.466 30.5613Z" fill="white"/>
<path d="M269.425 30.0605C268.191 28.7326 266.427 28.7228 264.976 29.1511C263.526 29.5802 262.212 30.8311 262.019 31.8776" stroke="#303030" stroke-width="1.5" stroke-miterlimit="10" stroke-linecap="round" stroke-linejoin="round"/>
<path d="M259.157 26.9548C260.566 24.8321 263.972 22.404 267.12 23.3278" stroke="#303030" stroke-width="1.5" stroke-miterlimit="10" stroke-linecap="round" stroke-linejoin="round"/>
<path d="M273.055 25.9915C274.233 29.9365 276.159 32.2509 277.378 34.1468C278.312 35.6002 278.741 38.2774 274.912 38.9557" stroke="#303030" stroke-width="1.5" stroke-miterlimit="10" stroke-linecap="round" stroke-linejoin="round"/>
<path d="M244.779 38.2614C245.314 37.791 246.7 37.3224 248.175 37.5527C249.649 37.7829 250.96 38.7838 251.527 40.1116" stroke="#303030" stroke-width="1.5" stroke-miterlimit="10" stroke-linecap="round" stroke-linejoin="round"/>
<path d="M247.396 39.5597C247.789 39.2156 249.206 38.2954 250.754 38.9298" stroke="#303030" stroke-width="1.5" stroke-miterlimit="10" stroke-linecap="round" stroke-linejoin="round"/>
<path d="M259.077 16.5594C264.138 12.0185 270.896 12.3061 274.868 17.9052C278.297 22.7382 283.334 26.9413 288.013 24.1861C284.692 20.5645 286.373 13.4144 278.771 8.36367C272.407 4.13544 258.051 5.25275 259.077 16.5594Z" fill="#303030"/>
<path d="M276.755 58.0307C271.608 58.2627 265.733 57.5504 262.13 55.7297C263.231 57.8622 266.89 60.8728 276.678 61.4623L276.755 58.0307Z" fill="#303030"/>
<path d="M217.101 166.776C225.001 162.926 245.374 166.911 264.776 164.786C284.177 162.662 298.955 152.983 300.096 146.007C298.513 141.235 294.452 137.999 294.452 137.999C294.452 137.999 294.603 130.455 297.052 119.947C302.253 97.6339 303.163 86.6068 296.811 74.113C295.062 70.6715 290.749 65.0374 285.975 63.7974C285.975 63.7974 282.245 64.2624 277.148 64.8842C283.474 78.1961 262.679 78.2337 252.582 65.4756C248.154 65.4756 242.788 66.1162 236.69 66.8052C215.041 69.2504 219.634 92.3269 214.885 122.411C211.568 143.429 207.417 172.803 216.374 173.241L217.101 166.776Z" fill="white" stroke="#303030" stroke-width="1.5" stroke-miterlimit="10" stroke-linecap="round" stroke-linejoin="round"/>
<path d="M290.034 140.645C288.754 142.408 287.296 144.075 285.501 145.422C282.18 147.915 278.275 149.591 274.409 151.016C270.735 152.371 266.88 153.228 263.034 153.913C258.776 154.67 254.473 155.182 250.161 155.496C246.247 155.78 242.285 155.951 238.366 155.66C237.509 155.596 237.513 156.94 238.366 157.004C241.87 157.265 245.409 157.144 248.913 156.924C253.27 156.651 257.618 156.165 261.927 155.458C265.963 154.796 270.007 153.956 273.885 152.625C277.919 151.241 282.011 149.512 285.528 147.052C287.783 145.473 289.574 143.545 291.188 141.323C291.694 140.624 290.536 139.953 290.034 140.645Z" fill="#303030"/>
<path d="M234.911 69.27C225.512 69.882 220.494 71.2394 208.201 85.9302C200.31 95.3606 196.263 99.9992 189.029 108.946C181.795 117.892 178.856 122.473 178.911 129.513C178.999 140.728 179.095 145.566 179.052 156.875C179.037 160.907 179.193 166.839 178.903 170.855C178.724 173.325 175.702 176.105 174.081 177.837C171.969 180.094 169.645 182.136 167.283 184.122C165.908 185.278 164.504 186.431 163.427 187.873C162.296 189.385 161.566 191.157 160.85 192.909C159.638 195.867 158.664 198.401 157.215 202.159L172.918 193.335C171.651 194.976 170.347 196.568 169.751 198.535C169.452 199.522 169.284 200.614 169.675 201.568C170.397 203.33 172.626 203.626 174.097 203.009C175.569 202.391 178.182 200.293 179.229 199.082C181.298 196.692 182.672 194.83 185.392 193.233C187.885 191.769 190.228 190.259 192.638 188.722C194.945 187.252 196.827 185.019 197.588 182.351C198.036 180.782 198.097 179.13 198.154 177.499C198.397 170.575 199.287 163.764 200.129 156.876C201.534 145.37 203.04 133.03 203.04 133.03L228.28 109.644C228.28 109.644 241.337 80.9646 234.911 69.27Z" fill="#FFCCCC"/>
<path d="M176.499 184.427C176.556 185.504 176.463 186.365 175.897 187.301C175.312 188.266 174.592 189.138 173.877 190.007C172.556 191.612 171.219 193.201 169.931 194.834C169.402 195.504 170.34 196.461 170.875 195.784C172.285 193.997 173.759 192.264 175.197 190.5C175.927 189.604 176.681 188.684 177.233 187.662C177.789 186.632 177.893 185.581 177.833 184.427C177.787 183.565 176.453 183.56 176.499 184.427Z" fill="#303030"/>
<path d="M236.689 66.8052C228.072 67.6689 222.544 68.6438 213.422 77.5545C204.3 86.4661 190.619 101.504 190.619 101.504C190.619 101.504 189.375 108.619 194.903 116.479C200.431 124.339 210.105 127.82 210.105 127.82C210.105 127.82 222.267 117.516 228.348 112.225C234.43 106.934 242.957 87.6623 236.689 66.8052Z" fill="#909AC9" stroke="#303030" stroke-width="1.5" stroke-miterlimit="10" stroke-linecap="round" stroke-linejoin="round"/>
</svg>
