<svg width="593" height="317" viewBox="0 0 593 317" fill="none" xmlns="http://www.w3.org/2000/svg">
<path d="M300.307 199.178C289.304 188.983 269.803 190.179 260.128 201.641C256.311 206.163 253.727 212.081 248.484 214.824C240.446 219.03 230.72 213.72 221.681 214.492C211.081 215.398 202.379 226.149 203.702 236.704C204.298 241.458 206.552 246.535 204.317 250.774C201.464 256.183 193.217 256.399 189.748 261.435C186.616 265.982 189.058 272.697 193.599 275.837C198.141 278.976 204.014 279.36 209.53 279.109C215.046 278.858 220.649 278.089 226.033 279.311C231.959 280.656 237.078 284.293 242.719 286.554C256.292 291.995 272.184 288.965 284.757 281.497C297.33 274.029 307.053 262.603 315.537 250.692" fill="#A3AFE7"/>
<g opacity="0.8">
<path d="M300.307 199.178C289.304 188.983 269.803 190.179 260.128 201.641C256.311 206.163 253.727 212.081 248.484 214.824C240.446 219.03 230.72 213.72 221.681 214.492C211.081 215.398 202.379 226.149 203.702 236.704C204.298 241.458 206.552 246.535 204.317 250.774C201.464 256.183 193.217 256.399 189.748 261.435C186.616 265.982 189.058 272.697 193.599 275.837C198.141 278.976 204.014 279.36 209.53 279.109C215.046 278.858 220.649 278.089 226.033 279.311C231.959 280.656 237.078 284.293 242.719 286.554C256.292 291.995 272.184 288.965 284.757 281.497C297.33 274.029 307.053 262.603 315.537 250.692" fill="white"/>
</g>
<path d="M297.638 213.052C288.688 204.272 272.04 205.508 264.484 215.513C259.869 221.624 257.226 230.961 249.638 231.988C244.492 232.684 239.619 228.811 234.441 229.209C227.548 229.739 223.368 238.141 225.141 244.823C226.914 251.505 232.796 256.319 238.959 259.449C260.332 270.303 288.814 264.567 304.319 246.286" fill="#A3AFE7"/>
<path d="M501.352 235.406L489.782 219.008L504.83 208.336L515.371 229.746L502.048 235.26" fill="#FFBE9D"/>
<path d="M514.744 226.812L522.93 241.583C522.93 241.583 540.694 238.224 542.472 240.806L514.401 257.707L500.702 235.214L514.744 226.812Z" fill="#A3AFE7"/>
<g opacity="0.6">
<path d="M513.519 245.594C513.065 246.07 513.058 246.907 513.514 247.38C513.971 247.853 514.821 247.868 515.284 247.4C515.746 246.933 515.786 245.928 515.279 245.509C514.772 245.09 513.772 245.127 513.436 245.692" fill="white"/>
</g>
<g opacity="0.6">
<path d="M514.401 257.708L513.109 255.387L540.507 240.051C540.507 240.051 542.084 239.842 542.473 240.808L514.401 257.708Z" fill="white"/>
</g>
<path d="M523.299 241.167C523.377 241.307 522.729 241.782 522.32 242.628C521.889 243.464 521.899 244.267 521.74 244.289C521.598 244.338 521.309 243.396 521.822 242.379C522.326 241.359 523.253 241.024 523.299 241.167Z" fill="#263238"/>
<path d="M526.977 240.612C527.088 240.726 526.635 241.317 526.519 242.177C526.377 243.034 526.637 243.731 526.497 243.807C526.381 243.906 525.803 243.16 525.968 242.094C526.123 241.026 526.895 240.484 526.977 240.612Z" fill="#263238"/>
<path d="M530.771 243.129C530.664 243.233 530.061 242.663 529.961 241.701C529.854 240.739 530.322 240.054 530.449 240.133C530.594 240.199 530.421 240.852 530.515 241.642C530.59 242.432 530.898 243.034 530.771 243.129Z" fill="#263238"/>
<path d="M521.06 238.008C521.078 238.167 520.335 238.357 519.592 238.876C518.838 239.38 518.392 240.003 518.25 239.928C518.111 239.877 518.394 239.015 519.278 238.416C520.157 237.811 521.063 237.86 521.06 238.008Z" fill="#263238"/>
<path d="M519.355 235.058C519.391 235.114 518.9 235.525 517.945 235.897C517.469 236.082 516.877 236.246 516.202 236.331C515.865 236.373 515.507 236.394 515.137 236.389C514.957 236.384 514.754 236.392 514.513 236.314C514.275 236.262 513.97 235.951 514.011 235.622C514.025 235.32 514.223 235.074 514.423 234.947C514.626 234.816 514.819 234.757 514.994 234.702C515.352 234.59 515.708 234.517 516.049 234.476C516.732 234.397 517.354 234.443 517.858 234.546C518.872 234.757 519.403 235.135 519.372 235.19C519.337 235.273 518.762 235.034 517.799 234.936C517.32 234.887 516.743 234.885 516.12 234.984C515.809 235.035 515.487 235.112 515.163 235.221C514.819 235.322 514.564 235.472 514.568 235.65C514.571 235.717 514.579 235.739 514.694 235.789C514.807 235.831 514.974 235.837 515.152 235.842C515.498 235.855 515.832 235.845 516.15 235.819C516.786 235.767 517.354 235.651 517.823 235.522C518.761 235.264 519.312 234.982 519.355 235.058Z" fill="#263238"/>
<path d="M519.295 235.362C519.259 235.412 518.691 235.085 518.107 234.227C517.819 233.801 517.542 233.24 517.371 232.572C517.288 232.238 517.232 231.879 517.216 231.503C517.214 231.127 517.191 230.634 517.685 230.253C517.956 230.075 518.318 230.153 518.508 230.292C518.715 230.426 518.831 230.578 518.962 230.72C519.211 231.017 519.399 231.342 519.534 231.666C519.805 232.317 519.86 232.961 519.808 233.48C519.697 234.538 519.224 235.046 519.184 235.006C519.097 234.965 519.415 234.412 519.414 233.461C519.413 232.992 519.324 232.427 519.063 231.872C518.934 231.596 518.764 231.322 518.548 231.075C518.324 230.803 518.068 230.63 517.974 230.727C517.833 230.809 517.73 231.176 517.759 231.484C517.766 231.823 517.808 232.149 517.87 232.456C518 233.069 518.215 233.601 518.442 234.023C518.901 234.871 519.356 235.296 519.295 235.362Z" fill="#263238"/>
<path d="M458.507 177.115L494.442 233.595L514.099 220.232L480.99 152.186" fill="#263238"/>
<path d="M461.413 164.722C461.56 164.788 460.489 167.08 459.976 170.116C459.436 173.148 459.671 175.667 459.51 175.679C459.387 175.709 458.909 173.149 459.463 170.027C459.993 166.902 461.307 164.652 461.413 164.722Z" fill="#455A64"/>
<path d="M457.722 164.884C457.879 164.895 457.73 167.364 458.132 170.361C458.515 173.362 459.296 175.708 459.147 175.759C459.029 175.813 458.009 173.498 457.616 170.429C457.205 167.362 457.593 164.863 457.722 164.884Z" fill="#455A64"/>
<path d="M318.359 176.944L293.705 169.337C263.967 207.206 265.951 248.813 313.826 273.442L340.389 243.664L318.359 176.944Z" fill="#263238"/>
<path d="M320.76 170.909C304.982 180.111 297.138 199.512 299.058 218.481C301.166 239.303 314.924 259.601 340.141 265.212L509.674 231.32C539.274 225.403 557.466 195.419 549.046 166.432C541.367 139.999 514.265 124.272 487.505 130.722L320.76 170.909Z" fill="#E0E0E0"/>
<path d="M320.76 170.909C320.76 170.909 321.289 170.763 322.331 170.503C323.382 170.244 324.932 169.861 326.963 169.36C331.047 168.364 337.056 166.899 344.792 165.013C360.293 161.257 382.709 155.825 410.406 149.114C424.261 145.765 439.437 142.096 455.728 138.158C463.875 136.19 472.3 134.155 480.979 132.059C483.149 131.536 485.335 131.01 487.537 130.48C488.654 130.267 489.775 130.054 490.9 129.84C491.463 129.738 492.024 129.616 492.591 129.529L494.31 129.373C495.459 129.281 496.609 129.14 497.767 129.086C498.928 129.094 500.092 129.102 501.26 129.111C502.431 129.071 503.594 129.244 504.764 129.357L506.521 129.539L507.401 129.634L508.27 129.809C509.43 130.042 510.594 130.276 511.761 130.511C512.919 130.783 514.049 131.179 515.2 131.508C515.771 131.686 516.352 131.842 516.919 132.039L518.591 132.718L520.268 133.4C520.829 133.624 521.393 133.846 521.921 134.145C522.996 134.704 524.075 135.264 525.156 135.826C526.223 136.414 527.22 137.127 528.26 137.774C528.77 138.114 529.304 138.42 529.795 138.788L531.248 139.927L532.705 141.069L533.433 141.643L534.107 142.281C541.501 148.879 547.06 157.831 549.669 167.807C552.301 177.764 551.876 188.727 548.15 198.71C544.476 208.694 537.571 217.659 528.489 223.756C524.685 226.346 520.532 228.366 516.22 229.82C511.907 231.333 507.415 231.99 503.046 232.909C494.266 234.663 485.592 236.396 477.042 238.105C459.942 241.52 443.336 244.836 427.361 248.026C395.411 254.398 365.987 260.266 340.181 265.413L340.137 265.422L340.096 265.412C335.553 264.319 331.22 262.819 327.223 260.841C323.269 258.783 319.664 256.324 316.462 253.561C313.326 250.721 310.621 247.606 308.31 244.355C306.088 241.042 304.247 237.628 302.815 234.173C302.449 233.313 302.17 232.427 301.848 231.567C301.528 230.706 301.222 229.848 301.001 228.971C300.756 228.102 300.514 227.241 300.273 226.388C300.091 225.521 299.91 224.661 299.73 223.81C299.542 222.96 299.377 222.114 299.284 221.265C299.169 220.419 299.056 219.582 298.944 218.752C298.853 217.92 298.822 217.091 298.758 216.274C298.692 215.456 298.647 214.646 298.662 213.842C298.566 207.416 299.514 201.537 301.129 196.495C302.715 191.44 304.879 187.201 307.151 183.808C309.418 180.405 311.777 177.824 313.871 175.965C314.395 175.5 314.867 175.037 315.346 174.649C315.836 174.274 316.293 173.924 316.717 173.6C317.14 173.277 317.53 172.98 317.886 172.709C318.263 172.47 318.605 172.253 318.91 172.059C320.13 171.289 320.76 170.909 320.76 170.909C320.76 170.909 320.146 171.328 318.944 172.113C318.643 172.309 318.306 172.529 317.933 172.772C317.581 173.046 317.194 173.347 316.775 173.673C316.355 174 315.903 174.353 315.417 174.731C314.942 175.122 314.475 175.587 313.956 176.055C311.881 177.922 309.545 180.507 307.302 183.907C305.054 187.297 302.916 191.526 301.353 196.564C299.762 201.589 298.836 207.443 298.947 213.837C298.934 214.637 298.981 215.443 299.049 216.256C299.114 217.069 299.147 217.894 299.239 218.721C299.353 219.546 299.467 220.379 299.583 221.22C299.677 222.065 299.843 222.906 300.032 223.751C300.212 224.597 300.394 225.452 300.577 226.314C300.818 227.162 301.061 228.018 301.306 228.881C301.528 229.752 301.833 230.604 302.153 231.46C302.475 232.314 302.754 233.195 303.119 234.048C304.549 237.48 306.385 240.869 308.598 244.155C310.9 247.38 313.591 250.468 316.708 253.282C319.891 256.02 323.471 258.454 327.399 260.491C331.37 262.448 335.672 263.931 340.185 265.011L340.1 265.01C365.902 259.84 395.32 253.944 427.264 247.543C443.237 244.346 459.841 241.023 476.94 237.601C485.49 235.891 494.163 234.156 502.943 232.4C507.326 231.478 511.798 230.822 516.052 229.327C520.321 227.888 524.432 225.888 528.197 223.324C537.187 217.29 544.024 208.415 547.663 198.531C551.354 188.648 551.777 177.797 549.174 167.936C546.593 158.056 541.094 149.191 533.774 142.652L533.107 142.019L532.386 141.451L530.944 140.319L529.506 139.19C529.019 138.825 528.49 138.522 527.986 138.185C526.956 137.543 525.969 136.836 524.913 136.253C523.842 135.696 522.774 135.14 521.709 134.586C521.186 134.289 520.628 134.069 520.072 133.847L518.412 133.171L516.756 132.497C516.195 132.301 515.62 132.147 515.054 131.97C513.914 131.643 512.795 131.249 511.648 130.979C510.492 130.746 509.339 130.513 508.19 130.281L507.329 130.107L506.457 130.013L504.716 129.831C503.557 129.718 502.405 129.545 501.245 129.585C500.088 129.576 498.934 129.567 497.784 129.558C496.637 129.611 495.496 129.749 494.358 129.84L492.654 129.992C492.092 130.078 491.536 130.198 490.977 130.3C489.862 130.511 488.751 130.721 487.644 130.931C485.443 131.459 483.258 131.983 481.088 132.504C472.41 134.591 463.986 136.617 455.84 138.576C439.548 142.491 424.371 146.137 410.515 149.467C382.801 156.11 360.372 161.487 344.862 165.205C337.111 167.051 331.091 168.485 327 169.46C324.961 169.94 323.405 170.306 322.35 170.554C321.302 170.796 320.76 170.909 320.76 170.909Z" fill="#263238"/>
<path d="M340.141 265.212L317.785 316.059C317.785 316.059 423.281 305.883 418.787 249.49L340.141 265.212Z" fill="#B7B2B1"/>
<path d="M400.6 151.667C400.6 151.667 349.875 102.44 285.391 123.177L320.761 170.909L400.6 151.667Z" fill="#B7B2B1"/>
<path d="M493.216 130.022C514.984 146.079 528.296 208.588 517.806 228.456C579.508 210.403 592.444 157.433 592.444 157.433C547.842 115.915 493.216 130.022 493.216 130.022Z" fill="#A3AFE7"/>
<path d="M308.421 241.959C308.529 242.054 305.137 246.111 300.844 251.019C296.55 255.929 292.983 259.832 292.875 259.737C292.767 259.642 296.159 255.586 300.452 250.676C304.745 245.768 308.313 241.865 308.421 241.959Z" fill="#455A64"/>
<path d="M592.443 157.432C592.443 157.432 592.321 157.664 592.061 158.103C591.79 158.555 591.402 159.203 590.895 160.048C590.376 160.905 589.737 161.96 588.984 163.203C588.605 163.827 588.197 164.497 587.761 165.214C587.281 165.903 586.77 166.637 586.229 167.414C585.135 168.96 583.945 170.699 582.591 172.564C581.144 174.36 579.572 176.311 577.884 178.407C576.997 179.418 576.036 180.428 575.068 181.491C574.075 182.531 573.131 183.681 572.013 184.722C569.797 186.823 567.516 189.113 564.859 191.225C559.662 195.569 553.512 199.825 546.384 203.416C542.838 205.242 539.027 206.85 535.027 208.276C533.035 209.007 530.964 209.636 528.936 210.379C526.887 211.092 524.649 211.542 522.49 212.034C505.008 215.9 485.734 219.864 465.51 224.064C425.04 232.429 388.383 239.88 361.844 245.245C348.581 247.91 337.846 250.067 330.409 251.562C326.706 252.293 323.827 252.861 321.857 253.251C320.889 253.436 320.147 253.578 319.63 253.677C319.128 253.77 318.868 253.805 318.868 253.805C318.868 253.805 319.121 253.736 319.62 253.625C320.135 253.514 320.873 253.356 321.837 253.148C323.803 252.737 326.675 252.136 330.37 251.364C337.8 249.831 348.523 247.619 361.772 244.885C388.304 239.424 424.936 231.885 465.406 223.555C485.628 219.355 504.909 215.404 522.386 211.567C524.584 211.067 526.702 210.655 528.769 209.942C530.836 209.189 532.886 208.572 534.876 207.846C538.864 206.433 542.659 204.842 546.193 203.032C553.297 199.474 559.433 195.254 564.627 190.943C567.282 188.848 569.564 186.573 571.782 184.489C572.901 183.456 573.848 182.313 574.842 181.281C575.813 180.226 576.776 179.223 577.666 178.219C579.363 176.138 580.942 174.2 582.396 172.416C583.759 170.563 584.96 168.836 586.065 167.301C586.612 166.53 587.129 165.802 587.614 165.118C588.057 164.407 588.471 163.741 588.856 163.122C589.625 161.89 590.278 160.845 590.808 159.996C591.334 159.162 591.737 158.524 592.018 158.078C592.291 157.646 592.443 157.432 592.443 157.432Z" fill="#263238"/>
<path d="M431.876 246.946C431.869 246.952 431.808 246.884 431.696 246.747C431.568 246.584 431.407 246.381 431.209 246.129C430.765 245.547 430.152 244.741 429.374 243.721C428.976 243.192 428.537 242.609 428.058 241.972C427.594 241.32 427.13 240.585 426.609 239.809C425.594 238.241 424.354 236.506 423.222 234.442C422.632 233.423 422.015 232.356 421.373 231.245C420.737 230.129 420.175 228.915 419.54 227.687C418.231 225.246 417.1 222.512 415.853 219.661C413.533 213.888 411.377 207.376 409.781 200.369C408.253 193.344 407.443 186.531 407.095 180.318C407.015 177.207 406.88 174.251 407.029 171.485C407.084 170.103 407.077 168.765 407.18 167.485C407.291 166.206 407.397 164.979 407.499 163.806C407.648 161.456 408.035 159.359 408.29 157.509C408.432 156.586 408.541 155.723 408.684 154.936C408.848 154.156 408.998 153.441 409.134 152.794C409.405 151.54 409.619 150.551 409.774 149.835C409.847 149.523 409.906 149.271 409.953 149.069C409.996 148.897 410.023 148.81 410.031 148.812C410.039 148.814 410.031 148.905 410.005 149.081C409.971 149.286 409.929 149.541 409.876 149.858C409.745 150.577 409.563 151.572 409.333 152.832C409.211 153.481 409.076 154.197 408.929 154.978C408.8 155.766 408.706 156.629 408.578 157.551C408.352 159.401 407.991 161.494 407.866 163.839C407.775 165.009 407.68 166.233 407.582 167.509C407.49 168.785 407.507 170.119 407.462 171.496C407.331 174.252 407.483 177.197 407.575 180.294C407.948 186.48 408.769 193.261 410.29 200.256C411.88 207.233 414.012 213.72 416.298 219.48C417.528 222.324 418.64 225.054 419.927 227.495C420.552 228.723 421.103 229.938 421.727 231.055C422.357 232.168 422.963 233.236 423.541 234.257C424.649 236.327 425.863 238.07 426.853 239.649C427.36 240.43 427.812 241.172 428.263 241.831C428.728 242.476 429.154 243.067 429.54 243.603C430.283 244.647 430.869 245.471 431.294 246.067C431.476 246.331 431.622 246.545 431.74 246.716C431.836 246.862 431.883 246.941 431.876 246.946Z" fill="#263238"/>
<path d="M384.253 194.476L277.929 216.486C277.929 216.486 277.453 226.869 280.061 226.956C282.245 227.028 361.297 212.761 386.936 208.121C391.13 207.362 393.624 203.05 392.236 199.02C391.098 195.713 387.678 193.767 384.253 194.476Z" fill="#A3AFE7"/>
<path d="M491.103 184.689C491.122 171.642 479.758 161.049 465.722 161.03C451.687 161.01 440.294 171.571 440.275 184.618C440.257 197.665 451.62 208.258 465.656 208.278C479.692 208.297 491.085 197.736 491.103 184.689Z" fill="#FAFAFA"/>
<path d="M491.108 184.692C491.099 184.692 491.083 184.557 491.06 184.295C491.039 184.008 491.01 183.623 490.973 183.132C490.955 182.874 490.936 182.589 490.915 182.276C490.86 181.963 490.801 181.623 490.736 181.256C490.672 180.887 490.604 180.49 490.53 180.067C490.437 179.647 490.294 179.211 490.167 178.743C489.947 177.795 489.51 176.806 489.076 175.71C488.548 174.658 487.996 173.495 487.196 172.373C485.669 170.092 483.503 167.754 480.641 165.806C477.787 163.872 474.249 162.27 470.222 161.647C469.215 161.506 468.195 161.33 467.142 161.323C466.618 161.306 466.089 161.258 465.556 161.266C465.023 161.291 464.487 161.317 463.946 161.343L463.132 161.383L462.32 161.499C461.777 161.576 461.23 161.654 460.679 161.732C460.138 161.861 459.593 161.99 459.044 162.12L458.219 162.319L457.411 162.594C453.077 163.988 448.853 166.642 445.712 170.494C442.489 174.276 440.609 179.364 440.54 184.618C440.592 189.874 442.458 194.969 445.67 198.761C448.8 202.623 453.018 205.29 457.348 206.696L458.155 206.973L458.979 207.174C459.527 207.306 460.072 207.437 460.613 207.567C461.164 207.647 461.711 207.726 462.254 207.805L463.066 207.923L463.88 207.965C464.42 207.992 464.957 208.019 465.49 208.046C466.023 208.055 466.552 208.008 467.076 207.993C468.129 207.988 469.15 207.815 470.157 207.677C474.186 207.066 477.729 205.473 480.588 203.547C483.456 201.607 485.628 199.275 487.161 196.998C487.964 195.877 488.518 194.717 489.049 193.666C489.486 192.571 489.926 191.584 490.148 190.636C490.276 190.169 490.421 189.732 490.515 189.313C490.589 188.89 490.659 188.494 490.724 188.125C490.789 187.758 490.85 187.419 490.905 187.106C490.927 186.794 490.947 186.509 490.966 186.251C491.004 185.76 491.034 185.376 491.057 185.089C491.083 184.827 491.099 184.692 491.108 184.692C491.117 184.692 491.118 184.827 491.113 185.09C491.103 185.378 491.09 185.765 491.074 186.259C491.063 186.519 491.051 186.806 491.038 187.121C490.99 187.437 490.937 187.78 490.88 188.15C490.822 188.523 490.76 188.924 490.693 189.351C490.606 189.775 490.468 190.217 490.346 190.691C490.136 191.651 489.707 192.654 489.278 193.767C488.755 194.835 488.206 196.017 487.405 197.159C485.876 199.48 483.694 201.863 480.797 203.851C477.909 205.825 474.32 207.463 470.229 208.103C469.206 208.248 468.169 208.428 467.099 208.437C466.566 208.455 466.029 208.504 465.487 208.497C464.945 208.472 464.4 208.447 463.85 208.421L463.022 208.381L462.196 208.264C461.643 208.186 461.086 208.107 460.526 208.027C459.975 207.897 459.42 207.765 458.862 207.633L458.022 207.431L457.199 207.151C452.786 205.731 448.478 203.023 445.275 199.083C441.989 195.214 440.069 189.997 440.019 184.616C440.087 179.237 442.021 174.027 445.318 170.169C448.532 166.239 452.846 163.544 457.263 162.136L458.087 161.859L458.927 161.659C459.486 161.528 460.04 161.398 460.592 161.269C461.153 161.191 461.71 161.114 462.263 161.037L463.09 160.923L463.917 160.885C464.467 160.861 465.012 160.837 465.554 160.814C466.096 160.809 466.633 160.859 467.166 160.879C468.236 160.892 469.273 161.074 470.294 161.222C474.383 161.874 477.968 163.521 480.85 165.503C483.741 167.499 485.917 169.888 487.44 172.213C488.238 173.358 488.784 174.541 489.304 175.611C489.73 176.725 490.156 177.729 490.364 178.69C490.484 179.164 490.621 179.607 490.707 180.031C490.772 180.459 490.833 180.86 490.89 181.233C490.946 181.603 490.997 181.947 491.045 182.262C491.057 182.577 491.069 182.864 491.079 183.124C491.094 183.617 491.106 184.005 491.115 184.293C491.119 184.558 491.117 184.692 491.108 184.692Z" fill="#263238"/>
<path d="M165.092 270.035C162.158 271.33 158.807 271.175 155.619 270.82C152.432 270.465 149.19 269.935 146.044 270.557C141.163 271.522 136.863 275.192 131.894 274.934C125.004 274.576 120.879 267.158 114.8 263.897C107.4 259.927 97.4706 262.396 91.5117 255.033C87.9137 250.587 87.2997 244.272 90.0807 239.275C94.4097 231.496 104.384 230.199 112.21 233.013C118.922 235.426 124.411 240.31 129.645 245.155C131.421 246.799 133.207 248.464 135.047 250.054C140.978 255.18 148.773 257.612 156.573 256.838C160.338 256.464 164.076 257.572 167.014 259.887C167.811 260.515 168.43 261.344 168.836 262.273C169.232 263.179 169.457 264.168 169.359 265.152C169.121 267.563 167.476 268.983 165.092 270.035Z" fill="#A3AFE7"/>
<g opacity="0.8">
<path d="M165.092 270.035C162.158 271.33 158.807 271.175 155.619 270.82C152.432 270.465 149.19 269.935 146.044 270.557C141.163 271.522 136.863 275.192 131.894 274.934C125.004 274.576 120.879 267.158 114.8 263.897C107.4 259.927 97.4706 262.396 91.5117 255.033C87.9137 250.587 87.2997 244.272 90.0807 239.275C94.4097 231.496 104.384 230.199 112.21 233.013C118.922 235.426 124.411 240.31 129.645 245.155C131.421 246.799 133.207 248.464 135.047 250.054C140.978 255.18 148.773 257.612 156.573 256.838C160.338 256.464 164.076 257.572 167.014 259.887C167.811 260.515 168.43 261.344 168.836 262.273C169.232 263.179 169.457 264.168 169.359 265.152C169.121 267.563 167.476 268.983 165.092 270.035Z" fill="white"/>
</g>
<path d="M51.9422 266.717C49.9602 263.244 43.9162 263.166 40.3232 264.921C36.7302 266.676 34.2492 270.041 31.8102 273.21C29.3722 276.379 26.6332 279.618 22.8502 280.914C18.7892 282.305 14.3512 281.189 10.0582 281.226C5.76622 281.263 0.72422 283.311 0.09022 287.556C-0.26878 289.957 0.443218 292.758 2.23322 294.397C4.02322 296.036 5.90421 297.31 8.15021 298.23C13.6182 300.469 20.2752 301.804 26.1832 301.753C34.0792 301.684 41.8462 297.698 46.5062 291.323C51.1652 284.947 57.4162 273.84 51.9422 266.717Z" fill="#A3AFE7"/>
<g opacity="0.8">
<path d="M51.9422 266.717C49.9602 263.244 43.9162 263.166 40.3232 264.921C36.7302 266.676 34.2492 270.041 31.8102 273.21C29.3722 276.379 26.6332 279.618 22.8502 280.914C18.7892 282.305 14.3512 281.189 10.0582 281.226C5.76622 281.263 0.72422 283.311 0.09022 287.556C-0.26878 289.957 0.443218 292.758 2.23322 294.397C4.02322 296.036 5.90421 297.31 8.15021 298.23C13.6182 300.469 20.2752 301.804 26.1832 301.753C34.0792 301.684 41.8462 297.698 46.5062 291.323C51.1652 284.947 57.4162 273.84 51.9422 266.717Z" fill="white"/>
</g>
<path d="M379.589 123.894C371.412 123.489 367.388 129.656 362.818 130.898C358.248 132.141 353.253 132.35 348.865 130.569C343.168 128.257 339.271 123.005 334.28 119.413C324.267 112.207 309.438 112.634 299.856 120.405C299.63 125.854 304.299 130.159 308.809 133.225C313.319 136.291 325.839 140.688 327.436 145.902C328.632 149.806 320.218 153.084 322.332 156.578C324.365 159.936 331.461 159.713 335.329 159.047C359.75 154.842 351.186 162.313 358.745 161.62C358.745 161.62 374.575 157.589 386.985 155.56" fill="#455A64"/>
<path d="M461.898 267.676L453.966 249.241L470.895 241.91L476.784 265.036L462.61 267.677" fill="#FFBE9D"/>
<path d="M476.777 262.036L481.733 278.18C481.733 278.18 499.808 278.564 501.014 281.459L470.056 292.193L461.301 267.355L476.777 262.036Z" fill="#A3AFE7"/>
<g opacity="0.6">
<path d="M471.696 280.159C471.154 280.531 470.972 281.348 471.321 281.905C471.67 282.462 472.499 282.653 473.048 282.291C473.596 281.929 473.844 280.955 473.435 280.44C473.026 279.926 472.04 279.755 471.594 280.238" fill="white"/>
</g>
<g opacity="0.6">
<path d="M470.057 292.194L469.272 289.656L499.248 280.313C499.248 280.313 500.835 280.435 501.016 281.46L470.057 292.194Z" fill="white"/>
</g>
<path d="M482.181 277.849C482.229 278.002 481.496 278.332 480.921 279.076C480.326 279.805 480.17 280.593 480.01 280.581C479.86 280.6 479.772 279.618 480.485 278.729C481.189 277.836 482.165 277.699 482.181 277.849Z" fill="#263238"/>
<path d="M485.893 278.066C485.978 278.201 485.413 278.685 485.121 279.502C484.805 280.311 484.915 281.047 484.763 281.093C484.629 281.166 484.217 280.317 484.6 279.308C484.972 278.295 485.839 277.923 485.893 278.066Z" fill="#263238"/>
<path d="M489.085 281.313C488.959 281.393 488.486 280.711 488.588 279.748C488.682 278.785 489.282 278.211 489.389 278.315C489.518 278.41 489.213 279.013 489.142 279.805C489.053 280.594 489.23 281.246 489.085 281.313Z" fill="#263238"/>
<path d="M480.643 274.295C480.627 274.455 479.862 274.487 479.027 274.841C478.186 275.178 477.62 275.696 477.496 275.593C477.371 275.514 477.826 274.729 478.814 274.326C479.8 273.916 480.676 274.151 480.643 274.295Z" fill="#263238"/>
<path d="M479.583 271.057C479.606 271.119 479.041 271.419 478.03 271.587C477.526 271.669 476.913 271.708 476.235 271.651C475.896 271.622 475.542 271.57 475.181 271.487C475.006 271.445 474.805 271.411 474.586 271.285C474.364 271.185 474.13 270.818 474.238 270.505C474.314 270.212 474.559 270.012 474.781 269.93C475.007 269.843 475.207 269.825 475.39 269.809C475.764 269.773 476.127 269.775 476.469 269.806C477.154 269.87 477.752 270.044 478.224 270.249C479.173 270.665 479.614 271.145 479.572 271.192C479.521 271.266 479.007 270.914 478.086 270.618C477.627 270.471 477.063 270.35 476.433 270.318C476.118 270.304 475.787 270.312 475.448 270.352C475.09 270.38 474.81 270.474 474.777 270.649C474.766 270.715 474.769 270.739 474.871 270.811C474.973 270.875 475.135 270.915 475.308 270.958C475.644 271.042 475.973 271.101 476.289 271.142C476.922 271.223 477.502 271.227 477.987 271.197C478.959 271.135 479.557 270.974 479.583 271.057Z" fill="#263238"/>
<path d="M479.461 271.342C479.416 271.384 478.928 270.946 478.533 269.986C478.339 269.509 478.185 268.903 478.156 268.215C478.143 267.871 478.163 267.508 478.224 267.137C478.299 266.768 478.379 266.282 478.942 266.011C479.244 265.893 479.582 266.044 479.739 266.219C479.914 266.393 479.997 266.566 480.095 266.732C480.277 267.074 480.394 267.431 480.458 267.776C480.589 268.469 480.509 269.111 480.351 269.607C480.024 270.619 479.456 271.018 479.425 270.972C479.348 270.913 479.774 270.439 479.97 269.507C480.066 269.048 480.095 268.476 479.955 267.88C479.886 267.583 479.776 267.28 479.616 266.994C479.454 266.682 479.238 266.459 479.126 266.536C478.971 266.587 478.795 266.925 478.76 267.232C478.697 267.565 478.669 267.892 478.667 268.205C478.667 268.832 478.768 269.397 478.903 269.856C479.178 270.78 479.535 271.29 479.461 271.342Z" fill="#263238"/>
<path d="M380.925 124.512C380.925 124.512 366.258 153.565 376.116 160.373C385.974 167.181 432.023 201.789 432.023 201.789L455.51 264.477L477.504 255.465L459.173 182.045L412.902 140.485L380.925 124.512Z" fill="#263238"/>
<path d="M437.428 190.265C437.558 190.36 436.037 192.381 434.907 195.245C433.752 198.1 433.462 200.613 433.302 200.592C433.175 200.596 433.237 197.992 434.424 195.052C435.589 192.104 437.339 190.174 437.428 190.265Z" fill="#455A64"/>
<path d="M433.783 189.66C433.934 189.704 433.278 192.088 433.053 195.103C432.808 198.118 433.087 200.574 432.93 200.594C432.803 200.622 432.284 198.147 432.534 195.062C432.765 191.978 433.662 189.613 433.783 189.66Z" fill="#455A64"/>
<path d="M457.735 263.564C457.727 263.567 457.678 263.462 457.59 263.252C457.495 263.019 457.37 262.71 457.21 262.317C456.877 261.464 456.403 260.249 455.796 258.692C454.58 255.531 452.835 250.934 450.711 245.192C448.597 239.446 446.078 232.565 443.452 224.786C442.796 222.841 442.142 220.837 441.502 218.775C440.879 216.698 440.277 214.601 439.418 212.522C437.748 208.357 435.73 204.129 433.538 199.85L433.599 199.927C431.133 197.833 428.518 195.641 425.845 193.441C423.754 191.728 421.682 190.038 419.592 188.445C417.493 186.852 415.425 185.282 413.393 183.74C409.334 180.65 405.408 177.685 401.586 174.978C397.779 172.249 394.007 169.885 390.566 167.516C387.13 165.148 384.011 162.789 381.488 160.266C380.232 159.003 379.122 157.701 378.273 156.324C377.422 154.951 376.852 153.517 376.516 152.136C375.844 149.357 376.067 146.861 376.425 144.914C376.814 142.96 377.323 141.495 377.701 140.522C377.881 140.031 378.051 139.67 378.154 139.423C378.261 139.178 378.32 139.054 378.328 139.057C378.336 139.06 378.294 139.191 378.203 139.443C378.117 139.696 377.963 140.063 377.8 140.558C377.455 141.54 376.981 143.008 376.625 144.951C376.3 146.886 376.114 149.35 376.799 152.065C377.142 153.415 377.711 154.811 378.555 156.149C379.395 157.488 380.498 158.765 381.749 160.005C384.261 162.484 387.375 164.815 390.811 167.16C394.249 169.504 398.04 171.861 401.864 174.586C405.702 177.288 409.638 180.248 413.702 183.334C415.736 184.874 417.805 186.442 419.905 188.033C422.008 189.634 424.081 191.323 426.175 193.039C428.852 195.242 431.466 197.435 433.934 199.534L433.973 199.567L433.996 199.611C436.194 203.91 438.206 208.144 439.879 212.34C440.738 214.428 441.351 216.581 441.96 218.634C442.593 220.692 443.239 222.695 443.887 224.64C446.483 232.42 448.965 239.313 451.035 245.073C453.123 250.805 454.803 255.417 455.971 258.626C456.542 260.197 456.987 261.423 457.3 262.283C457.441 262.683 457.551 262.998 457.635 263.234C457.709 263.45 457.743 263.562 457.735 263.564Z" fill="#455A64"/>
<path d="M399.019 133.808L427.371 137.829L441.915 141.52L422.008 148.663L399.019 133.808Z" fill="#263238"/>
<path d="M364.293 131.754C364.318 131.78 364.108 132.02 363.706 132.434C363.309 132.854 362.689 133.417 361.888 134.069C360.29 135.377 357.876 136.963 354.957 138.188C352.033 139.405 349.208 140.006 347.154 140.223C346.127 140.334 345.291 140.379 344.713 140.367C344.135 140.362 343.817 140.342 343.817 140.306C343.814 140.217 345.087 140.17 347.105 139.858C349.122 139.55 351.881 138.903 354.756 137.707C357.626 136.503 360.026 134.996 361.663 133.777C363.304 132.562 364.232 131.69 364.293 131.754Z" fill="#263238"/>
<path d="M384.652 90.2328L379.187 131.35C379.187 131.35 397.37 130.167 410.194 134.424C423.018 138.682 430.897 138.563 430.897 138.563L428.217 112.981L437.784 92.0218L441.995 116.571L461.654 136.812L474.462 133.913L461.188 111.668L451.969 66.3518C451.966 66.3348 451.962 66.3168 451.958 66.2998C451.185 62.5258 449.124 59.1338 446.157 56.6778L445.789 56.3728L426.483 45.6158L420.008 45.7458C412.862 45.9398 407.351 46.7138 403.682 47.4198C400.407 48.0498 397.122 49.7088 394.853 52.1528C393.261 53.8668 391.219 57.0458 390.349 60.5658L384.652 90.2328Z" fill="#A3AFE7"/>
<path d="M445.96 73.0388C445.993 73.0528 445.823 73.5228 445.487 74.3598C445.103 75.2848 444.611 76.4678 444.022 77.8848C442.764 80.8518 440.995 84.9368 439.015 89.4378C437.034 93.8838 435.243 97.9048 433.891 100.941C433.252 102.335 432.718 103.5 432.301 104.41C431.914 105.232 431.712 105.657 431.676 105.664C431.636 105.67 431.787 105.163 432.115 104.33C432.44 103.489 432.932 102.28 433.554 100.793C434.797 97.8188 436.559 93.7298 438.539 89.2278C440.519 84.7268 442.341 80.6658 443.685 77.7358C444.335 76.3458 444.878 75.1848 445.302 74.2778C445.694 73.4658 445.927 73.0238 445.96 73.0388Z" fill="#263238"/>
<path d="M391.447 65.8768C395.208 76.3498 402.434 100.287 405.968 109.509C407.043 112.314 408.852 114.778 411.206 116.645L450.227 144.232L459.242 132.52L430.012 104.325L414.257 57.6368C412.038 51.4008 402.825 48.0268 397.103 51.3568C392.697 53.9218 389.724 61.0768 391.447 65.8768Z" fill="#A3AFE7"/>
<path d="M414.942 59.5708C414.942 59.5708 415.058 59.8418 415.25 60.3778C415.446 60.9358 415.725 61.7288 416.085 62.7528C416.81 64.8598 417.861 67.9158 419.197 71.8008C421.859 79.6338 425.655 90.8058 430.225 104.255L430.169 104.166C438.743 112.422 448.724 122.032 459.424 132.334L459.591 132.495L459.45 132.679C457.381 135.368 455.189 138.216 452.969 141.101C452.101 142.228 451.238 143.35 450.436 144.392L450.282 144.592L450.078 144.445C439.425 136.771 429.316 129.488 420.141 122.878C417.849 121.224 415.616 119.613 413.447 118.048C412.905 117.657 412.367 117.268 411.833 116.883C411.3 116.509 410.759 116.111 410.282 115.655C409.314 114.764 408.482 113.76 407.796 112.689C407.104 111.625 406.588 110.465 406.166 109.337C405.729 108.209 405.3 107.103 404.879 106.018C404.055 103.843 403.277 101.752 402.56 99.7488C399.681 91.7388 397.571 85.2018 396.133 80.6848C395.436 78.4378 394.892 76.6878 394.516 75.4758C394.344 74.8948 394.21 74.4438 394.114 74.1168C394.026 73.8098 393.994 73.6488 393.994 73.6488C393.994 73.6488 394.06 73.7998 394.164 74.1008C394.272 74.4238 394.422 74.8698 394.614 75.4438C395.011 76.6488 395.585 78.3888 396.322 80.6228C397.817 85.1198 399.98 91.6368 402.9 99.6248C403.628 101.623 404.415 103.708 405.248 105.876C405.673 106.957 406.106 108.06 406.548 109.185C406.978 110.318 407.474 111.419 408.154 112.458C408.824 113.496 409.636 114.469 410.579 115.33C411.042 115.77 411.556 116.145 412.102 116.527C412.637 116.911 413.176 117.297 413.719 117.687C415.892 119.246 418.129 120.851 420.425 122.498C429.606 129.094 439.722 136.363 450.382 144.022L450.024 144.074C450.826 143.032 451.689 141.911 452.557 140.783C454.778 137.899 456.97 135.051 459.04 132.362L459.065 132.706C448.383 122.384 438.42 112.756 429.861 104.485L429.822 104.447L429.805 104.396C425.308 90.9228 421.573 79.7298 418.953 71.8828C417.667 67.9808 416.655 64.9128 415.957 62.7958C415.624 61.7628 415.367 60.9628 415.185 60.3998C415.013 59.8568 414.942 59.5708 414.942 59.5708Z" fill="#263238"/>
<path d="M411.218 53.8728C411.155 53.9368 410.503 53.2498 409.232 52.4638C407.976 51.6768 406.026 50.8498 403.76 50.7398C401.493 50.6318 399.473 51.2678 398.147 51.9308C396.806 52.5918 396.092 53.2128 396.035 53.1428C395.996 53.1068 396.632 52.3748 397.975 51.6048C399.299 50.8358 401.401 50.1048 403.785 50.2188C406.168 50.3338 408.19 51.2628 409.434 52.1548C410.697 53.0508 411.26 53.8398 411.218 53.8728Z" fill="#263238"/>
<path d="M462.035 112.242C462.02 112.4 460.189 112.208 458.034 112.744C455.872 113.254 454.333 114.262 454.247 114.129C454.156 114.036 455.635 112.779 457.912 112.238C460.182 111.677 462.073 112.117 462.035 112.242Z" fill="#263238"/>
<path d="M396.544 81.6328C396.547 81.6468 396.409 81.6828 396.156 81.7368C395.904 81.7938 395.534 81.8508 395.074 81.9018C394.157 81.9968 392.855 82.0138 391.472 81.6728C390.09 81.3258 388.949 80.6968 388.188 80.1758C387.808 79.9118 387.51 79.6848 387.316 79.5138C387.12 79.3458 387.016 79.2478 387.025 79.2368C387.072 79.1398 388.797 80.7728 391.522 81.4708C394.254 82.1288 396.548 81.5248 396.544 81.6328Z" fill="#FAFAFA"/>
<path d="M399.585 90.5568C399.559 90.5928 398.932 90.0408 397.737 89.4638C396.551 88.8768 394.771 88.3448 392.752 88.1898C390.732 88.0338 388.892 88.1938 387.567 88.3088C387.01 88.3598 386.491 88.4078 385.995 88.4538C385.623 88.4858 385.417 88.4978 385.415 88.4828C385.413 88.4688 385.616 88.4298 385.985 88.3728C386.354 88.3158 386.888 88.2408 387.551 88.1618C388.874 88.0098 390.724 87.8248 392.768 87.9818C394.812 88.1378 396.616 88.7018 397.802 89.3318C398.398 89.6418 398.851 89.9448 399.146 90.1748C399.443 90.4038 399.593 90.5478 399.585 90.5568Z" fill="#FAFAFA"/>
<g opacity="0.4">
<path d="M394.546 75.4048C394.546 75.4048 395.595 91.0478 396.715 98.2718C397.835 105.496 400.169 112.865 405.343 118.03C410.557 123.235 417.968 125.541 425.191 126.995C422.859 125.238 420.571 123.424 418.328 121.555C415.44 119.149 411.192 116.802 408.867 113.848C404.385 108.154 403.416 100.967 401.109 94.0988C398.982 87.7678 396.673 81.7368 394.546 75.4048Z" fill="black"/>
</g>
<path d="M421.709 81.5438C421.709 81.5438 421.444 81.7518 420.881 81.9578C420.323 82.1718 419.458 82.3568 418.386 82.3288C416.235 82.3578 413.382 81.3168 410.147 81.6238C406.914 81.8428 404.152 83.0308 402.355 84.1218C401.443 84.6608 400.773 85.1998 400.304 85.5618C400.117 85.7208 399.945 85.8658 399.783 86.0028C399.662 86.1018 399.596 86.1518 399.591 86.1468C399.591 86.1468 400.465 85.1358 402.277 83.9958C404.068 82.8628 406.857 81.6378 410.13 81.4158C413.417 81.1078 416.279 82.1768 418.388 82.1808C419.444 82.2268 420.294 82.0678 420.852 81.8808C421.417 81.7018 421.695 81.5158 421.709 81.5438Z" fill="#FAFAFA"/>
<path d="M418.803 73.9528C418.807 73.9588 418.74 74.0028 418.61 74.0808C418.43 74.1848 418.241 74.2938 418.036 74.4128C417.538 74.7018 416.796 75.0848 415.864 75.5248C414.002 76.4068 411.332 77.4408 408.269 78.1728C405.202 78.8978 402.352 79.1748 400.293 79.2248C399.263 79.2518 398.428 79.2428 397.853 79.2088C397.616 79.1948 397.398 79.1828 397.191 79.1708C397.04 79.1598 396.961 79.1508 396.961 79.1438C396.961 79.1368 397.041 79.1318 397.193 79.1298C397.4 79.1298 397.618 79.1288 397.855 79.1288C398.43 79.1378 399.262 79.1238 400.287 79.0788C402.338 78.9918 405.169 78.6928 408.22 77.9718C411.268 77.2438 413.931 76.2378 415.802 75.3928C416.739 74.9718 417.488 74.6098 417.997 74.3438C418.209 74.2378 418.404 74.1398 418.589 74.0468C418.726 73.9778 418.799 73.9468 418.803 73.9528Z" fill="#FAFAFA"/>
<path d="M440.954 82.1528C440.952 82.1598 440.859 82.1378 440.683 82.0898C440.505 82.0468 440.247 81.9678 439.928 81.8298C439.29 81.5618 438.398 81.0598 437.483 80.2158C435.58 78.5958 433.832 75.5558 430.885 73.2088C427.957 70.8368 424.719 69.5598 422.336 68.9908C421.142 68.6858 420.148 68.5738 419.466 68.4808C419.175 68.4538 418.915 68.4298 418.675 68.4078C418.494 68.3888 418.399 68.3758 418.399 68.3688C418.399 68.3688 419.946 68.2988 422.369 68.8478C424.777 69.3838 428.058 70.6518 431.015 73.0478C432.495 74.2328 433.703 75.5938 434.72 76.8678C435.745 78.1378 436.676 79.2758 437.582 80.1078C438.474 80.9558 439.339 81.4688 439.96 81.7558C440.583 82.0488 440.964 82.1218 440.954 82.1528Z" fill="#FAFAFA"/>
<path d="M439.779 86.9228C439.779 86.9228 439.474 86.8658 438.945 86.6828C438.425 86.4758 437.696 86.0958 436.921 85.4558C436.142 84.8218 435.333 83.9398 434.471 82.9448C433.606 81.9538 432.671 80.8428 431.492 79.9028C430.307 78.9718 428.943 78.4258 427.648 78.2508C426.356 78.0518 425.167 78.1028 424.179 78.1858C423.19 78.2698 422.393 78.3918 421.841 78.4688C421.615 78.4998 421.405 78.5288 421.206 78.5568C421.06 78.5748 420.983 78.5808 420.982 78.5738C420.981 78.5668 421.055 78.5468 421.199 78.5148C421.397 78.4748 421.604 78.4338 421.828 78.3888C422.376 78.2868 423.171 78.1438 424.165 78.0398C425.157 77.9378 426.358 77.8708 427.676 78.0618C428.995 78.2288 430.409 78.7868 431.62 79.7398C432.822 80.6998 433.759 81.8248 434.616 82.8208C435.47 83.8218 436.259 84.7038 437.016 85.3438C437.768 85.9888 438.472 86.3808 438.976 86.6088C439.489 86.8118 439.784 86.9038 439.779 86.9228Z" fill="#FAFAFA"/>
<path d="M455.105 83.7028C455.097 83.7518 454.275 83.3698 452.884 83.4808C452.194 83.5338 451.383 83.7078 450.518 84.0138C449.652 84.3168 448.737 84.7548 447.764 85.1928C446.79 85.6308 445.836 86.0148 444.921 86.2148C444.008 86.4168 443.153 86.4418 442.452 86.3408C441.75 86.2378 441.209 86.0208 440.868 85.8238C440.524 85.6278 440.371 85.4688 440.371 85.4688C440.39 85.4188 441.082 86.0338 442.471 86.1948C443.156 86.2748 443.988 86.2358 444.878 86.0278C445.769 85.8218 446.709 85.4388 447.678 85.0028C448.648 84.5658 449.572 84.1308 450.455 83.8318C451.336 83.5318 452.168 83.3678 452.874 83.3328C453.581 83.2988 454.153 83.3838 454.533 83.4888C454.914 83.5938 455.105 83.7028 455.105 83.7028Z" fill="#FAFAFA"/>
<path d="M456.681 89.1418C456.666 89.2108 455.794 88.2638 453.925 88.1748C453.013 88.1258 451.912 88.2958 450.787 88.7408C449.66 89.1878 448.532 89.9258 447.375 90.7268C446.216 91.5298 445.106 92.3098 443.986 92.8358C442.869 93.3608 441.77 93.6348 440.835 93.6808C439.898 93.7268 439.142 93.5568 438.66 93.3588C438.175 93.1628 437.948 92.9788 437.948 92.9788C437.955 92.9118 438.965 93.6718 440.826 93.5328C441.739 93.4698 442.811 93.1868 443.904 92.6618C444.999 92.1368 446.097 91.3588 447.257 90.5548C448.417 89.7518 449.56 89.0088 450.717 88.5618C451.871 88.1168 453 87.9588 453.934 88.0278C454.871 88.0948 455.598 88.3758 456.042 88.6478C456.49 88.9198 456.681 89.1418 456.681 89.1418Z" fill="#FAFAFA"/>
<g opacity="0.4">
<path d="M440.052 105.245C442.094 97.0578 442.494 88.1878 442.786 79.7548C442.075 82.7048 440.265 85.2588 439.145 88.0788C438.609 89.4278 437.758 91.8658 437.758 91.8658L440.019 105.048" fill="black"/>
</g>
<path d="M426.851 8.90381C426.652 10.4098 425.533 11.7558 424.089 12.2278C423.266 12.4968 422.369 12.4978 421.559 12.8038C420.749 13.1098 419.998 13.8998 420.179 14.7468C420.315 15.3808 420.904 15.7918 421.385 16.2258C421.867 16.6598 422.303 17.3328 422.027 17.9198C421.724 18.5658 420.797 18.6188 420.316 19.1448C419.808 19.6998 419.967 20.6228 420.429 21.2168C420.891 21.8108 421.577 22.1758 422.197 22.6028C422.817 23.0298 423.42 23.5918 423.553 24.3318" fill="#263238"/>
<path d="M456.513 21.8938C458.714 17.2458 457.109 11.4488 453.682 7.61479C450.255 3.78079 445.337 1.60979 440.396 0.18479C439.686 -0.02021 438.805 -0.16721 438.308 0.37979C437.871 0.86079 438.01 1.66579 438.434 2.15879C438.858 2.65179 439.487 2.90779 440.091 3.14779C438.076 2.16379 435.896 1.42879 433.653 1.39079C432.87 1.37779 432.051 1.46079 431.388 1.87779C430.725 2.29479 430.271 3.12479 430.498 3.87479C430.725 4.62479 431.787 5.04279 432.36 4.50979C430.242 4.27479 428.048 4.78879 426.255 5.94079C424.97 6.76579 423.807 8.17879 424.116 9.67379C424.297 10.5518 424.952 11.2578 425.239 12.1058C425.764 13.6568 424.994 15.3088 424.402 16.8358C423.482 19.2088 422.965 21.7958 423.354 24.3118C423.743 26.8278 425.129 29.2598 427.335 30.5308" fill="#263238"/>
<path d="M425.849 61.1018C420.288 59.6158 417.046 53.8368 418.676 48.3158L427.854 17.2288C429.988 9.23878 438.295 4.58578 446.223 6.93978L446.943 7.19978C454.187 9.81878 458.211 17.5598 456.182 24.9898C454.294 31.9058 452.118 39.5248 450.77 43.1138C447.979 50.5428 440.096 49.0038 440.096 49.0038L438.159 54.5738C436.397 59.6398 431.028 62.4858 425.849 61.1018Z" fill="#FFBE9D"/>
<path d="M440.147 48.9028C440.147 48.9028 435.292 47.5808 431.418 42.6198C431.418 42.6198 431.776 48.8218 439.465 50.8428L440.147 48.9028Z" fill="#EB996E"/>
<path d="M438.733 11.4588C438.122 10.1158 437.352 7.19179 436.313 6.14479C435.272 5.09579 433.585 5.4438 432.164 5.8448C430.684 6.2628 429.503 7.38379 428.977 8.82879C427.018 14.2068 426.774 19.2788 425.311 24.5678C425.214 24.9178 425.117 25.2918 425.224 25.6388C425.5 26.5368 426.485 26.8548 427.415 26.9898C429.706 27.3238 430.877 25.6538 431.958 23.6418C432.198 23.1948 432.704 20.4348 432.751 19.9238C433.082 16.3528 435.14 13.1728 438.376 11.6278L438.733 11.4588Z" fill="#263238"/>
<path d="M429.148 21.5158C429.041 21.4148 424.569 18.1448 422.887 23.3058C421.205 28.4668 426.733 29.0908 426.79 28.9458C426.848 28.7998 429.148 21.5158 429.148 21.5158Z" fill="#FFBE9D"/>
<path d="M425.851 26.4758C425.834 26.4518 425.74 26.5098 425.566 26.5298C425.396 26.5488 425.126 26.5128 424.89 26.3248C424.41 25.9468 424.233 24.9318 424.511 23.9938C424.651 23.5198 424.895 23.1048 425.182 22.7888C425.463 22.4628 425.793 22.2788 426.083 22.3188C426.377 22.3448 426.517 22.5718 426.533 22.7378C426.555 22.9048 426.489 22.9968 426.513 23.0148C426.523 23.0328 426.652 22.9648 426.68 22.7378C426.692 22.6288 426.671 22.4868 426.583 22.3478C426.492 22.2068 426.326 22.0958 426.128 22.0548C425.721 21.9528 425.244 22.2018 424.928 22.5488C424.59 22.8898 424.305 23.3538 424.148 23.8858C423.842 24.9368 424.057 26.0828 424.733 26.5418C425.065 26.7548 425.404 26.7438 425.6 26.6728C425.801 26.5978 425.866 26.4918 425.851 26.4758Z" fill="#EB996E"/>
<path d="M436.744 12.6178C439.284 10.8788 441.903 11.7368 443.652 12.7548C445.401 13.7728 446.886 15.2118 448.684 16.1408C450.482 17.0698 452.827 17.3908 454.43 16.1548C455.618 15.2398 456.124 13.6788 456.251 12.1848C456.495 9.31578 455.529 6.36278 453.636 4.19278C453.141 3.62578 452.386 3.06978 451.699 3.37678C450.849 3.75778 450.981 4.99078 451.255 5.88078C451.255 5.88078 442.576 2.67478 437.279 4.52378C431.982 6.37278 436.744 12.6178 436.744 12.6178Z" fill="#263238"/>
<path d="M440.008 0.0878012C440.055 0.0798012 440.109 0.458798 440.375 1.0798C440.641 1.6998 441.178 2.5318 442.028 3.3898C442.886 4.2348 444.047 5.1228 445.489 5.8088C446.208 6.1578 446.992 6.4238 447.846 6.6018C448.697 6.7898 449.606 6.9228 450.527 7.1778C451.443 7.4288 452.339 7.8278 453.031 8.4438C453.72 9.0518 454.241 9.7968 454.543 10.5848C454.855 11.3698 454.949 12.1918 454.857 12.9388C454.754 13.6878 454.474 14.3488 454.11 14.8678C453.384 15.9228 452.424 16.4288 451.759 16.6208C451.42 16.7138 451.149 16.7468 450.966 16.7498C450.782 16.7508 450.687 16.7428 450.687 16.7278C450.684 16.6838 451.071 16.6818 451.703 16.4538C452.321 16.2198 453.198 15.6988 453.842 14.6918C454.166 14.1978 454.404 13.5798 454.483 12.8968C454.551 12.2108 454.452 11.4598 454.154 10.7408C453.865 10.0188 453.376 9.3348 452.739 8.7808C452.101 8.2218 451.286 7.8588 450.403 7.6158C449.52 7.3708 448.617 7.2348 447.747 7.0368C446.875 6.8498 446.038 6.5568 445.304 6.1868C443.823 5.4558 442.651 4.5158 441.795 3.6148C440.947 2.7008 440.432 1.8088 440.208 1.1468C440.104 0.812799 440.033 0.552799 440.019 0.368799C439.998 0.185799 439.993 0.0908012 440.008 0.0878012Z" fill="#455A64"/>
<path d="M434.275 1.63879C434.314 1.62979 434.401 2.01979 434.695 2.66479C434.995 3.30279 435.542 4.1878 436.477 5.0388C437.404 5.8938 438.72 6.66479 440.306 7.20479C441.889 7.76079 443.718 8.08779 445.644 8.44479C447.568 8.81879 449.424 9.18579 450.994 9.98079C451.765 10.3878 452.438 11.0008 452.741 11.7588C453.048 12.5088 453.027 13.2848 452.861 13.9288C452.499 15.2458 451.602 15.9798 451.012 16.3708C450.706 16.5708 450.451 16.6918 450.275 16.7648C450.099 16.8378 450.001 16.8628 449.995 16.8498C449.977 16.8138 450.345 16.6528 450.911 16.2268C451.454 15.8058 452.262 15.0628 452.55 13.8518C452.684 13.2568 452.679 12.5538 452.396 11.9048C452.119 11.2538 451.525 10.7208 450.799 10.3488C449.322 9.62179 447.468 9.25679 445.561 8.88879C443.642 8.53279 441.785 8.18979 440.168 7.59779C438.549 7.02279 437.191 6.18979 436.259 5.27179C435.317 4.35879 434.792 3.41079 434.535 2.7338C434.409 2.3918 434.338 2.11879 434.304 1.93079C434.269 1.74179 434.26 1.64179 434.275 1.63879Z" fill="#455A64"/>
<path d="M451.21 28.5828C451.019 29.2038 450.334 29.5548 449.681 29.3668C449.03 29.1788 448.655 28.5238 448.847 27.9018C449.039 27.2808 449.723 26.9288 450.374 27.1168C451.027 27.3058 451.401 27.9618 451.21 28.5828Z" fill="#263238"/>
<path d="M453.424 27.9268C453.227 28.0278 452.573 27.0708 451.321 26.6398C450.076 26.1908 448.935 26.5158 448.852 26.3158C448.809 26.2248 449.051 26.0018 449.551 25.8498C450.045 25.6968 450.814 25.6478 451.593 25.9218C452.371 26.1968 452.927 26.7108 453.201 27.1358C453.484 27.5638 453.519 27.8838 453.424 27.9268Z" fill="#263238"/>
<path d="M438.845 25.0228C438.653 25.6438 437.969 25.9948 437.317 25.8058C436.666 25.6178 436.291 24.9628 436.483 24.3418C436.675 23.7208 437.359 23.3698 438.011 23.5568C438.662 23.7458 439.036 24.4018 438.845 25.0228Z" fill="#263238"/>
<path d="M441.045 23.8888C440.848 23.9908 440.192 23.0328 438.941 22.6018C437.697 22.1528 436.555 22.4778 436.472 22.2768C436.429 22.1858 436.67 21.9628 437.172 21.8118C437.666 21.6588 438.435 21.6098 439.213 21.8838C439.991 22.1588 440.547 22.6738 440.822 23.0978C441.103 23.5258 441.139 23.8448 441.045 23.8888Z" fill="#263238"/>
<path d="M442.362 34.7438C442.381 34.6708 443.205 34.8068 444.521 35.0828C444.852 35.1608 445.176 35.2028 445.306 35.0028C445.461 34.7978 445.448 34.4078 445.422 33.9818C445.39 33.1048 445.357 32.1848 445.322 31.2208C445.213 27.3018 445.253 24.1238 445.411 24.1208C445.569 24.1178 445.785 27.2918 445.894 31.2108C445.913 32.1748 445.933 33.0938 445.949 33.9718C445.944 34.3768 446.009 34.8608 445.679 35.2828C445.51 35.4918 445.215 35.5838 444.991 35.5678C444.764 35.5588 444.583 35.4998 444.422 35.4548C443.131 35.0838 442.342 34.8158 442.362 34.7438Z" fill="#263238"/>
<path d="M438.38 34.3298C438.588 34.3888 438.118 35.7478 438.946 37.1148C439.77 38.4848 441.271 38.8348 441.215 39.0288C441.204 39.1208 440.801 39.1808 440.184 38.9848C439.578 38.7968 438.769 38.3008 438.263 37.4638C437.759 36.6258 437.728 35.7318 437.876 35.1588C438.022 34.5738 438.29 34.2898 438.38 34.3298Z" fill="#263238"/>
<path d="M443.071 19.0978C442.829 19.3948 441.636 18.7998 440.107 18.4668C438.584 18.1028 437.252 18.1218 437.163 17.7488C437.127 17.5728 437.444 17.3238 438.037 17.1608C438.625 16.9968 439.491 16.9468 440.406 17.1548C441.32 17.3648 442.079 17.7848 442.538 18.1878C443.002 18.5938 443.18 18.9548 443.071 19.0978Z" fill="#263238"/>
<path d="M454.221 24.1468C453.902 24.3548 453.143 23.7598 452.111 23.3868C451.093 22.9768 450.131 22.9128 450.032 22.5458C449.994 22.3708 450.231 22.1338 450.708 21.9988C451.179 21.8618 451.887 21.8628 452.592 22.1318C453.296 22.4018 453.824 22.8738 454.083 23.2898C454.347 23.7068 454.366 24.0418 454.221 24.1468Z" fill="#263238"/>
<path d="M430.657 135.098C433.621 136.046 434.24 139.261 433.852 140.737L427.1 143.409L425.557 136.903L430.657 135.098Z" fill="#455A64"/>
<path d="M373.914 135.076C373.914 135.076 387.441 133.674 395.952 136.666C404.463 139.658 415.025 141.881 419.694 140.834C423.757 139.923 426.063 136.863 426.063 136.863C426.063 136.863 412.582 135.246 406.234 133.193C401.96 131.811 393.527 122.248 377.908 124.556L373.914 135.076Z" fill="#455A64"/>
<path d="M428.121 139.977C427.7 138.726 426.85 137.665 425.94 136.708L426.063 136.863C424.651 136.971 423.228 137.082 421.867 137.475C420.507 137.868 419.197 138.571 418.312 139.676C418.023 140.038 417.773 140.473 417.809 140.935C417.856 141.554 418.385 142.012 418.872 142.397C420.175 143.424 421.524 144.476 423.122 144.923C424.72 145.37 426.648 145.065 427.663 143.752C428.472 142.708 428.543 141.229 428.121 139.977Z" fill="#455A64"/>
<path d="M418.305 139.501C418.305 139.501 418.368 139.178 418.734 138.733C419.096 138.29 419.791 137.787 420.762 137.468C421.724 137.15 422.958 136.94 424.3 137.165C425.627 137.375 427.071 138.138 427.902 139.5C428.314 140.171 428.527 140.954 428.469 141.702C428.417 142.449 428.136 143.142 427.721 143.686C427.31 144.237 426.744 144.617 426.171 144.817C425.593 145.01 425.02 145.054 424.512 145.015C423.49 144.931 422.71 144.637 422.185 144.434C421.922 144.33 421.722 144.239 421.587 144.176C421.453 144.112 421.384 144.075 421.387 144.068C421.39 144.061 421.464 144.085 421.604 144.137C421.796 144.206 421.996 144.279 422.214 144.358C422.744 144.537 423.525 144.805 424.521 144.868C425.491 144.935 426.787 144.653 427.569 143.57C428.373 142.548 428.561 140.892 427.725 139.608C426.932 138.31 425.553 137.568 424.268 137.354C422.969 137.125 421.758 137.314 420.809 137.608C419.853 137.903 419.166 138.373 418.796 138.786C418.42 139.202 418.327 139.512 418.305 139.501Z" fill="#263238"/>
<path d="M421.167 139.727C421.142 139.747 420.849 139.355 420.36 139.019C419.874 138.678 419.405 138.54 419.415 138.509C419.418 138.484 419.916 138.58 420.42 138.933C420.925 139.283 421.189 139.716 421.167 139.727Z" fill="#FAFAFA"/>
<path d="M423.358 139.827C423.334 139.847 423.042 139.515 422.625 139.168C422.211 138.818 421.833 138.589 421.848 138.562C421.86 138.538 422.268 138.732 422.692 139.089C423.118 139.443 423.379 139.811 423.358 139.827Z" fill="#FAFAFA"/>
<path d="M424.243 144.459C424.225 144.462 424.19 144.233 424.081 143.878C423.974 143.524 423.776 143.048 423.462 142.578C423.146 142.109 422.78 141.746 422.493 141.512C422.206 141.277 422.007 141.158 422.017 141.142C422.017 141.142 422.235 141.23 422.539 141.454C422.842 141.676 423.226 142.04 423.549 142.519C423.87 142.999 424.061 143.492 424.152 143.857C424.245 144.224 424.243 144.459 424.243 144.459Z" fill="#FAFAFA"/>
<path d="M426.46 142.753C426.443 142.75 426.471 142.53 426.482 142.173C426.493 141.817 426.477 141.323 426.382 140.787C426.286 140.252 426.131 139.782 425.997 139.452C425.864 139.121 425.762 138.924 425.777 138.915C425.783 138.912 425.815 138.957 425.867 139.044C425.92 139.13 425.988 139.259 426.065 139.423C426.218 139.75 426.387 140.224 426.485 140.769C426.581 141.314 426.586 141.817 426.556 142.177C426.541 142.357 426.522 142.502 426.501 142.601C426.481 142.7 426.467 142.754 426.46 142.753Z" fill="#FAFAFA"/>
<path d="M426.471 138.583C426.496 138.649 424.972 139.035 423.429 140.144C421.874 141.236 421.007 142.548 420.953 142.502C420.933 142.489 421.121 142.147 421.515 141.654C421.907 141.162 422.522 140.534 423.308 139.974C424.095 139.417 424.891 139.042 425.485 138.834C426.08 138.624 426.465 138.56 426.471 138.583Z" fill="#263238"/>
<path d="M423.125 137.499C423.172 137.55 422.005 138.197 421.271 139.589C420.512 140.968 420.615 142.298 420.546 142.287C420.524 142.289 420.463 141.968 420.502 141.444C420.539 140.922 420.707 140.2 421.088 139.49C421.471 138.781 421.982 138.244 422.397 137.926C422.812 137.606 423.115 137.48 423.125 137.499Z" fill="#263238"/>
<path d="M426.832 144.503C426.796 144.507 426.772 144.176 426.573 143.696C426.38 143.216 425.979 142.606 425.385 142.079C424.168 141.054 422.931 140.537 422.981 140.455C422.994 140.431 423.298 140.552 423.775 140.787C424.248 141.024 424.905 141.377 425.523 141.923C426.141 142.47 426.546 143.128 426.711 143.643C426.883 144.161 426.853 144.504 426.832 144.503Z" fill="#263238"/>
<path d="M398.447 137.354C398.437 137.391 397.965 137.292 397.117 137.106C396.269 136.918 395.043 136.649 393.52 136.357C390.477 135.776 386.231 135.145 381.509 134.95C379.156 134.855 376.902 134.959 374.947 135.487C372.993 136.006 371.374 136.918 370.163 137.852C367.732 139.758 366.857 141.555 366.765 141.48C366.741 141.467 366.936 141.022 367.423 140.292C367.914 139.57 368.716 138.565 369.934 137.563C371.148 136.566 372.801 135.588 374.821 135.024C376.838 134.451 379.151 134.333 381.529 134.43C386.288 134.627 390.554 135.32 393.594 135.997C395.115 136.336 396.333 136.66 397.167 136.91C398.003 137.157 398.456 137.321 398.447 137.354Z" fill="#263238"/>
<path d="M299.003 123.792C298.992 123.778 299.228 123.594 299.689 123.255C300.158 122.928 300.883 122.488 301.882 122.051C303.855 121.208 307.11 120.415 310.953 121.352C312.852 121.808 314.858 122.759 316.602 124.27C318.362 125.766 319.882 127.717 321.351 129.811C322.817 131.914 324.326 134.118 326.133 136.222C327.922 138.336 329.93 140.396 332.141 142.329C336.567 146.177 341.345 149.294 346.181 150.866C348.587 151.658 350.991 152.058 353.24 152.039C355.486 152.054 357.582 151.579 359.195 150.565C360.824 149.575 361.975 148.23 362.91 147.032C363.841 145.82 364.573 144.718 365.167 143.815C365.742 142.942 366.198 142.249 366.537 141.735C366.854 141.261 367.027 141.018 367.043 141.027C367.058 141.037 366.914 141.299 366.626 141.791C366.308 142.318 365.878 143.029 365.338 143.924C364.77 144.845 364.061 145.967 363.142 147.208C362.218 148.434 361.068 149.827 359.388 150.878C357.724 151.954 355.535 152.468 353.243 152.47C350.944 152.508 348.485 152.115 346.032 151.322C341.099 149.745 336.261 146.6 331.797 142.72C329.565 140.769 327.542 138.688 325.742 136.55C323.925 134.424 322.404 132.184 320.957 130.086C319.504 127.993 318.021 126.068 316.319 124.597C314.631 123.113 312.709 122.178 310.861 121.708C307.128 120.749 303.925 121.463 301.957 122.238C299.961 123.044 299.042 123.856 299.003 123.792Z" fill="#263238"/>
<path d="M323.916 114.921C323.916 114.921 323.665 114.941 323.211 114.957C322.758 114.967 322.101 115.015 321.296 115.106C319.685 115.284 317.473 115.726 315.16 116.613C312.849 117.507 310.912 118.664 309.598 119.613C308.94 120.086 308.421 120.491 308.078 120.787C307.731 121.079 307.531 121.233 307.531 121.233C307.531 121.233 308.244 120.519 309.555 119.553C310.861 118.586 312.802 117.414 315.123 116.516C317.446 115.625 319.671 115.193 321.289 115.033C322.908 114.869 323.916 114.921 323.916 114.921Z" fill="#FAFAFA"/>
<path d="M339.965 124.644C339.965 124.644 339.704 124.688 339.231 124.748C338.757 124.802 338.075 124.914 337.24 125.083C335.57 125.418 333.293 126.079 330.943 127.202C328.596 128.332 326.656 129.696 325.35 130.789C324.695 131.335 324.182 131.797 323.843 132.133C323.5 132.464 323.302 132.641 323.302 132.641C323.302 132.641 324.001 131.843 325.302 130.733C326.6 129.622 328.541 128.243 330.897 127.108C333.256 125.98 335.546 125.328 337.224 125.011C338.905 124.69 339.965 124.644 339.965 124.644Z" fill="#FAFAFA"/>
<path d="M339.471 147.412C339.471 147.412 339.403 147.142 339.333 146.644C339.261 146.147 339.212 145.417 339.26 144.519C339.34 142.723 339.973 140.257 341.314 137.856C342.655 135.455 344.284 133.556 345.464 132.21C346.656 130.868 347.431 130.073 347.431 130.073C347.431 130.073 347.254 130.287 346.922 130.663C346.508 131.134 346.043 131.662 345.519 132.258C344.354 133.615 342.739 135.517 341.405 137.906C340.071 140.294 339.432 142.738 339.333 144.523C339.276 145.416 339.313 146.142 339.373 146.639C339.393 146.889 339.434 147.08 339.448 147.211C339.466 147.342 339.471 147.412 339.471 147.412Z" fill="#FAFAFA"/>
<path d="M357.071 137.329C357.071 137.329 356.938 137.046 356.809 136.561C356.679 136.076 356.557 135.387 356.542 134.619C356.529 133.85 356.625 133.157 356.737 132.668C356.848 132.178 356.97 131.89 356.97 131.89C356.987 131.895 356.901 132.193 356.809 132.682C356.717 133.171 356.633 133.857 356.646 134.617C356.661 135.377 356.77 136.058 356.88 136.544C356.99 137.029 357.088 137.324 357.071 137.329Z" fill="#FAFAFA"/>
<path d="M360.155 149.52C360.155 149.52 359.491 149.133 358.551 148.327C357.611 147.525 356.428 146.264 355.438 144.651C354.453 143.034 353.869 141.406 353.583 140.204C353.294 139 353.252 138.233 353.252 138.233C353.252 138.233 353.293 138.42 353.349 138.76C353.399 139.101 353.501 139.59 353.654 140.186C353.957 141.378 354.547 142.99 355.526 144.597C356.51 146.2 357.676 147.46 358.599 148.272C359.06 148.68 359.449 148.993 359.729 149.193C360.007 149.398 360.155 149.52 360.155 149.52Z" fill="#FAFAFA"/>
<path d="M373.647 135.684C373.647 135.684 373.135 135.454 372.35 134.999C371.565 134.545 370.511 133.861 369.424 133.002C368.338 132.141 367.431 131.271 366.809 130.611C366.186 129.951 365.845 129.505 365.845 129.505C365.845 129.505 365.949 129.601 366.121 129.786C366.372 130.048 366.618 130.305 366.862 130.56C367.496 131.205 368.407 132.062 369.488 132.92C370.57 133.776 371.613 134.466 372.386 134.935C372.69 135.114 372.996 135.295 373.309 135.479C373.53 135.605 373.647 135.684 373.647 135.684Z" fill="#FAFAFA"/>
<path d="M383.236 134.356C383.236 134.356 383.219 134.215 383.21 133.961C383.195 133.597 383.179 133.24 383.164 132.886C383.119 131.979 383.024 130.727 382.84 129.354C382.654 127.98 382.414 126.748 382.218 125.861C382.139 125.515 382.059 125.168 381.977 124.812C381.918 124.565 381.896 124.425 381.896 124.425C381.896 124.425 381.945 124.557 382.016 124.802C382.088 125.046 382.182 125.402 382.289 125.844C382.504 126.728 382.756 127.962 382.943 129.339C383.128 130.716 383.211 131.972 383.238 132.882C383.252 133.337 383.255 133.705 383.251 133.96C383.248 134.215 383.236 134.356 383.236 134.356Z" fill="#FAFAFA"/>
<path d="M395.689 127.546C395.696 127.547 395.691 127.663 395.677 127.872C395.648 128.181 395.62 128.475 395.593 128.758C395.51 129.505 395.36 130.533 395.128 131.657C394.895 132.781 394.625 133.785 394.405 134.503C394.317 134.773 394.226 135.055 394.131 135.349C394.061 135.547 394.02 135.656 394.013 135.653C394.006 135.651 394.035 135.538 394.093 135.336C394.177 135.038 394.258 134.754 394.335 134.481C394.536 133.758 394.794 132.755 395.027 131.634C395.258 130.514 395.419 129.49 395.521 128.747C395.558 128.466 395.597 128.173 395.638 127.866C395.664 127.66 395.682 127.545 395.689 127.546Z" fill="#FAFAFA"/>
<path d="M404.167 135.775C404.139 135.769 404.267 135.038 404.453 134.143C404.639 133.247 404.813 132.526 404.841 132.532C404.869 132.538 404.741 133.268 404.555 134.164C404.368 135.06 404.195 135.781 404.167 135.775Z" fill="#FAFAFA"/>
<path d="M418.181 140.428C418.164 140.424 418.219 140.17 418.263 139.753C418.308 139.336 418.341 138.758 418.355 138.117C418.357 137.671 418.36 137.193 418.363 136.475C418.363 136.327 418.362 136.159 418.362 135.977C418.363 135.859 418.365 135.795 418.372 135.794C418.387 135.793 418.415 136.053 418.437 136.473C418.458 136.894 418.474 137.476 418.459 138.119C418.445 138.762 418.4 139.344 418.336 139.762C418.273 140.181 418.181 140.428 418.181 140.428Z" fill="#FAFAFA"/>
<path d="M420.872 143.686C419.79 139.331 415.322 136.535 410.89 135.831C406.458 135.128 401.954 136.048 397.501 136.609C393.048 137.171 388.301 137.323 384.318 135.255C383.048 137.584 382.401 140.249 382.462 142.901C383.243 142.918 384.024 142.935 384.805 142.952C385.289 146.329 388.381 148.909 391.713 149.644C395.044 150.378 397.241 150.396 400.367 149.029C403.643 147.597 407.891 145.422 411.109 144.29C414.327 143.158 417.898 142.598 421.139 143.665" fill="#455A64"/>
<path d="M386.623 136.294C386.651 136.31 386.474 136.658 386.226 137.235C385.976 137.811 385.666 138.622 385.403 139.542C385.142 140.463 384.985 141.316 384.916 141.939C384.842 142.561 384.839 142.952 384.806 142.953C384.782 142.954 384.733 142.562 384.77 141.926C384.803 141.291 384.94 140.418 385.204 139.485C385.47 138.552 385.807 137.739 386.093 137.172C386.377 136.606 386.601 136.282 386.623 136.294Z" fill="#263238"/>
<path d="M384.977 141.008C384.962 141.066 384.416 140.967 383.74 140.894C383.064 140.818 382.51 140.794 382.508 140.735C382.505 140.68 383.07 140.609 383.763 140.687C384.456 140.762 384.992 140.955 384.977 141.008Z" fill="#263238"/>
<path d="M385.471 138.301C385.431 138.348 385.009 138.02 384.401 137.808C383.796 137.588 383.261 137.576 383.26 137.514C383.251 137.461 383.82 137.377 384.471 137.612C385.123 137.841 385.511 138.265 385.471 138.301Z" fill="#263238"/>
<path d="M390.129 136.869C390.129 136.869 390.367 136.862 390.821 136.867C391.275 136.874 391.945 136.888 392.81 136.872C394.539 136.858 397.05 136.729 400.111 136.127C403.163 135.539 406.946 135.141 411.08 135.822C413.133 136.178 415.262 136.925 417.141 138.255C418.987 139.602 420.588 141.525 421.302 143.905L421.368 144.125L421.155 144.022C420.251 143.585 419.206 143.286 418.125 143.204C415.527 143.009 413.026 143.768 410.706 144.53C408.377 145.326 406.184 146.241 404.138 147.208C403.112 147.686 402.111 148.156 401.126 148.584C400.143 149.008 399.176 149.428 398.183 149.657C396.208 150.125 394.287 150.139 392.588 149.878C390.884 149.619 389.402 149.019 388.276 148.24C387.139 147.47 386.366 146.543 385.862 145.727C385.358 144.905 385.109 144.191 384.976 143.706C384.842 143.219 384.804 142.955 384.804 142.955C384.859 142.93 384.93 144.047 385.93 145.684C386.439 146.486 387.211 147.393 388.34 148.144C389.458 148.904 390.922 149.485 392.608 149.733C394.29 149.981 396.193 149.958 398.14 149.49C399.115 149.262 400.067 148.844 401.051 148.417C402.032 147.987 403.03 147.516 404.056 147.035C406.103 146.062 408.303 145.139 410.639 144.338C412.968 143.572 415.485 142.801 418.141 142.998C419.245 143.082 420.318 143.388 421.245 143.837L421.099 143.954C420.41 141.653 418.834 139.74 417.023 138.419C415.177 137.108 413.078 136.365 411.046 136.008C406.952 135.323 403.181 135.699 400.134 136.269C397.066 136.853 394.538 136.962 392.809 136.952C391.078 136.947 390.129 136.869 390.129 136.869Z" fill="#263238"/>
<path d="M389.967 149.043C389.953 149.047 389.893 148.885 389.794 148.588C389.692 148.292 389.574 147.853 389.456 147.304C389.218 146.209 389.042 144.653 389.159 142.94C389.281 141.227 389.673 139.71 390.06 138.659C390.253 138.132 390.431 137.714 390.573 137.435C390.712 137.154 390.795 137.002 390.807 137.008C390.842 137.024 390.546 137.65 390.199 138.706C389.85 139.761 389.487 141.262 389.366 142.954C389.25 144.646 389.401 146.183 389.599 147.276C389.798 148.371 390.004 149.032 389.967 149.043Z" fill="#FAFAFA"/>
<path d="M398.621 143.156C398.652 143.154 398.692 143.479 398.779 143.998C398.865 144.517 399.01 145.229 399.213 146.006C399.627 147.559 400.029 148.807 399.965 148.827C399.938 148.836 399.81 148.534 399.63 148.036C399.45 147.538 399.217 146.843 399.012 146.058C398.807 145.273 398.683 144.547 398.634 144.017C398.583 143.487 398.596 143.157 398.621 143.156Z" fill="#FAFAFA"/>
<path d="M397.388 139.764C397.449 139.769 397.421 140.499 397.497 141.39C397.569 142.282 397.716 142.997 397.657 143.012C397.605 143.028 397.363 142.32 397.29 141.407C397.212 140.495 397.334 139.757 397.388 139.764Z" fill="#FAFAFA"/>
<path d="M399.533 136.272C399.589 136.298 399.322 136.941 399.172 137.775C399.015 138.609 399.036 139.304 398.974 139.308C398.921 139.316 398.805 138.603 398.968 137.737C399.125 136.87 399.487 136.245 399.533 136.272Z" fill="#FAFAFA"/>
<path d="M406.439 138.216C406.399 138.252 405.99 137.772 405.814 137.033C405.632 136.295 405.776 135.681 405.828 135.695C405.89 135.701 405.844 136.291 406.017 136.984C406.18 137.679 406.491 138.182 406.439 138.216Z" fill="#FAFAFA"/>
<path d="M411.817 143.834C411.795 143.849 411.563 143.556 411.24 143.047C410.917 142.538 410.513 141.806 410.151 140.959C409.79 140.111 409.541 139.313 409.396 138.728C409.251 138.142 409.201 137.772 409.227 137.767C409.257 137.76 409.358 138.118 409.538 138.688C409.717 139.258 409.986 140.039 410.343 140.878C410.701 141.715 411.08 142.449 411.368 142.973C411.654 143.496 411.843 143.817 411.817 143.834Z" fill="#FAFAFA"/>
<path d="M413.314 136.576C413.346 136.626 413.171 136.79 413.005 137.02C412.835 137.248 412.732 137.464 412.675 137.449C412.62 137.438 412.642 137.162 412.837 136.897C413.03 136.631 413.287 136.528 413.314 136.576Z" fill="#FAFAFA"/>
<path d="M421.219 144.025C421.219 144.025 421.117 143.94 420.932 143.77C420.745 143.603 420.455 143.371 420.059 143.105C419.263 142.589 417.981 141.992 416.286 141.769C414.596 141.531 412.534 141.74 410.383 142.414C408.221 143.071 405.985 144.167 403.598 145.217C401.217 146.275 398.818 147.073 396.549 147.247C394.289 147.444 392.234 147.178 390.585 146.727C388.925 146.294 387.667 145.684 386.828 145.23C386.408 145.001 386.091 144.807 385.882 144.666C385.67 144.53 385.562 144.454 385.562 144.454C385.562 144.454 385.678 144.518 385.893 144.649C386.105 144.784 386.424 144.972 386.846 145.195C387.689 145.636 388.949 146.234 390.604 146.656C392.249 147.096 394.295 147.353 396.542 147.152C398.797 146.973 401.179 146.179 403.557 145.122C405.94 144.073 408.182 142.977 410.354 142.322C412.516 141.65 414.596 141.446 416.296 141.695C418.002 141.929 419.288 142.541 420.081 143.07C420.873 143.616 421.219 144.025 421.219 144.025Z" fill="#FAFAFA"/>
<path d="M404.545 139.316C404.545 139.316 404.296 139.432 403.839 139.623C403.386 139.826 402.714 140.078 401.874 140.367C400.199 140.932 397.778 141.533 395.058 141.496C392.335 141.474 389.935 140.83 388.236 140.348C386.533 139.85 385.5 139.482 385.5 139.482C385.5 139.482 385.766 139.55 386.241 139.692C386.837 139.865 387.505 140.059 388.257 140.277C389.96 140.741 392.354 141.37 395.06 141.392C397.765 141.429 400.175 140.843 401.852 140.297C402.692 140.018 403.367 139.777 403.825 139.585C404.285 139.406 404.545 139.316 404.545 139.316Z" fill="#FAFAFA"/>
<path d="M414.69 138.253C414.69 138.253 414.604 138.202 414.446 138.097C414.292 137.987 414.051 137.845 413.739 137.67C413.107 137.334 412.141 136.919 410.878 136.683C409.619 136.441 408.078 136.369 406.389 136.539C404.698 136.702 402.866 137.087 400.936 137.447C397.074 138.258 393.46 138.076 390.919 137.721C388.367 137.369 386.822 136.974 386.822 136.974C386.822 136.974 387.214 137.045 387.921 137.175C388.628 137.305 389.653 137.486 390.929 137.648C393.471 137.983 397.064 138.154 400.918 137.345C402.846 136.986 404.681 136.603 406.38 136.444C408.077 136.279 409.627 136.359 410.893 136.611C412.162 136.858 413.131 137.286 413.759 137.634C414.385 137.993 414.69 138.253 414.69 138.253Z" fill="#FAFAFA"/>
<path d="M420.992 143.512C420.904 143.578 420.197 142.103 418.243 140.501C417.269 139.714 415.972 138.925 414.391 138.441C412.816 137.957 410.963 137.785 409.085 138.106C407.198 138.41 405.555 139.264 404.108 140.103C402.659 140.946 401.365 141.764 400.197 142.311C399.036 142.873 398.019 143.168 397.306 143.275C396.952 143.345 396.67 143.348 396.481 143.355C396.292 143.36 396.192 143.354 396.191 143.336C396.172 143.232 397.797 143.195 400.032 141.981C401.156 141.404 402.413 140.564 403.865 139.689C405.306 138.822 407.017 137.912 408.997 137.592C410.961 137.257 412.899 137.451 414.535 137.983C416.178 138.515 417.505 139.37 418.479 140.218C419.457 141.07 420.094 141.913 420.482 142.518C420.867 143.128 421.018 143.498 420.992 143.512Z" fill="#263238"/>
<path d="M407.104 138.405C407.152 138.524 404.482 139.521 401.004 139.76C397.527 140.019 394.742 139.412 394.772 139.287C394.793 139.129 397.56 139.495 400.966 139.24C404.373 139.008 407.061 138.251 407.104 138.405Z" fill="#263238"/>
<path d="M402.157 135.333C401.917 135.231 401.612 135.102 401.03 134.855C400.289 134.546 399.195 134.094 397.762 133.576C394.904 132.572 390.642 131.166 385.181 130.964C382.464 130.881 379.453 131.163 376.39 132.103C373.339 133.037 370.222 134.667 367.667 137.216C365.066 139.705 362.888 142.857 359.892 145.421C358.401 146.696 356.619 147.725 354.638 148.214C352.649 148.678 350.517 148.5 348.538 147.851C346.549 147.206 344.743 146.139 343.173 144.854C341.6 143.565 340.262 142.06 339.062 140.509C336.663 137.396 334.756 134.113 332.57 131.248C330.406 128.37 328.091 125.822 325.643 123.756C323.198 121.692 320.634 120.097 318.108 119.082C313.035 117.019 308.409 117.129 305.473 117.821C303.98 118.14 302.893 118.632 302.154 118.935C301.59 119.219 301.294 119.367 301.061 119.485C301.292 119.364 301.586 119.21 302.145 118.916C302.883 118.606 303.969 118.107 305.464 117.781C308.405 117.076 313.045 116.953 318.136 119.014C320.673 120.028 323.246 121.625 325.699 123.691C328.155 125.759 330.478 128.31 332.647 131.191C334.838 134.06 336.749 137.343 339.143 140.448C340.341 141.995 341.675 143.494 343.239 144.775C344.8 146.052 346.596 147.113 348.57 147.753C350.535 148.398 352.646 148.573 354.614 148.114C356.575 147.63 358.342 146.612 359.826 145.344C362.809 142.795 364.99 139.644 367.6 137.148C370.168 134.59 373.303 132.954 376.365 132.021C379.44 131.081 382.46 130.803 385.183 130.891C390.657 131.103 394.92 132.522 397.775 133.538C400.637 134.596 402.157 135.333 402.157 135.333Z" fill="#FAFAFA"/>
<path d="M353.089 138.251C353.089 138.251 352.523 138.331 351.508 138.192C350.502 138.042 349.056 137.586 347.543 136.551C346.018 135.533 344.518 133.914 343.119 131.954C341.715 129.996 340.305 127.747 338.478 125.652C334.839 121.436 330.622 118.542 327.411 116.855C325.801 116.005 324.441 115.435 323.497 115.054C322.546 114.692 322.019 114.493 322.019 114.493C322.019 114.493 322.555 114.666 323.512 115.017C324.461 115.387 325.828 115.947 327.446 116.791C330.672 118.465 334.908 121.358 338.557 125.585C340.389 127.686 341.8 129.943 343.197 131.898C344.588 133.858 346.074 135.47 347.584 136.49C349.083 137.526 350.515 137.99 351.514 138.152C352.017 138.226 352.412 138.249 352.679 138.249C352.948 138.247 353.089 138.251 353.089 138.251Z" fill="#FAFAFA"/>
<path d="M399.123 129.807C399.123 129.807 399.016 129.751 398.819 129.636C398.619 129.525 398.337 129.342 397.953 129.139C397.198 128.714 396.077 128.145 394.642 127.563C391.788 126.391 387.556 125.292 382.818 125.441C378.078 125.587 373.922 126.947 371.147 128.295C369.751 128.966 368.668 129.603 367.941 130.074C367.571 130.3 367.3 130.501 367.108 130.624C366.918 130.751 366.815 130.813 366.815 130.813C366.815 130.813 367.196 130.521 367.919 130.04C368.64 129.558 369.72 128.909 371.115 128.229C373.889 126.861 378.057 125.484 382.815 125.337C387.571 125.187 391.817 126.302 394.67 127.494C396.105 128.086 397.223 128.667 397.973 129.103C398.724 129.539 399.123 129.807 399.123 129.807Z" fill="#FAFAFA"/>
<path d="M378.799 134.26C378.799 134.26 378.748 134.122 378.673 133.867C378.601 133.612 378.488 133.245 378.339 132.796C378.043 131.897 377.576 130.672 376.933 129.378C376.287 128.085 375.589 126.975 375.049 126.198C374.779 125.809 374.554 125.498 374.394 125.287C374.235 125.075 374.156 124.95 374.156 124.95C374.156 124.95 374.552 125.385 375.109 126.155C375.667 126.924 376.377 128.033 377.026 129.331C377.673 130.63 378.131 131.865 378.409 132.773C378.689 133.682 378.799 134.26 378.799 134.26Z" fill="#FAFAFA"/>
<path d="M389.44 124.972C389.44 124.972 389.508 125.527 389.519 126.429C389.532 127.331 389.48 128.58 389.286 129.943C389.089 131.307 388.787 132.52 388.522 133.382C388.257 134.245 388.036 134.758 388.036 134.758C388.036 134.758 388.068 134.622 388.145 134.382C388.249 134.036 388.351 133.698 388.451 133.362C388.698 132.497 388.987 131.287 389.183 129.929C389.377 128.571 389.439 127.328 389.446 126.429C389.443 126.078 389.441 125.725 389.438 125.364C389.432 125.112 389.44 124.972 389.44 124.972Z" fill="#FAFAFA"/>
<path d="M366.372 141.932C366.372 141.932 365.904 141.682 365.203 141.19C364.502 140.699 363.573 139.959 362.651 139.031C361.73 138.101 360.996 137.167 360.511 136.463C360.024 135.758 359.778 135.289 359.778 135.289C359.778 135.289 359.86 135.393 359.993 135.592C360.124 135.792 360.321 136.076 360.571 136.421C361.07 137.112 361.809 138.034 362.725 138.959C363.643 139.882 364.559 140.627 365.246 141.132C365.59 141.385 365.872 141.583 366.071 141.716C366.268 141.849 366.372 141.932 366.372 141.932Z" fill="#FAFAFA"/>
<path d="M350.944 138.825C350.944 138.825 350.813 138.437 350.702 137.786C350.591 137.136 350.51 136.221 350.57 135.213C350.633 134.205 350.825 133.307 351.015 132.675C351.204 132.042 351.382 131.673 351.382 131.673C351.389 131.676 351.361 131.774 351.305 131.949C351.247 132.123 351.171 132.378 351.086 132.695C350.915 133.328 350.737 134.22 350.674 135.219C350.614 136.218 350.683 137.125 350.775 137.774C350.821 138.099 350.865 138.361 350.901 138.541C350.935 138.723 350.951 138.824 350.944 138.825Z" fill="#FAFAFA"/>
<path d="M350.895 151.782C350.895 151.782 350.567 151.183 350.155 150.16C349.742 149.138 349.261 147.686 348.927 146.035C348.596 144.383 348.479 142.857 348.465 141.755C348.45 140.652 348.521 139.973 348.521 139.973C348.521 139.973 348.529 140.144 348.525 140.451C348.518 140.758 348.522 141.204 348.539 141.753C348.572 142.851 348.701 144.369 349.03 146.014C349.362 147.658 349.83 149.107 350.224 150.133C350.42 150.646 350.59 151.058 350.715 151.339C350.836 151.621 350.895 151.782 350.895 151.782Z" fill="#FAFAFA"/>
<path d="M362.646 130.95C362.678 130.95 362.673 131.317 362.829 131.731C362.98 132.146 363.223 132.422 363.199 132.443C363.183 132.464 362.892 132.206 362.732 131.767C362.567 131.33 362.62 130.945 362.646 130.95Z" fill="#FAFAFA"/>
<path d="M343.126 127.212C343.126 127.212 342.897 127.346 342.476 127.57C342.053 127.79 341.451 128.131 340.721 128.572C339.26 129.452 337.316 130.8 335.379 132.541C333.446 134.288 331.905 136.083 330.878 137.445C330.364 138.125 329.963 138.689 329.7 139.087C329.433 139.483 329.277 139.696 329.277 139.696C329.277 139.696 329.804 138.777 330.82 137.401C331.833 136.025 333.371 134.216 335.31 132.464C337.252 130.717 339.21 129.375 340.684 128.509C342.157 127.641 343.126 127.212 343.126 127.212Z" fill="#FAFAFA"/>
<path d="M331.095 117.186C331.095 117.186 330.874 117.247 330.47 117.339C330.066 117.428 329.484 117.573 328.772 117.769C327.346 118.16 325.402 118.807 323.351 119.751C321.302 120.699 319.547 121.757 318.324 122.588C317.712 123.003 317.224 123.351 316.895 123.601C316.563 123.848 316.373 123.977 316.373 123.977C316.373 123.977 317.066 123.375 318.283 122.527C319.498 121.679 321.252 120.606 323.308 119.656C325.365 118.71 327.319 118.071 328.753 117.698C330.187 117.323 331.095 117.186 331.095 117.186Z" fill="#FAFAFA"/>
<path d="M412.7 134.8C412.728 134.807 412.685 135.085 412.604 135.42C412.523 135.756 412.434 136.023 412.406 136.016C412.378 136.009 412.421 135.731 412.502 135.396C412.584 135.06 412.672 134.793 412.7 134.8Z" fill="#FAFAFA"/>
<path d="M458.117 134.354C458.117 134.354 462.632 135.29 464.557 135.717C465.181 135.856 465.824 135.761 466.454 135.868C469.53 136.389 473.7 136.124 474.802 135.718C476.716 135.013 476.795 137.458 474.732 138.507C472.669 139.557 471.404 139.671 471.404 139.671L476.368 143.665C476.626 143.872 476.795 144.169 476.842 144.497L478.112 153.296C478.256 154.035 477.86 154.813 477.141 155.034C476.789 155.142 476.432 155.1 476.19 154.69L476.329 155.873C476.561 157.83 473.62 158.33 473.271 156.391C473.267 156.367 473.262 156.342 473.258 156.318L471.513 157.304C471.513 157.304 470.354 158.507 469.104 156.837C468.071 155.457 464.975 149.979 464.975 149.979C464.975 149.979 451.792 144.426 452.003 142.208L458.117 134.354Z" fill="#FFBE9D"/>
<path d="M473.272 156.391C473.194 156.394 473.12 155.572 472.917 154.263C472.713 152.965 472.339 151.133 472.076 149.136C471.892 148.164 471.666 147.18 471.446 146.391C471.308 146.029 471.057 145.76 470.738 145.577C470.421 145.376 470.115 145.181 469.817 144.992C468.695 144.27 468.02 143.792 468.057 143.731C468.094 143.669 468.836 144.035 470.005 144.676C470.313 144.847 470.63 145.024 470.958 145.206C471.327 145.392 471.706 145.749 471.891 146.213C472.173 147.111 472.391 148.019 472.588 149.044C472.857 151.08 473.166 152.87 473.282 154.219C473.394 155.558 473.337 156.389 473.272 156.391Z" fill="#EB996E"/>
<path d="M476.192 154.69C475.989 154.727 475.66 151.532 474.848 147.715C474.64 146.766 474.478 145.805 474.001 145.238C473.448 144.628 472.873 144.115 472.385 143.714C471.894 143.312 471.471 143.022 471.163 142.855C470.856 142.687 470.666 142.643 470.67 142.601C470.669 142.572 470.888 142.548 471.245 142.669C471.6 142.788 472.073 143.044 472.608 143.42C473.144 143.799 473.746 144.282 474.358 144.916C475.004 145.668 475.136 146.658 475.357 147.603C475.794 149.536 475.985 151.318 476.11 152.601C476.227 153.887 476.245 154.69 476.192 154.69Z" fill="#EB996E"/>
<path d="M465.414 146.36C465.451 146.298 466.107 146.614 467.139 147.175C467.414 147.327 467.693 147.481 467.979 147.639C468.263 147.798 468.648 147.988 468.927 148.329C469.228 148.656 469.37 149.112 469.482 149.496C469.609 149.904 469.738 150.319 469.87 150.746C470.921 154.179 471.659 156.991 471.52 157.028C471.381 157.065 470.421 154.327 469.376 150.912C469.248 150.486 469.123 150.071 469 149.664C468.881 149.241 468.784 148.896 468.557 148.635C468.349 148.359 468.061 148.201 467.757 148.009C467.482 147.832 467.213 147.66 466.949 147.49C465.967 146.849 465.377 146.422 465.414 146.36Z" fill="#EB996E"/>
<path d="M465.761 136.856C465.829 136.653 467.69 137.381 469.772 138.596C471.877 139.785 473.401 141.065 473.294 141.191C473.213 141.285 471.601 140.229 469.512 139.047C468.61 138.53 467.772 138.05 466.851 137.522C466.168 137.124 465.754 136.919 465.761 136.856Z" fill="#EB996E"/>
</svg>
