<svg width="65" height="78" viewBox="0 0 65 78" fill="none" xmlns="http://www.w3.org/2000/svg">
<path d="M31.409 18.6095C30.6008 14.1136 32.684 9.48678 35.1928 6.36871C37.9578 2.92831 42.7027 0.289941 46.7576 0C47.4426 4.71366 45.5575 9.30625 43.0761 12.5548C40.4142 16.0447 35.8376 18.751 31.409 18.6095ZM55.1937 34.9005C56.4484 31.3283 58.9341 28.1143 62.7903 25.9458C58.8934 20.9835 53.4222 18.1025 48.2591 18.1025C41.428 18.1025 38.5397 21.4237 33.7949 21.4237C28.9071 21.4237 25.1991 18.1025 19.282 18.1025C13.4798 18.1025 7.30353 21.7114 3.38652 27.8747C1.9463 30.1529 0.970681 32.9832 0.438606 36.1356C-1.0378 44.979 1.16761 56.4976 7.74633 66.7253C10.945 71.6882 15.2086 77.2783 20.7785 77.327C25.7402 77.3765 27.1478 74.0899 33.8647 74.056C40.5916 74.0169 41.8665 77.3611 46.8214 77.3128C52.3929 77.2648 56.8913 71.0783 60.09 66.116C62.3677 62.555 63.2289 60.7564 65 56.7303C55.9946 53.2648 52.2909 43.1387 55.1937 34.9005Z" fill="#E0E0E0"/>
</svg>
