<svg width="80" height="80" viewBox="0 0 80 80" fill="none" xmlns="http://www.w3.org/2000/svg">
<path d="M59.8856 48.671V31.0815H63.948V45.0911H71.0828V48.6585H59.8856V48.671ZM27.2691 37.7063L37.2038 30.0641C38.1413 30.819 39.0663 31.5865 40.0038 32.3565L30.5765 39.4913L32.6215 41.2762L42.0362 33.8814C42.9737 34.6489 43.9111 35.4189 44.8486 36.1864C41.7237 38.6613 38.5738 41.1212 35.4214 43.5686L37.4538 45.3536L46.8935 37.7113L46.881 31.084H50.9559V45.0936H58.3507V48.661H47.141V42.0462C43.8211 44.5861 40.5137 47.136 37.2063 49.676L27.2716 42.0462C26.7892 44.4686 25.0967 46.5785 22.8968 47.6835C21.9468 48.1785 20.9043 48.491 19.8494 48.6085C19.2369 48.686 18.6244 48.661 18.0144 48.661H11.7246V31.084H18.9769C20.8643 31.109 22.7018 31.7615 24.1842 32.9465C25.6942 34.1439 26.7742 35.8489 27.2691 37.7113V37.7063ZM15.552 34.6464V45.3486H18.7294C20.0844 45.2961 21.3468 44.6586 22.1793 43.6036C23.6118 41.8062 23.8468 39.3338 22.7918 37.3013C22.1268 36.0264 20.9418 35.0889 19.5369 34.7489C18.9769 34.6189 18.4044 34.6439 17.8444 34.6439L15.552 34.6464ZM39.4038 0H40.5237C46.8135 0.0774976 52.9833 1.65245 58.5432 4.56986C63.973 7.43477 68.6729 11.4846 72.2927 16.432C77.1876 23.0993 79.8825 31.1315 80 39.4013V40.5987C79.87 50.5584 76.0276 60.1156 69.2178 67.3829C61.7956 75.3002 51.4584 79.8575 40.6112 80H39.4013C34.6739 79.935 30.0016 79.0225 25.5867 77.3176C20.2094 75.2202 15.352 71.9928 11.3421 67.8654C7.04478 63.438 3.81738 58.1007 1.91494 52.2409C0.704978 48.4785 0.064998 44.5586 0 40.6012V39.4038C0.129996 31.814 2.43492 24.4042 6.63979 18.0894C10.5722 12.1521 15.9745 7.35977 22.3418 4.18237C27.6416 1.52495 33.474 0.094997 39.3988 0.00249992L39.4038 0ZM38.8963 4.10237C31.0715 4.32487 23.5443 7.10978 17.4645 12.0196C12.4771 16.0295 8.66223 21.2893 6.3973 27.2666C3.1024 36.0289 3.3374 45.7286 7.03478 54.3233C9.5997 60.2081 13.6746 65.2855 18.8569 69.0628C23.5693 72.5002 29.0391 74.7277 34.8064 75.5476C39.6638 76.2501 44.6636 75.9651 49.4035 74.6877C55.8883 72.9302 61.7481 69.4003 66.3179 64.4805C70.8878 59.5706 73.9877 53.4658 75.2627 46.876C76.2651 41.7062 76.1226 36.3814 74.8602 31.2765C71.8778 19.2969 62.933 9.6897 51.2009 5.84732C47.2285 4.55736 43.0637 3.95988 38.8963 4.10237Z" fill="#E0E0E0"/>
</svg>
