<svg width="21" height="21" viewBox="0 0 21 21" fill="none" xmlns="http://www.w3.org/2000/svg">
<path d="M20.3684 10.7281C20.3693 10.0466 20.3113 9.3664 20.195 8.69482H10.6992V12.546H16.138C16.0267 13.1611 15.7911 13.7475 15.4455 14.2697C15.0999 14.792 14.6513 15.2393 14.1269 15.5848V18.0846H17.3728C19.2734 16.3444 20.3684 13.771 20.3684 10.7281Z" fill="#4285F4"/>
<path d="M10.6997 20.5C13.4169 20.5 15.7049 19.6139 17.3733 18.0862L14.1274 15.5864C13.2239 16.1947 12.0604 16.5419 10.6997 16.5419C8.07328 16.5419 5.84408 14.7836 5.04693 12.4143H1.70312V14.9906C2.5412 16.6467 3.82629 18.0389 5.41494 19.0118C7.00358 19.9847 8.83324 20.4999 10.6997 20.5Z" fill="#34A853"/>
<path d="M5.04686 12.4139C4.62543 11.1723 4.62543 9.82781 5.04686 8.58627V6.01001H1.70305C0.998032 7.40321 0.630859 8.94083 0.630859 10.5001C0.630859 12.0593 0.998032 13.5969 1.70305 14.9901L5.04686 12.4139Z" fill="#FBBC04"/>
<path d="M10.6997 4.45879C12.1356 4.43549 13.5231 4.97429 14.5623 5.95872L17.4362 3.10469C15.6139 1.40488 13.1996 0.471659 10.6997 0.500656C8.83324 0.500741 7.00358 1.01598 5.41494 1.98886C3.82629 2.96174 2.5412 4.35397 1.70312 6.0101L5.04693 8.58636C5.84408 6.21704 8.07328 4.45879 10.6997 4.45879Z" fill="#EA4335"/>
</svg>
