<svg width="82" height="98" viewBox="0 0 82 98" fill="none" xmlns="http://www.w3.org/2000/svg">
<path d="M39.6898 20.5852C40.547 20.1481 41.5618 20.1486 42.4185 20.5867L76.74 38.1354C78.9259 39.253 78.9171 42.3799 76.7249 43.4852L42.4034 60.7906C41.5549 61.2185 40.5539 61.219 39.7049 60.7921L5.29301 43.487C3.09705 42.3826 3.08822 39.2509 5.27792 38.1342L39.6898 20.5852Z" fill="#EAEDFA"/>
<path d="M34.2945 65.5761C38.7216 66.7724 43.3857 66.781 47.8172 65.6012C51.5604 64.6046 55.0349 62.7873 57.9885 60.2811L63.3209 55.7562C63.692 55.4413 64.2617 55.7051 64.2617 56.1918L64.2614 73.6252C64.2614 74.0151 64.0343 74.3693 63.68 74.5321L57.6781 77.2897C54.9031 78.5647 51.9941 79.5253 49.0056 80.1535C43.7547 81.2572 38.3382 81.3182 33.0638 80.3331L32.5603 80.239C28.8964 79.5547 25.3355 78.4025 21.9651 76.8109L17.064 74.4964C16.7647 74.3551 16.5737 74.0538 16.5737 73.7228L16.5738 56.3986C16.5738 55.8043 17.2517 55.4647 17.7277 55.8205L24.5499 60.9205C27.3488 63.0129 30.519 64.5558 33.8926 65.4674L34.2945 65.5761Z" fill="#EAEDFA"/>
<rect x="72.6953" y="52.166" width="6.39718" height="26.7519" rx="2" fill="#EAEDFA"/>
<ellipse cx="75.894" cy="84.1521" rx="5.52484" ry="6.39718" fill="#EAEDFA"/>
</svg>
