<svg width="968" height="244" viewBox="0 0 968 244" fill="none" xmlns="http://www.w3.org/2000/svg">
<path fill-rule="evenodd" clip-rule="evenodd" d="M137.276 48.3089C137.276 48.1357 137.188 47.9536 137.012 47.8667C136.834 47.7753 136.636 47.7663 136.437 47.7663H135.411V49.8176H135.698V48.8714H136.228L136.901 49.8176H137.243L136.531 48.8714C136.951 48.8611 137.276 48.7124 137.276 48.3089ZM136.139 48.6738H135.697V47.9484H136.37C136.663 47.9484 136.984 47.987 136.984 48.3044C136.984 48.7221 136.47 48.6738 136.139 48.6738ZM123.838 38.3914L128.148 34.3846C128.398 34.0904 128.522 33.8845 128.522 33.7081C128.522 33.414 128.231 33.2962 127.318 33.2962H126.23V30.7666H138V33.2962H136.454C134.668 33.2962 134.336 33.5311 131.844 36.2667L125.026 42.6775V46.5897C125.026 47.5905 125.606 47.9426 127.268 47.9426H129.842V50.3834H113.357V47.9426H115.931C117.591 47.9426 118.173 47.5905 118.173 46.5897V42.6775L110.143 34.9427C108.816 33.5903 108.999 33.2962 105.305 33.2962V30.7666H120.213V33.2962H119.152C118.072 33.2962 117.614 33.4725 117.614 33.8253C117.614 34.1201 117.946 34.355 118.154 34.5899L122.216 38.4454C122.699 38.8825 123.288 38.9391 123.838 38.3914ZM23.8101 30.766H27.4063V37.8243H24.085C23.7908 36.4134 22.7766 35.8644 21.8519 35.1242C20.1835 33.7892 16.5702 32.6776 13.5313 32.6776C9.60903 32.6776 6.29883 33.7371 6.29883 35.2947C6.29883 39.6188 28.7303 36.1778 28.7303 44.3536C28.7303 48.6178 23.9254 51 15.2965 51C12.3094 51 7.78909 50.1929 5.12201 48.9596C4.28596 48.5393 3.93114 49.3574 3.77442 50.3827H0.0872272V43.0888H3.42256C4.15807 44.9419 5.17154 45.3236 6.10368 46.0593C7.72108 47.3537 11.5709 48.2953 15.1014 48.2651C20.4245 48.2194 22.2548 47.2063 22.2548 45.7355C22.2548 44.2654 20.4444 43.912 14.6113 43.1184L9.65856 42.4123C4.06937 41.6766 0 40.5888 0 36.7069C0 32.6776 5.14788 30.148 13.2874 30.148C16.7173 30.148 19.5869 30.5471 22.3412 31.9027C23.1041 32.3345 23.8197 32.386 23.8101 30.766ZM93.9939 42.5835L94.0649 34.7386C94.0649 33.7094 93.4499 33.3567 91.6927 33.3567H89.6281V30.9159H102.764V33.3567H101.052C99.2933 33.3567 98.6783 33.71 98.6783 34.7386V50.5321L93.5371 50.4967L76.887 36.7681V46.7383C76.887 47.7386 77.5021 48.1203 79.2592 48.1203H81.5448V50.5321H67.9026V48.1203H70.1632C71.9203 48.1203 72.5353 47.7379 72.5353 46.7383V34.7386C72.5353 33.7094 71.9203 33.3567 70.1632 33.3567H67.9026V30.9159H79.6975L93.9939 42.5835ZM49.9937 30C39.525 30 32.9719 34.0299 32.9719 40.4994C32.9719 46.8529 39.4341 50.852 49.6744 50.852C60.5512 50.852 66.8781 46.9115 66.8781 40.1762C66.8788 34.1181 60.0515 30 49.9937 30ZM49.7557 48.2941C43.961 48.2941 40.6301 45.3821 40.6301 40.3526C40.6301 35.4415 44.1059 32.5296 50.0455 32.5296C55.7433 32.5296 59.0742 35.5007 59.0742 40.5592C59.0742 45.4999 55.6945 48.2941 49.7557 48.2941Z" fill="#E0E0E0"/>
<path d="M344.409 19.6095C343.601 15.1136 345.684 10.4868 348.193 7.36871C350.958 3.92831 355.703 1.28994 359.758 1C360.443 5.71366 358.557 10.3063 356.076 13.5548C353.414 17.0447 348.838 19.751 344.409 19.6095ZM368.194 35.9005C369.448 32.3283 371.934 29.1143 375.79 26.9458C371.893 21.9835 366.422 19.1025 361.259 19.1025C354.428 19.1025 351.54 22.4237 346.795 22.4237C341.907 22.4237 338.199 19.1025 332.282 19.1025C326.48 19.1025 320.304 22.7114 316.387 28.8747C314.946 31.1529 313.971 33.9832 313.439 37.1356C311.962 45.979 314.168 57.4976 320.746 67.7253C323.945 72.6882 328.209 78.2783 333.778 78.327C338.74 78.3765 340.148 75.0899 346.865 75.056C353.592 75.0169 354.866 78.3611 359.821 78.3128C365.393 78.2648 369.891 72.0783 373.09 67.116C375.368 63.555 376.229 61.7564 378 57.7303C368.995 54.2648 365.291 44.1387 368.194 35.9005Z" fill="#E0E0E0"/>
<path d="M221.857 170.931C223.857 172.375 225.571 174.108 227.286 175.841C229.571 178.44 231.571 181.04 233 184.217C233.286 185.083 233.857 185.949 234.143 186.816C233.857 186.527 233.571 186.527 233.286 186.238C231.571 184.794 230.143 182.773 229.286 181.328C228.714 180.751 228.428 179.884 227.857 179.307C227 178.152 226.143 176.708 225.286 175.552C224.143 173.819 222.714 172.375 221.571 170.643L221.857 170.931Z" fill="#E0E0E0"/>
<path d="M201 244C200.714 244 200.428 244 199.857 244H194.714C194.428 244 194.142 244 193.857 244C179.571 242.845 167 233.892 161 220.895C160.714 219.74 160.714 219.162 160.714 218.296C160.714 215.985 161.571 214.541 162.714 213.386C163.571 212.809 164.142 212.52 165.285 212.231C165.571 212.231 165.571 212.231 165.857 212.231C167 212.231 168.428 212.52 169.857 213.097C172.714 214.541 175.285 216.563 177.857 219.74C178.714 220.895 179.571 221.762 180.428 222.917C181.285 224.072 182.142 225.227 183.285 226.383C185.285 228.693 187.571 230.715 190.142 233.025C193.285 235.624 196.428 237.357 199.857 238.801C203.285 240.245 207 241.401 210.714 241.689C207.285 243.133 204.142 243.711 201 244Z" fill="#E0E0E0"/>
<path d="M220.429 232.737C218.714 233.314 217 233.603 215 233.603C214.714 233.603 214.143 233.603 213.857 233.603C210.429 233.603 207 232.737 203.286 231.293C200.714 230.137 198.143 228.693 195.571 226.672C193.286 224.939 191.286 222.917 189.857 221.184C189 220.029 188.143 219.163 187.286 218.007C186.429 216.852 185.571 215.697 184.714 214.83C180.714 210.209 177.286 207.61 173.571 205.589C171 204.433 168.429 203.856 165.857 203.856C165.571 203.856 165 203.856 164.429 203.856C161.571 204.144 159 205.3 157 207.033C157 206.744 157 206.455 157 206.166C157 205.3 157 204.722 157 203.856V202.7C157 202.412 157 202.123 157.286 201.834C157.857 198.08 159.286 195.191 161.571 192.592C163.857 190.282 166.429 188.838 169.286 188.549C169.857 188.549 170.143 188.549 170.714 188.549C172.714 188.549 175 189.126 177.286 189.993C179.857 191.148 182.143 192.592 184.714 194.903C187.857 197.791 190.714 201.256 193.571 205.3C195 207.61 196.714 210.209 198.714 212.52C202.714 217.141 206.714 220.607 211 223.206C215 225.516 218.714 226.672 222.714 226.96C223.286 226.96 223.857 226.96 224.429 226.96C226.429 226.96 228.429 226.672 230.143 226.383C227.286 229.56 224.143 231.581 220.429 232.737Z" fill="#E0E0E0"/>
<path d="M237 210.209C236.143 212.52 235 214.253 233.286 215.697C230.714 218.007 227.857 218.874 224.143 218.874C223.857 218.874 223.286 218.874 223 218.874C220.428 218.585 217.571 217.718 214.714 216.274C211.286 214.253 207.857 211.365 204.714 207.61C203 205.588 201.571 203.278 200.143 200.967C197 196.058 193.571 192.303 189.857 188.838C186.714 185.949 183.571 183.928 180.428 182.484C177.286 181.04 173.857 180.462 170.714 180.462C169.857 180.462 169.286 180.462 168.428 180.462C166.714 180.751 165 181.04 163.571 181.617C164.428 180.173 165.286 179.018 166.428 177.863L166.714 177.574C167 177.285 167.571 176.996 167.857 176.708C170.714 174.108 173.571 172.664 176.428 171.509C178.143 170.931 179.857 170.643 181.286 170.643C181.857 170.643 182.428 170.643 183 170.643C185.571 170.931 188.143 171.798 190.714 173.242C193.571 174.975 196.143 177.285 199 180.173C201.286 182.773 203.286 185.372 205.286 188.26C205.857 189.126 206.143 189.704 206.714 190.57C207.571 191.726 208.143 192.881 209 194.325C211.571 198.079 214.143 201.256 217 203.856C219.286 205.877 221.571 207.321 224.143 208.477C226.714 209.632 229 210.209 231.571 210.209C232.428 210.209 233 210.209 233.571 209.921C234.714 209.632 235.857 209.632 237 209.054C237 209.632 237 209.921 237 210.209Z" fill="#E0E0E0"/>
<path d="M232.714 201.834C232.428 201.834 231.857 201.834 231.571 201.834C230.143 201.834 229 201.545 227.285 200.968C225.571 200.39 224.143 199.235 222.428 197.791C220.143 195.769 218.143 193.17 215.857 189.993C215 188.838 214.428 187.682 213.571 186.527C213 185.661 212.428 184.794 212.143 184.217C209.857 180.751 207.571 177.863 205.285 174.975C201.857 171.22 198.714 168.332 195 166.31C193.571 165.444 191.857 164.578 190.143 164C190.428 164 191 164 191.571 164C192.428 164 193.285 164 194.428 164.289C197.285 164.578 200.143 165.444 202.714 166.599C206.143 168.043 209.285 170.354 212.428 173.531C213.285 174.397 214.143 175.264 214.714 176.13C215.857 177.574 217.285 179.307 218.428 180.751C219.285 181.906 220.143 183.061 221 184.217C221.571 184.794 221.857 185.661 222.428 186.238C223.857 188.26 225.571 190.859 228.143 192.881C230.714 194.903 233.285 195.769 236.143 195.769C236.428 195.769 236.714 195.769 236.714 195.769C236.714 196.058 236.714 196.058 236.714 196.347C237 197.213 237 198.368 237 199.235V199.523C235.857 200.968 234.428 201.834 232.714 201.834Z" fill="#E0E0E0"/>
<path d="M728.728 197V212.2H750.978C749.648 216.931 746.728 221.085 742.691 223.988C738.653 226.892 733.733 228.376 728.728 228.2C724.751 228.187 720.837 227.233 717.317 225.42C713.798 223.607 710.777 220.989 708.511 217.787C706.246 214.585 704.803 210.894 704.306 207.029C703.808 203.163 704.27 199.238 705.653 195.585C707.036 191.932 709.298 188.66 712.248 186.047C715.198 183.435 718.748 181.559 722.596 180.579C726.445 179.598 730.478 179.543 734.353 180.417C738.228 181.291 741.83 183.069 744.854 185.6L756.285 174.4C751.381 170.032 745.465 166.9 739.049 165.274C732.633 163.648 725.909 163.577 719.458 165.067C713.008 166.557 707.024 169.563 702.025 173.826C697.026 178.088 693.161 183.479 690.764 189.533C688.367 195.587 687.51 202.121 688.268 208.572C689.025 215.023 691.374 221.196 695.112 226.558C698.849 231.921 703.863 236.311 709.72 239.35C715.577 242.388 722.1 243.984 728.728 244C763.021 244 770.574 212.6 767.308 197H728.728Z" fill="#E0E0E0"/>
<path d="M940.111 28.7499L940.417 46.375H940.263L935.068 28.7499H926.51V50.9497H932.164L931.859 32.7253H932.012L937.589 50.9497H945.765V28.7499H940.111ZM832.451 28.7499L828.172 51.1755H834.361L837.494 30.7752H837.647L840.703 51.1748H846.816L842.613 28.7499H832.451ZM866.987 28.7499L864.161 45.8501H864.007L861.181 28.7499H851.859L851.4 51.1755H857.131L857.284 30.9997H857.36L861.18 51.1748H866.987L870.808 31.0003H870.961L871.113 51.1748H876.844L876.309 28.7499H866.987ZM818.545 44.7999C818.773 45.3247 818.697 46.0753 818.621 46.4502C818.468 47.2001 817.933 47.95 816.405 47.95C814.953 47.95 814.113 47.1255 814.113 45.9247V43.7502H808V45.4752C808 50.5002 812.049 52 816.329 52C820.455 52 823.893 50.5748 824.428 46.8998C824.733 44.9497 824.504 43.675 824.428 43.2248C823.358 38.5002 814.648 37.1502 814.036 34.5248C813.96 34.0746 813.96 33.625 814.036 33.3247C814.189 32.5748 814.724 31.8248 816.099 31.8248C817.475 31.8248 818.239 32.6494 818.239 33.8501V35.2001H823.969V33.625C823.969 28.7499 819.461 28 816.252 28C812.203 28 808.841 29.35 808.229 32.9497C808.076 33.9247 808 34.8252 808.305 35.95C809.223 40.6001 817.399 41.95 818.545 44.7999ZM892.891 44.7999C893.119 45.3253 893.043 46 892.967 46.4502C892.813 47.2001 892.279 47.95 890.751 47.95C889.299 47.95 888.459 47.1255 888.459 45.9247V43.7502H882.345V45.4752C882.345 50.4249 886.319 51.9254 890.598 51.9254C894.724 51.9254 898.086 50.5754 898.621 46.8252C898.927 44.8751 898.697 43.675 898.621 43.1502C897.704 38.5002 889.069 37.0749 888.459 34.5255C888.382 34.0753 888.382 33.625 888.459 33.3247C888.611 32.5748 889.146 31.8248 890.521 31.8248C891.82 31.8248 892.661 32.6494 892.661 33.8501V35.2001H898.315V33.625C898.315 28.7499 893.883 28 890.675 28C886.625 28 883.339 29.2747 882.728 32.9497C882.575 33.9247 882.575 34.8252 882.804 35.95C883.721 40.6001 891.744 41.8748 892.891 44.7999ZM912.145 47.8002C913.75 47.8002 914.208 46.7499 914.361 46.1499C914.437 45.9254 914.437 45.5498 914.437 45.3253V28.7499H920.244V44.8751C920.244 45.3253 920.244 46.1499 920.168 46.375C919.786 50.5754 916.424 51.9254 912.221 51.9254C908.019 51.9254 904.657 50.5754 904.275 46.375C904.275 46.1499 904.199 45.3253 904.199 44.8751V28.7499H910.005V45.3253C910.005 45.625 910.005 45.9247 910.082 46.1499C910.082 46.7499 910.541 47.8002 912.145 47.8002ZM959.824 47.5751C961.505 47.5751 962.04 46.5248 962.193 45.9247C962.269 45.7003 962.269 45.3247 962.269 45.1002V41.8748H959.901V38.5748H968V44.5754C968 45.025 968 45.3247 967.923 46.0753C967.541 50.1998 963.95 51.625 959.901 51.625C955.851 51.625 952.26 50.1998 951.878 46.0753C951.801 45.3247 951.801 45.025 951.801 44.5748V35.1255C951.801 34.7499 951.878 34 951.878 33.625C952.413 29.4246 955.851 28.0746 959.901 28.0746C963.95 28.0746 967.465 29.4246 967.923 33.625C968 34.2997 968 35.1249 968 35.1249V35.8748H962.269V34.6001C962.269 34.6001 962.269 34.0746 962.193 33.7749C962.117 33.2501 961.658 32.1252 959.901 32.1252C958.22 32.1252 957.761 33.1748 957.609 33.7749C957.532 34.0746 957.532 34.4502 957.532 34.8252V45.1002C957.532 45.3999 957.532 45.6996 957.609 45.9247C957.609 46.5248 958.22 47.5751 959.824 47.5751Z" fill="#E0E0E0"/>
<path d="M612.886 48.671V31.0815H616.948V45.0911H624.083V48.6585H612.886V48.671ZM580.269 37.7063L590.204 30.0641C591.141 30.819 592.066 31.5865 593.004 32.3565L583.577 39.4913L585.621 41.2762L595.036 33.8814C595.974 34.6489 596.911 35.4189 597.849 36.1864C594.724 38.6613 591.574 41.1212 588.421 43.5686L590.454 45.3536L599.894 37.7113L599.881 31.084H603.956V45.0936H611.351V48.661H600.141V42.0462C596.821 44.5861 593.514 47.136 590.206 49.676L580.272 42.0462C579.789 44.4686 578.097 46.5785 575.897 47.6835C574.947 48.1785 573.904 48.491 572.849 48.6085C572.237 48.686 571.624 48.661 571.014 48.661H564.725V31.084H571.977C573.864 31.109 575.702 31.7615 577.184 32.9465C578.694 34.1439 579.774 35.8489 580.269 37.7113V37.7063ZM568.552 34.6464V45.3486H571.729C573.084 45.2961 574.347 44.6586 575.179 43.6036C576.612 41.8062 576.847 39.3338 575.792 37.3013C575.127 36.0264 573.942 35.0889 572.537 34.7489C571.977 34.6189 571.404 34.6439 570.844 34.6439L568.552 34.6464ZM592.404 0H593.524C599.814 0.0774976 605.983 1.65245 611.543 4.56986C616.973 7.43477 621.673 11.4846 625.293 16.432C630.188 23.0993 632.883 31.1315 633 39.4013V40.5987C632.87 50.5584 629.028 60.1156 622.218 67.3829C614.796 75.3002 604.458 79.8575 593.611 80H592.401C587.674 79.935 583.002 79.0225 578.587 77.3176C573.209 75.2202 568.352 71.9928 564.342 67.8654C560.045 63.438 556.817 58.1007 554.915 52.2409C553.705 48.4785 553.065 44.5586 553 40.6012V39.4038C553.13 31.814 555.435 24.4042 559.64 18.0894C563.572 12.1521 568.975 7.35977 575.342 4.18237C580.642 1.52495 586.474 0.094997 592.399 0.00249992L592.404 0ZM591.896 4.10237C584.072 4.32487 576.544 7.10978 570.464 12.0196C565.477 16.0295 561.662 21.2893 559.397 27.2666C556.102 36.0289 556.337 45.7286 560.035 54.3233C562.6 60.2081 566.675 65.2855 571.857 69.0628C576.569 72.5002 582.039 74.7277 587.806 75.5476C592.664 76.2501 597.664 75.9651 602.403 74.6877C608.888 72.9302 614.748 69.4003 619.318 64.4805C623.888 59.5706 626.988 53.4658 628.263 46.876C629.265 41.7062 629.123 36.3814 627.86 31.2765C624.878 19.2969 615.933 9.6897 604.201 5.84732C600.229 4.55736 596.064 3.95988 591.896 4.10237Z" fill="#E0E0E0"/>
<path d="M519.402 205.799C519.402 208.921 517.244 211.213 514.274 211.213C511.355 211.213 509.071 208.84 509.071 205.799C509.071 202.614 511.229 200.378 514.199 200.378C517.118 200.378 519.402 202.757 519.402 205.799ZM429.4 200.053C428.612 200.026 427.83 200.186 427.118 200.52C426.406 200.853 425.784 201.35 425.304 201.97C424.342 203.304 423.953 204.961 424.221 206.579L433.527 202.745C433.182 201.943 432.606 201.261 431.872 200.783C431.138 200.305 430.278 200.053 429.4 200.059V200.053ZM473.208 200.378C470.239 200.378 468.074 202.614 468.074 205.799C468.074 208.834 470.365 211.213 473.284 211.213C476.254 211.213 478.412 208.915 478.412 205.799C478.412 202.757 476.128 200.378 473.208 200.378ZM538 179V229H387V179H538ZM418.521 210.558H406.429V190.416H401.03V215.416H418.521V210.558ZM425.675 209.971L439.284 204.368C439.041 202.394 438.233 200.53 436.956 198.998C435.169 196.937 432.527 195.844 429.305 195.844C423.448 195.844 419.031 200.128 419.031 205.792C419.031 211.601 423.46 215.741 429.89 215.741C433.489 215.741 437.176 214.042 438.9 212.063L435.534 209.496C433.288 211.145 432.011 211.532 429.966 211.532C428.129 211.532 426.694 210.97 425.675 209.971ZM460.719 203.482C460.719 199.054 457.53 195.844 452.842 195.844C451.622 195.849 450.418 196.129 449.323 196.663C448.227 197.198 447.269 197.973 446.519 198.929V196.168H441.196V215.41H446.519V204.462C446.519 202.489 448.061 200.396 450.911 200.396C453.113 200.396 455.39 201.914 455.39 204.462V215.41H460.719V203.482ZM483.665 205.792C483.665 200.147 479.104 195.844 473.284 195.844C467.414 195.844 462.821 200.215 462.821 205.792C462.821 211.432 467.389 215.735 473.208 215.735C479.072 215.735 483.665 211.363 483.665 205.792ZM496.664 215.41L504.642 196.168H498.558L493.744 209.277L488.931 196.162H482.854L490.831 215.404L496.664 215.41ZM524.655 205.792C524.655 200.147 520.094 195.844 514.274 195.844C508.41 195.844 503.817 200.215 503.817 205.792C503.817 211.432 508.379 215.735 514.199 215.735C520.062 215.735 524.655 211.363 524.655 205.792Z" fill="#E0E0E0"/>
</svg>
