<svg width="90" height="90" viewBox="0 0 90 90" fill="none" xmlns="http://www.w3.org/2000/svg">
<path d="M41.25 0V11.25H48.75V0H41.25ZM15.835 10.5322L10.5322 15.835L18.4863 23.7891L23.7891 18.4863L15.835 10.5322ZM74.165 10.5322L66.2109 18.4863L71.5137 23.7891L79.4678 15.835L74.165 10.5322ZM45 18.75C30.525 18.75 18.75 30.525 18.75 45C18.75 55.4437 24.8962 64.4567 33.75 68.6792V78.75C33.75 82.8863 37.1138 86.25 41.25 86.25H48.75C52.8862 86.25 56.25 82.8863 56.25 78.75V68.6792C65.1038 64.4567 71.25 55.4437 71.25 45C71.25 30.525 59.475 18.75 45 18.75ZM0 41.25V48.75H11.25V41.25H0ZM78.75 41.25V48.75H90V41.25H78.75ZM18.4863 66.2109L10.5322 74.165L15.835 79.4678L23.7891 71.5137L18.4863 66.2109ZM71.5137 66.2109L66.2109 71.5137L74.165 79.4678L79.4678 74.165L71.5137 66.2109Z" fill="#EAEDFA"/>
</svg>
