<svg width="29" height="29" viewBox="0 0 29 29" fill="none" xmlns="http://www.w3.org/2000/svg">
<path d="M14.5 2.62048C18.3434 2.62048 18.8675 2.62048 20.4398 2.62048C21.8374 2.62048 22.5361 2.96988 23.0602 3.14458C23.759 3.49398 24.2831 3.66868 24.8072 4.19277C25.3313 4.71687 25.6807 5.24096 25.8554 5.93976C26.0301 6.46386 26.2048 7.16265 26.3795 8.56024C26.3795 10.1325 26.3795 10.4819 26.3795 14.5C26.3795 18.5181 26.3795 18.8675 26.3795 20.4398C26.3795 21.8374 26.0301 22.5361 25.8554 23.0602C25.506 23.759 25.3313 24.2831 24.8072 24.8072C24.2831 25.3313 23.759 25.6807 23.0602 25.8554C22.5361 26.0301 21.8374 26.2048 20.4398 26.3795C18.8675 26.3795 18.5181 26.3795 14.5 26.3795C10.4819 26.3795 10.1325 26.3795 8.56024 26.3795C7.16265 26.3795 6.46386 26.0301 5.93976 25.8554C5.24096 25.506 4.71687 25.3313 4.19277 24.8072C3.66868 24.2831 3.31928 23.759 3.14458 23.0602C2.96988 22.5361 2.79518 21.8374 2.62048 20.4398C2.62048 18.8675 2.62048 18.5181 2.62048 14.5C2.62048 10.4819 2.62048 10.1325 2.62048 8.56024C2.62048 7.16265 2.96988 6.46386 3.14458 5.93976C3.49398 5.24096 3.66868 4.71687 4.19277 4.19277C4.71687 3.66868 5.24096 3.31928 5.93976 3.14458C6.46386 2.96988 7.16265 2.79518 8.56024 2.62048C10.1325 2.62048 10.6566 2.62048 14.5 2.62048ZM14.5 0C10.4819 0 10.1325 0 8.56024 0C6.98795 0 5.93976 0.349399 5.06627 0.698796C4.19277 1.04819 3.31928 1.57229 2.44578 2.44578C1.57229 3.31928 1.22289 4.01807 0.698796 5.06627C0.349399 5.93976 0.174699 6.98795 0 8.56024C0 10.1325 0 10.6566 0 14.5C0 18.5181 0 18.8675 0 20.4398C0 22.012 0.349399 23.0602 0.698796 23.9337C1.04819 24.8072 1.57229 25.6807 2.44578 26.5542C3.31928 27.4277 4.01807 27.7771 5.06627 28.3012C5.93976 28.6506 6.98795 28.8253 8.56024 29C10.1325 29 10.6566 29 14.5 29C18.3434 29 18.8675 29 20.4398 29C22.012 29 23.0602 28.6506 23.9337 28.3012C24.8072 27.9518 25.6807 27.4277 26.5542 26.5542C27.4277 25.6807 27.7771 24.9819 28.3012 23.9337C28.6506 23.0602 28.8253 22.012 29 20.4398C29 18.8675 29 18.3434 29 14.5C29 10.6566 29 10.1325 29 8.56024C29 6.98795 28.6506 5.93976 28.3012 5.06627C27.9518 4.19277 27.4277 3.31928 26.5542 2.44578C25.6807 1.57229 24.9819 1.22289 23.9337 0.698796C23.0602 0.349399 22.012 0.174699 20.4398 0C18.8675 0 18.5181 0 14.5 0Z" fill="white"/>
<path d="M14.5 6.98795C10.3072 6.98795 6.98795 10.3072 6.98795 14.5C6.98795 18.6928 10.3072 22.012 14.5 22.012C18.6928 22.012 22.012 18.6928 22.012 14.5C22.012 10.3072 18.6928 6.98795 14.5 6.98795ZM14.5 19.3916C11.8795 19.3916 9.60843 17.2952 9.60843 14.5C9.60843 11.8795 11.7048 9.60843 14.5 9.60843C17.1205 9.60843 19.3916 11.7048 19.3916 14.5C19.3916 17.1205 17.1205 19.3916 14.5 19.3916Z" fill="white"/>
<path d="M22.1867 8.56024C23.1516 8.56024 23.9337 7.77809 23.9337 6.81325C23.9337 5.84842 23.1516 5.06627 22.1867 5.06627C21.2219 5.06627 20.4398 5.84842 20.4398 6.81325C20.4398 7.77809 21.2219 8.56024 22.1867 8.56024Z" fill="white"/>
</svg>
