<svg width="230" height="277" viewBox="0 0 230 277" fill="none" xmlns="http://www.w3.org/2000/svg">
<path d="M99.9499 81.7257C112.316 74.7666 137.658 29.7028 149.124 15.6021C149.734 14.8517 150.877 15.3848 150.795 16.3486C148.251 46.3841 168.828 82.4816 182.973 104.892C192.86 120.556 204.58 135.223 216.291 149.208C219.966 153.596 254.832 177.766 246.198 179.677C225.315 184.298 201.917 183.424 180.181 187.936C158.317 192.473 134.675 214.556 118.762 230.95C114.036 235.82 106.052 260.995 102.284 261.829C97.1576 262.964 94.8746 238.473 94.803 235.888C94.3562 219.737 92.3988 205.825 88.4329 190.281C83.4521 170.76 87.8888 167.733 62.3442 150.206C20.966 121.817 -15.5518 116.695 57.019 108.895C72.5909 101.13 84.8987 90.1958 99.9499 81.7257Z" stroke="#9CA9E6" stroke-width="30" stroke-linecap="round"/>
</svg>
