<svg width="667" height="448" viewBox="0 0 667 448" fill="none" xmlns="http://www.w3.org/2000/svg">
<path d="M240.889 64.521C239.851 59.688 235.585 56.0735 230.48 56.0735C228.849 56.0735 227.322 56.4543 225.94 57.1021C224.564 52.8166 220.587 49.7066 215.871 49.6779C215.509 41.794 209.068 35.5085 201.154 35.5085C193.809 35.5085 187.724 40.9186 186.596 47.9979C186.539 48.3527 186.094 48.471 185.869 48.1914C183.239 44.9156 179.223 42.8163 174.715 42.8163C166.845 42.8163 160.463 49.1994 160.372 57.1066C158.996 56.4543 157.479 56.0744 155.862 56.0744C150.739 56.0744 146.456 59.7229 145.435 64.5828C145.435 64.5811 237.286 64.5246 240.889 64.521Z" fill="white" stroke="#FC7E72" stroke-width="1.5" stroke-miterlimit="10" stroke-linecap="round" stroke-linejoin="round"/>
<path d="M41.6436 80.4081C42.3933 76.9191 45.4721 74.3108 49.1575 74.3108C50.335 74.3108 51.4369 74.585 52.4347 75.0536C53.4272 71.9606 56.298 69.7161 59.7033 69.6946C59.9647 64.0032 64.6133 59.4668 70.3263 59.4668C75.6277 59.4668 80.0201 63.3716 80.8347 68.4815C80.8756 68.7377 81.1967 68.8228 81.3594 68.6212C83.2581 66.2567 86.1565 64.7415 89.4105 64.7415C95.0907 64.7415 99.6975 69.3488 99.7633 75.0563C100.756 74.5859 101.851 74.3117 103.018 74.3117C106.716 74.3117 109.807 76.9451 110.545 80.4529C110.543 80.452 44.244 80.4108 41.6436 80.4081Z" fill="white" stroke="#FC7E72" stroke-width="1.5" stroke-miterlimit="10" stroke-linecap="round" stroke-linejoin="round"/>
<path d="M477.971 199.508C478.047 172.102 469.789 164.589 453.678 165.066C434.382 165.637 377.193 172.479 377.193 172.479L352.147 173.32C351.294 190.319 353.215 211.888 370.964 215.679C380.806 217.781 393.081 215.33 412.241 209.906C431.401 204.483 442.384 201.374 442.384 201.374C438.118 218.905 444.116 233.345 446.396 251.582C448.808 270.87 449.158 276.976 448.91 286.393C448.793 290.871 449.884 297.783 455.85 301.068C456.705 301.539 457.686 301.713 458.648 301.876C479.611 305.426 498.814 305.216 520.067 304.813C521.433 304.787 527.047 303.995 527.291 302.64C527.413 301.968 526.118 298.896 525.737 298.331C523.229 294.623 519.295 294.995 514.592 293.506C507.8 291.356 502.509 288.733 496.195 285.424C490.887 282.641 488.425 282.138 482.904 278.105C479.873 275.891 476.975 271.851 476.53 260.095C475.966 245.201 477.91 220.835 477.971 199.508Z" fill="#FFCCCC"/>
<path d="M447.626 261.875C445.302 262.391 444.878 264.671 445.822 269.886C448.211 283.079 446.501 289.451 446.467 292.635C446.432 295.82 443.303 309.803 450.238 312.053C457.173 314.303 470.827 312.578 484.673 312.376C498.518 312.175 515.09 310.462 520.501 310.105C528.859 309.553 528.551 300.263 524.295 296.736C520.038 293.21 509.442 293.092 500.711 287.746C491.979 282.4 483.56 277.928 481.226 274.014C478.893 270.101 479.128 268.523 478.673 264.536C478.48 262.851 479.072 260.573 476.532 260.095C476.4 261.076 476.313 262.084 476.269 263.118C476.269 263.118 474.835 267.675 462.349 268.111C450.275 268.533 447.961 264.956 447.961 264.956L447.626 261.875Z" fill="#303030"/>
<path d="M516.709 292.222C510.865 290.883 507.494 289.712 502.391 286.959C496.48 283.77 485.873 275.786 483.451 273.889C480.299 271.418 472.689 272.093 469.18 277.605C467.892 277.068 466.527 276.653 465.186 276.952C463.91 277.237 462.862 278.125 461.872 278.984C460.03 280.58 457.366 284.014 452.943 284.009C448.553 284.004 447.033 278.927 447.033 278.927L446.522 274.395C442.882 275.941 443.387 277.364 443.905 280.132C444.361 282.561 444.279 286.894 444.056 290.438C443.804 294.464 443.571 298.796 443.748 305.773C444.635 310.687 449.599 311.424 457.224 311.159C467.032 310.819 500.171 309.667 500.171 309.667C507.204 309.423 518.093 309.045 522.339 308.897C526.586 308.749 529.774 305.176 529.647 303.695C529.085 297.166 526.314 294.421 516.709 292.222Z" fill="#E85E50"/>
<path d="M494.737 295.969C497.487 292.135 503.511 288.382 508.984 290.014" stroke="#303030" stroke-width="1.5" stroke-miterlimit="10" stroke-linecap="round" stroke-linejoin="round"/>
<path d="M499.661 285.364C497.135 286.871 495.753 288.73 494.106 291.709" stroke="#303030" stroke-width="1.5" stroke-miterlimit="10" stroke-linecap="round" stroke-linejoin="round"/>
<path d="M502.391 286.959C499.073 286.93 494.421 288.054 486.559 289.672" stroke="#303030" stroke-width="1.5" stroke-miterlimit="10" stroke-linecap="round" stroke-linejoin="round"/>
<path d="M492.981 281.196C490.454 282.703 489.285 284.183 487.639 287.162" stroke="#303030" stroke-width="1.5" stroke-miterlimit="10" stroke-linecap="round" stroke-linejoin="round"/>
<path d="M495.71 282.792C492.393 282.763 487.741 283.887 479.878 285.504" stroke="#303030" stroke-width="1.5" stroke-miterlimit="10" stroke-linecap="round" stroke-linejoin="round"/>
<path d="M486.414 276.32C483.887 277.827 482.391 280.395 480.745 283.374" stroke="#303030" stroke-width="1.5" stroke-miterlimit="10" stroke-linecap="round" stroke-linejoin="round"/>
<path d="M489.028 278.624C485.711 278.594 481.059 279.719 473.196 281.337" stroke="#303030" stroke-width="1.5" stroke-miterlimit="10" stroke-linecap="round" stroke-linejoin="round"/>
<path d="M444.332 290.364C445.11 291.391 446.076 292.245 447.294 292.824C449.729 293.985 452.619 294.14 455.163 293.245C459.171 291.835 462.163 288.028 466.341 287.271C469.38 286.721 472.442 287.907 475.261 289.177C480.469 291.523 488.665 295.956 489.756 297.519C490.847 299.082 491.862 304.051 492.842 308.84" stroke="#303030" stroke-width="1.5" stroke-miterlimit="10" stroke-linecap="round" stroke-linejoin="round"/>
<path d="M527.07 313.699C523.33 314.856 502.465 315.435 502.465 315.435C502.465 315.435 467.773 316.64 459.836 316.916C451.901 317.192 447.668 317.085 445.548 314.333C444.299 312.71 443.55 310.059 443.747 305.772C447.144 308.588 446.33 309.449 459.89 308.977C473.448 308.506 506.543 307.462 513.727 307.107C518.731 306.859 526.534 307.267 529.645 303.693C530.884 305.245 532.773 311.935 527.07 313.699Z" fill="white" stroke="#303030" stroke-width="1.5" stroke-miterlimit="10" stroke-linecap="round" stroke-linejoin="round"/>
<path d="M351.264 171.862L417.412 165.532L423.373 164.851C423.373 164.851 454.392 159.614 467.103 166.574C475.153 170.981 479.752 182.852 479.534 192.667C479.317 202.482 479.857 220.073 480.346 226.612C480.836 233.15 482.19 236.111 476.714 240.268C471.239 244.425 455.827 247.229 445.163 243.596C438.871 241.454 439.999 232.69 439.038 223.657C437.941 213.357 437.604 207.48 437.604 207.48C437.604 207.48 416.78 216.028 405.753 216.399L377.651 217.343C360.595 217.914 346.302 203.175 351.264 171.862Z" fill="#909AC9"/>
<path d="M443.767 186.058C440.49 192.762 438.394 200.049 437.604 207.48" stroke="#303030" stroke-width="1.5" stroke-miterlimit="10" stroke-linecap="round" stroke-linejoin="round"/>
<path d="M476.714 240.267L476.479 248.83C471.003 252.987 457.06 255.214 446.396 251.582L445.162 243.596C455.826 247.228 471.237 244.425 476.714 240.267Z" fill="#303030"/>
<path d="M185.098 361.084C184.837 361.084 184.583 361.114 184.325 361.124C182.892 361.158 181.471 361.37 180.082 361.739C179.993 361.762 179.904 361.784 179.814 361.815C177.06 362.619 174.179 361.462 172.709 359.137C172.388 358.641 172.142 358.085 171.963 357.483C170.985 354.107 172.911 350.565 176.262 349.581L228.939 334.068L220.378 304.57L160.843 322.098C158.088 322.902 155.208 321.737 153.738 319.42C153.417 318.924 153.17 318.368 152.999 317.766C152.021 314.39 153.947 310.848 157.298 309.864L158.253 309.578C158.402 309.533 158.559 309.487 158.708 309.443C159.783 309.097 160.835 308.607 161.828 307.969C167.881 304.058 169.65 295.945 165.769 289.84C161.888 283.742 153.835 281.96 147.774 285.87C146.751 286.532 145.856 287.306 145.087 288.179C144.878 287.773 144.654 287.389 144.408 286.998C139.22 278.847 128.458 276.471 120.36 281.697C113.397 286.186 110.688 294.833 113.359 302.361C107.128 301.804 100.664 303.248 94.9919 306.91C81.3638 315.707 77.3929 333.971 86.1253 347.71C89.1401 352.447 93.2675 356.018 97.9321 358.319C92.1781 362.779 90.6778 371.005 94.6629 377.275C97.8796 382.343 103.761 384.659 109.292 383.554C109.329 389.863 111.091 396.232 114.71 401.931C124.92 417.985 146.116 422.67 162.058 412.383C167.839 408.653 172.109 403.447 174.746 397.582C177.752 399.474 181.293 400.584 185.098 400.584C195.924 400.584 204.701 391.742 204.701 380.834C204.701 369.927 195.925 361.084 185.098 361.084Z" fill="#FC7E72"/>
<path d="M129.671 303.175C133.684 303.175 136.938 299.897 136.938 295.854C136.938 291.81 133.684 288.532 129.671 288.532C125.658 288.532 122.404 291.81 122.404 295.854C122.404 299.897 125.658 303.175 129.671 303.175Z" fill="white"/>
<path d="M180.732 377.44C180.732 382.17 176.925 385.997 172.238 385.997C171.096 385.997 169.999 385.771 169.007 385.358C166.925 397.517 156.408 406.773 143.735 406.773C129.577 406.773 118.098 395.208 118.098 380.944C118.098 379.395 118.233 377.883 118.494 376.41C117.061 377.072 115.471 377.441 113.792 377.441C107.553 377.441 102.492 372.343 102.492 366.056C102.492 360.65 106.232 356.123 111.254 354.965C102.731 351.574 96.7002 343.197 96.7002 333.4C96.7002 320.602 107 310.225 119.71 310.225C128.972 310.225 136.958 315.744 140.6 323.691C141.414 323.383 142.302 323.21 143.227 323.21C147.37 323.21 150.721 326.594 150.721 330.767C150.721 331.632 150.58 332.459 150.311 333.226L208.28 316.157L212.257 329.865L159.961 345.264C162.215 346.565 163.737 349.017 163.737 351.829C163.737 355.506 161.125 358.574 157.662 359.243C161.849 361.98 165.193 365.905 167.215 370.544C168.619 369.499 170.357 368.882 172.238 368.882C176.925 368.883 180.732 372.71 180.732 377.44Z" fill="white"/>
<path d="M252.659 339.396L220.447 353.728C209.871 356.842 191.63 293.951 202.206 290.837L237.011 285.44L252.659 339.396Z" fill="#909AC9" stroke="#303030" stroke-width="1.5" stroke-miterlimit="10" stroke-linecap="round" stroke-linejoin="round"/>
<path d="M232.466 348.381C224.191 332.856 216.517 306.395 215.192 288.824L237.011 285.44L252.66 339.396L232.466 348.381Z" fill="#303030" stroke="#303030" stroke-width="1.5" stroke-miterlimit="10" stroke-linecap="round" stroke-linejoin="round"/>
<path d="M225.394 269.534C276.428 249.976 389.429 207.488 438.839 195.432C485.059 184.153 542.61 192.923 593.025 209.911C559.621 251.575 515.812 290.186 470.837 305.755C422.756 322.399 304.829 347.899 251.372 359.102C236.309 363.536 210.331 273.968 225.394 269.534Z" fill="white" stroke="#303030" stroke-width="1.5" stroke-miterlimit="10" stroke-linecap="round" stroke-linejoin="round"/>
<path d="M401.344 325.268C382.482 329.88 351.61 222.99 369.851 216.686" stroke="#303030" stroke-width="1.5" stroke-miterlimit="10" stroke-linecap="round" stroke-linejoin="round"/>
<path d="M534.454 227.154C531.202 215.942 529.799 204.774 530.033 194.191C551.384 197.597 572.779 203.088 593.025 209.91C579.611 226.641 564.517 242.877 548.345 257.328C542.491 248.537 537.705 238.366 534.454 227.154Z" fill="#909AC9" stroke="#303030" stroke-width="1.5" stroke-miterlimit="10" stroke-linecap="round" stroke-linejoin="round"/>
<path d="M548.344 257.328C542.491 248.537 537.705 238.365 534.453 227.154C532.946 221.958 531.853 216.774 531.119 211.65C531.465 213.131 535.063 227.412 546.129 232.103C557.805 237.054 570.398 226.931 593.024 209.909C579.61 226.642 564.515 242.877 548.344 257.328Z" fill="#303030"/>
<path d="M485.369 245.464C485.067 244.426 483.884 240.347 483.583 239.309C478.114 220.453 458.508 209.633 439.792 215.143C421.076 220.653 410.338 240.406 415.806 259.262C416.108 260.3 417.29 264.379 417.592 265.417C423.061 284.274 442.667 295.093 461.383 289.583C480.099 284.074 490.837 264.321 485.369 245.464Z" fill="#303030" stroke="#303030" stroke-width="1.5" stroke-miterlimit="10" stroke-linecap="round" stroke-linejoin="round"/>
<path d="M480.676 266.354C490.043 249.124 483.773 227.505 466.67 218.067C449.568 208.63 428.11 214.948 418.743 232.178C409.376 249.409 415.646 271.028 432.749 280.465C449.851 289.902 471.309 283.585 480.676 266.354Z" fill="#E85E50" stroke="#303030" stroke-width="1.5" stroke-miterlimit="10" stroke-linecap="round" stroke-linejoin="round"/>
<path d="M460.425 271.404C472.547 265.422 477.56 250.672 471.622 238.459C465.683 226.246 451.043 221.196 438.921 227.178C426.799 233.161 421.786 247.911 427.724 260.124C433.663 272.336 448.303 277.387 460.425 271.404Z" fill="#303030" stroke="#303030" stroke-width="1.5" stroke-miterlimit="10" stroke-linecap="round" stroke-linejoin="round"/>
<path d="M473.524 243.94C469.156 231.84 456.173 225.064 443.732 228.727C431.291 232.39 423.972 245.143 426.758 257.708C431.125 269.809 444.109 276.584 456.55 272.921C468.991 269.259 476.311 256.507 473.524 243.94Z" fill="#FC7E72" stroke="#303030" stroke-width="1.5" stroke-miterlimit="10" stroke-linecap="round" stroke-linejoin="round"/>
<path d="M437.046 246.373L456.462 261.582" stroke="white" stroke-width="1.5" stroke-miterlimit="10" stroke-linecap="round" stroke-linejoin="round"/>
<path d="M440.83 238.769L466.127 258.584" stroke="white" stroke-width="1.5" stroke-miterlimit="10" stroke-linecap="round" stroke-linejoin="round"/>
<path d="M334.651 285.976L321.737 299.43C317.115 304.244 311.133 307.505 304.604 308.769L166.386 335.513L297.151 283.069C303.327 280.592 310.112 280.095 316.579 281.645L334.651 285.976Z" fill="#E85E50" stroke="#303030" stroke-width="1.5" stroke-miterlimit="10" stroke-linecap="round" stroke-linejoin="round"/>
<path d="M321.736 299.429C317.114 304.244 311.132 307.505 304.603 308.768L166.385 335.513L334.65 285.975L321.736 299.429Z" fill="#303030" stroke="#303030" stroke-width="1.5" stroke-miterlimit="10" stroke-linecap="round" stroke-linejoin="round"/>
<path d="M183.479 394.452L328.538 386.393L356.091 336.103L309.176 346.726L306.232 365.358L183.479 394.452Z" fill="#303030" stroke="#303030" stroke-width="1.5" stroke-miterlimit="10" stroke-linecap="round" stroke-linejoin="round"/>
<path d="M149.288 276.566L275.83 204.666L325.926 232.096L280.715 248.595L268.276 234.492L149.288 276.566Z" fill="#E85E50" stroke="#303030" stroke-width="1.5" stroke-miterlimit="10" stroke-linecap="round" stroke-linejoin="round"/>
<path d="M424.597 251.05C432.556 224.844 426.814 215.241 411.258 210.992C392.626 205.902 335.926 195.746 335.926 195.746L311.713 189.235C306.006 205.255 301.637 226.459 317.533 235.272C326.347 240.157 338.801 241.398 358.699 241.803C378.597 242.209 390.002 242.442 390.002 242.442C380.875 257.974 382.459 273.546 379.393 291.665C376.151 310.829 374.73 316.775 371.783 325.716C370.381 329.967 369.437 336.9 374.201 341.787C374.884 342.488 375.773 342.941 376.646 343.378C395.687 352.898 414.125 358.306 434.582 364.128C435.896 364.503 441.498 365.384 442.122 364.159C442.431 363.552 442.076 360.233 441.874 359.581C440.54 355.299 436.669 354.506 432.596 351.707C426.714 347.666 422.405 343.611 417.315 338.598C413.034 334.384 410.823 333.185 406.7 327.712C404.437 324.708 402.826 319.995 405.784 308.613C409.53 294.195 418.402 271.444 424.597 251.05Z" fill="#FFCCCC"/>
<path d="M377.609 301.875C375.235 301.69 374.175 303.748 373.577 309.015C372.067 322.339 368.597 327.939 367.648 330.976C366.698 334.013 359.679 346.482 365.669 350.661C371.659 354.84 385.223 357.178 398.532 361.029C411.84 364.88 428.194 368.082 433.475 369.32C441.633 371.233 444.012 362.253 440.953 357.634C437.893 353.016 427.786 349.808 420.969 342.141C414.151 334.474 407.38 327.734 406.272 323.307C405.164 318.88 405.845 317.439 406.556 313.49C406.857 311.82 408.078 309.813 405.784 308.615C405.376 309.514 405.003 310.453 404.664 311.431C404.664 311.431 401.98 315.372 389.905 312.144C378.228 309.021 377.043 304.922 377.043 304.922L377.609 301.875Z" fill="#303030"/>
<path d="M434.992 351.097C429.784 348.108 426.895 346.003 422.803 341.878C418.064 337.099 410.21 326.361 408.438 323.838C406.131 320.552 398.655 318.974 393.711 323.225C392.632 322.334 391.446 321.538 390.077 321.433C388.773 321.332 387.516 321.877 386.32 322.409C384.099 323.399 380.561 325.907 376.329 324.611C372.128 323.324 372.135 318.021 372.135 318.021L372.949 313.534C369.02 313.951 369.095 315.461 368.794 318.261C368.531 320.719 367.206 324.842 365.973 328.168C364.573 331.948 363.103 336.026 361.265 342.754C360.7 347.717 365.239 349.872 372.612 351.846C382.097 354.384 414.143 362.961 414.143 362.961C420.944 364.781 431.474 367.6 435.581 368.699C439.688 369.799 443.768 367.31 444.072 365.855C445.414 359.444 443.552 356.008 434.992 351.097Z" fill="#E85E50"/>
<path d="M412.886 348.265C416.621 345.399 423.465 343.567 428.234 346.728" stroke="#303030" stroke-width="1.5" stroke-miterlimit="10" stroke-linecap="round" stroke-linejoin="round"/>
<path d="M420.65 339.553C417.799 340.258 415.941 341.634 413.508 344.004" stroke="#303030" stroke-width="1.5" stroke-miterlimit="10" stroke-linecap="round" stroke-linejoin="round"/>
<path d="M422.803 341.878C419.637 340.881 414.861 340.598 406.87 339.85" stroke="#303030" stroke-width="1.5" stroke-miterlimit="10" stroke-linecap="round" stroke-linejoin="round"/>
<path d="M415.454 333.613C412.602 334.317 411.058 335.391 408.625 337.761" stroke="#303030" stroke-width="1.5" stroke-miterlimit="10" stroke-linecap="round" stroke-linejoin="round"/>
<path d="M417.608 335.938C414.442 334.941 409.666 334.658 401.676 333.909" stroke="#303030" stroke-width="1.5" stroke-miterlimit="10" stroke-linecap="round" stroke-linejoin="round"/>
<path d="M410.574 327.029C407.722 327.733 405.552 329.754 403.119 332.125" stroke="#303030" stroke-width="1.5" stroke-miterlimit="10" stroke-linecap="round" stroke-linejoin="round"/>
<path d="M412.413 329.998C409.247 329 404.47 328.717 396.479 327.969" stroke="#303030" stroke-width="1.5" stroke-miterlimit="10" stroke-linecap="round" stroke-linejoin="round"/>
<path d="M366.259 328.179C366.708 329.388 367.386 330.488 368.385 331.399C370.382 333.22 373.104 334.213 375.796 334.099C380.036 333.921 383.997 331.152 388.213 331.648C391.279 332.009 393.869 334.039 396.201 336.078C400.51 339.845 407.078 346.48 407.672 348.296C408.266 350.11 407.809 355.163 407.368 360.033" stroke="#303030" stroke-width="1.5" stroke-miterlimit="10" stroke-linecap="round" stroke-linejoin="round"/>
<path d="M438.727 374.678C434.815 374.693 414.679 369.153 414.679 369.153C414.679 369.153 381.13 360.173 373.455 358.118C365.781 356.064 361.761 354.726 360.524 351.473C359.795 349.555 359.841 346.799 361.264 342.753C363.704 346.441 362.678 347.027 375.79 350.536C388.903 354.046 420.876 362.713 427.855 364.472C432.715 365.697 440.065 368.366 444.072 365.855C444.811 367.7 444.693 374.656 438.727 374.678Z" fill="white" stroke="#303030" stroke-width="1.5" stroke-miterlimit="10" stroke-linecap="round" stroke-linejoin="round"/>
<path d="M298.174 187.786L376.416 200.846L382.318 201.934C382.318 201.934 413.511 205.983 423.673 216.357C430.109 222.927 431.095 235.631 428.062 244.96C425.03 254.289 420.484 271.284 419.071 277.684C417.658 284.084 418.102 287.313 411.665 289.693C405.228 292.073 389.672 290.254 380.51 283.663C375.105 279.774 378.707 271.717 380.386 262.791C382.301 252.613 383.669 246.889 383.669 246.889C383.669 246.889 365.234 246.97 350.618 246.121C336.002 245.274 329.944 244.604 318.866 239.137C304.722 232.154 297.27 220.432 298.174 187.786Z" fill="#909AC9"/>
<path d="M395.732 228.187C390.667 233.646 386.564 240.008 383.669 246.888" stroke="#303030" stroke-width="1.5" stroke-miterlimit="10" stroke-linecap="round" stroke-linejoin="round"/>
<path d="M411.665 289.692L408.976 297.819C402.539 300.198 388.554 298.257 379.393 291.666L380.51 283.662C389.672 290.253 405.228 292.072 411.665 289.692Z" fill="#303030"/>
<path d="M379.148 203.892C381.03 193.156 381.095 171.915 381.095 171.915L300.053 161.633C300.053 161.633 298.175 176.942 298.175 187.786L379.148 203.892Z" fill="#909AC9"/>
<path d="M336.003 193.97C353.535 196.816 378.017 199.495 414.898 210.156" stroke="#303030" stroke-width="1.5" stroke-miterlimit="10" stroke-linecap="round" stroke-linejoin="round"/>
<path d="M380.236 186.426C380.084 191.839 379.928 196.253 378.787 201.283" stroke="#303030" stroke-width="1.5" stroke-miterlimit="10" stroke-linecap="round" stroke-linejoin="round"/>
<path d="M489.071 44.0571C487.273 44.6279 485.883 45.4889 482.348 47.4046C479.543 48.9242 477.679 49.9573 473.452 52.0082C472.019 52.7035 469.381 53.6712 467.91 54.3208C465.21 55.5143 462.794 57.998 459.783 60.4951C457.041 62.7692 455.336 64.8443 451.42 66.8594C442.854 71.266 432.881 75.1134 423.844 78.4232C392.542 85.0661 384.72 85.179 371.466 87.8814V124.331C381.16 118.063 403.178 111.187 413.488 108.213C428.701 103.826 431.835 101.288 435.946 98.7696C441.96 95.0861 460.436 81.8773 463.214 80.4562C466.59 78.7296 470.589 81.3074 476.809 76.0291C478.775 74.3607 480.237 72.4307 480.237 72.4307C482.16 72.1503 483.204 71.6423 483.907 71.2525C485.564 70.3341 487.786 69.241 487.798 67.0333C487.8 66.6937 487.736 66.3559 487.616 66.0378C487.232 65.0038 486.544 64.2055 485.866 64.1858C486.521 63.3928 487.143 61.9278 486.683 60.6062C486.223 59.2846 485.616 58.3904 484.269 58.739C485.931 56.4676 484.423 53.7509 483.751 53.1775C484.822 52.4813 485.919 51.7708 486.369 51.4868C489.237 49.6813 490.103 49.0004 490.632 47.6348C491.241 46.0606 490.756 43.5222 489.071 44.0571Z" fill="#FFCCCC"/>
<path d="M475.839 58.6449C477.314 58.6449 479.082 57.2418 480.237 56.1541" stroke="#303030" stroke-width="1.5" stroke-miterlimit="10" stroke-linecap="round" stroke-linejoin="round"/>
<path d="M484.268 58.739C481.543 62.3221 478.506 62.7621 476.81 63.3355" stroke="#303030" stroke-width="1.5" stroke-miterlimit="10" stroke-linecap="round" stroke-linejoin="round"/>
<path d="M485.866 64.1858C483.492 66.7564 478.975 69.2697 476.481 67.6193" stroke="#303030" stroke-width="1.5" stroke-miterlimit="10" stroke-linecap="round" stroke-linejoin="round"/>
<path d="M480.539 72.1262C478.803 72.7131 475.328 72.7391 474.817 69.5278" stroke="#303030" stroke-width="1.5" stroke-miterlimit="10" stroke-linecap="round" stroke-linejoin="round"/>
<path d="M470.447 55.1667C472.01 55.9973 473.141 57.1854 474.231 58.5589C474.797 59.2739 475.318 59.8447 475.566 60.7541C475.802 61.6188 475.823 62.5166 475.808 63.4072C475.792 64.3605 475.783 65.3192 475.672 66.2672C475.599 66.8926 475.532 68.2151 474.798 68.4382C473.315 68.8889 472.339 67.0037 471.932 65.9106C471.32 64.2673 470.859 62.5103 469.313 61.496C468.591 61.0229 467.922 62.1859 468.639 62.6563C470.137 63.6383 470.349 65.7708 471.069 67.2824C471.788 68.7895 473.292 70.1675 475.078 69.7509C477.097 69.2796 477.062 66.2663 477.114 64.6446C477.179 62.6044 477.29 60.2837 475.982 58.5759C474.607 56.7822 473.139 55.0798 471.121 54.0063C470.362 53.6023 469.687 54.7617 470.447 55.1667Z" fill="#303030"/>
<path d="M470.727 66.3175C470.713 68.0387 469.933 69.6676 468.633 70.7795C467.174 72.0286 465.209 72.309 463.391 71.8395C462.558 71.6245 462.204 72.921 463.036 73.136C465.311 73.7238 467.668 73.3125 469.498 71.7965C471.103 70.4668 472.044 68.4024 472.061 66.3175C472.069 65.4519 470.735 65.451 470.727 66.3175Z" fill="#303030"/>
<path d="M366.975 86.7972C376.543 85.5007 403.794 82.0591 410.743 81.3074C416.803 94.2608 413.654 106.99 410.587 112.066C398.415 115.719 392.796 116.951 385.697 121.306C379.214 125.282 366.975 135.859 366.975 135.859V86.7972Z" fill="#909AC9" stroke="#303030" stroke-width="1.5" stroke-miterlimit="10" stroke-linecap="round" stroke-linejoin="round"/>
<path d="M324.633 51.3722C325.25 62.4567 335.384 74.0196 346.903 73.3682C358.422 72.7168 366.965 60.0975 366.348 49.0131C365.731 37.9287 355.892 29.4713 344.373 30.1218C332.853 30.7741 324.016 40.2878 324.633 51.3722Z" fill="#303030"/>
<path d="M330.78 58.9111C329.04 59.1826 327.545 58.9013 326.046 57.8897C324.39 56.7697 323.769 53.8514 324.028 52.3103C323.338 52.5002 322.634 52.6785 321.919 52.6785C321.203 52.6794 320.464 52.4859 319.925 52.011C319.593 51.7171 319.373 51.1329 319.726 50.865C319.881 50.7468 320.09 50.7432 320.282 50.7118C321.264 50.5505 321.935 49.5721 322.131 48.5901C322.326 47.6081 322.165 46.5947 322.128 45.593C321.981 41.6058 324.27 36.1877 328.338 34.8956C329.805 34.4297 331.382 34.4422 332.909 34.6232C333.384 32.0365 334.858 29.6881 336.824 27.9561C338.791 26.2241 341.227 25.0862 343.761 24.4501C345.478 24.0191 347.268 23.8103 349.02 24.0558C352.276 24.5128 355.099 26.4723 358.119 27.7859C361.138 29.0985 364.938 29.6666 367.489 27.5744C367.94 27.2035 368.517 26.7304 369.029 27.0117C369.241 27.1273 369.371 27.3504 369.477 27.5681C370.651 29.9936 369.575 32.7963 367.672 34.5041C369.457 34.4028 371.219 34.9171 372.475 36.5469C373.66 38.0827 374.143 40.5108 374.018 42.4632C372.976 41.595 371.679 41.0413 370.335 40.8917C371.747 42.6792 372.189 45.1987 371.471 47.3652C370.908 49.065 369.647 50.5057 368.071 51.3265C367.235 51.7619 366.429 51.7512 365.545 51.9931C364.393 52.3094 363.24 52.6212 362.082 52.9187C357.453 54.1077 352.78 55.1183 348.074 55.948C345.215 56.4516 342.341 56.8109 339.475 57.2571C336.561 57.7087 333.69 58.4586 330.78 58.9111Z" fill="#303030"/>
<path d="M367.563 66.5629C367.201 63.7665 366.77 59.6216 366.738 57.0501C366.699 53.9275 366.783 52.0656 366.309 48.1053C365.612 42.2938 362.067 37.8757 362.067 37.8757C357.966 32.3966 347.361 29.4004 340.076 39.5593C335.378 40.0117 333.237 42.7293 332.669 46.4405C334.468 49.3848 336.375 52.5262 336.528 56.9434C336.679 59.9881 336.021 60.1484 334.755 58.8215C333.065 57.1065 330.607 55.7213 328.143 55.8951C324.933 56.1218 322.988 58.1683 322.665 60.5319C322.345 62.8678 324.346 65.2288 326.644 65.9966C328.942 66.7645 331.891 66.5486 333.848 65.0576C333.848 65.0576 334.113 67.8513 334.341 70.2499C334.568 72.6494 335.604 74.8133 337.39 76.3804L334.407 89.0695L328.485 90.4243C330.081 92.5962 340.31 102.685 351.36 104.431C362.41 106.177 363.794 90.3105 363.794 90.3105L357.592 88.3357L357.755 81.0288C359.109 80.915 364.335 80.3022 366.584 77.6536C368.832 75.0077 368.235 71.7481 367.563 66.5629Z" fill="#FFCCCC"/>
<path d="M358.133 68.2205C358.139 68.3245 358.141 68.4356 358.088 68.5243C358.034 68.6148 357.934 68.6658 357.838 68.707C357.276 68.9463 356.657 69.0251 356.048 69.0081C355.439 68.9902 354.836 68.8791 354.24 68.7492C353.698 68.6309 353.153 68.4947 352.657 68.2429C352.162 67.9902 351.714 67.6103 351.472 67.1068C352.591 66.8926 353.619 66.3443 354.706 66.0029C355.122 65.8721 355.55 65.7718 355.985 65.7511C356.307 65.7359 356.63 65.7637 356.952 65.7924C357.29 65.8219 358.395 65.7305 358.327 66.3138C358.311 66.4473 358.22 66.571 358.178 66.6973C358.125 66.8604 358.099 67.0297 358.089 67.2C358.068 67.5405 358.113 67.8809 358.133 68.2205Z" fill="#303030"/>
<path d="M352.991 68.4947C354.205 69.3289 356.535 69.8065 357.641 68.544C358.313 67.7752 357.414 67.3227 356.754 67.1597C356.226 67.0298 355.662 67.0181 355.125 67.0916C354.636 67.1588 354.158 67.3129 353.725 67.5521C353.412 67.725 353.113 67.9482 352.929 68.2555C352.908 68.2904 352.888 68.3298 352.893 68.3711C352.898 68.4266 352.946 68.4642 352.991 68.4947Z" fill="#FC7E72"/>
<path d="M356.175 67.0969C355.178 67.4096 354.117 67.4293 353.072 67.4356C352.885 67.4365 352.692 67.4356 352.524 67.3532C352.356 67.2707 352.225 67.0799 352.273 66.898C352.323 66.7116 352.524 66.6166 352.705 66.5521C353.761 66.1713 354.872 65.9455 355.992 65.8828C356.333 65.864 357.06 65.7341 357.087 66.2475C357.112 66.7233 356.54 66.9822 356.175 67.0969Z" fill="white"/>
<path d="M360.653 65.3828C359.817 66.4141 358.045 65.6973 356.353 65.6713C355.378 65.657 354.346 65.8828 353.451 66.2734C352.557 66.6641 350.518 67.4669 349.092 66.4419" stroke="#303030" stroke-width="1.5" stroke-miterlimit="10" stroke-linecap="round" stroke-linejoin="round"/>
<path d="M359.654 65.907C358.913 66.0091 357.934 66.7044 358.218 67.7044C358.424 68.4283 357.944 68.8709 357.385 69.0089C355.339 69.5125 352.101 68.9955 351.186 66.9284" stroke="#303030" stroke-width="1.5" stroke-miterlimit="10" stroke-linecap="round" stroke-linejoin="round"/>
<path d="M357.077 53.0048C357.219 51.6357 358.333 50.729 359.692 50.3276C361.052 49.9262 363.101 49.841 363.868 51.7128C363.761 53.7807 359.499 55.2914 357.077 53.0048Z" fill="white"/>
<path d="M363.027 52.6841C362.787 53.6195 361.805 54.1786 360.831 53.9331C359.858 53.6876 359.263 52.7298 359.502 51.7944C359.741 50.859 360.725 50.2998 361.698 50.5454C362.672 50.7918 363.267 51.7496 363.027 52.6841Z" fill="#303030"/>
<path d="M359.37 51.772L361.265 52.2397L359.325 52.7782L359.37 51.772Z" fill="white"/>
<path d="M364.017 51.3024C362.861 50.0588 361.208 50.0489 359.849 50.4512C358.49 50.8535 357.26 52.0246 357.078 53.0057" stroke="#303030" stroke-width="1.5" stroke-miterlimit="10" stroke-linecap="round" stroke-linejoin="round"/>
<path d="M356.778 45.2562C358.881 43.5887 362.063 43.1631 364.663 45.24" stroke="#303030" stroke-width="1.5" stroke-miterlimit="10" stroke-linecap="round" stroke-linejoin="round"/>
<path d="M343.019 54.8784C343.171 53.417 344.359 52.4493 345.809 52.0201C347.261 51.591 349.448 51.5014 350.268 53.4985C350.153 55.7063 345.604 57.3182 343.019 54.8784Z" fill="white"/>
<path d="M349.369 54.5361C349.114 55.5343 348.064 56.131 347.026 55.8685C345.987 55.606 345.352 54.5845 345.607 53.5864C345.863 52.5882 346.912 51.9915 347.951 52.254C348.99 52.5157 349.624 53.538 349.369 54.5361Z" fill="#303030"/>
<path d="M345.466 53.5613L347.488 54.0612L345.419 54.6365L345.466 53.5613Z" fill="white"/>
<path d="M350.425 53.0605C349.191 51.7326 347.427 51.7228 345.976 52.1511C344.526 52.5802 343.212 53.8311 343.019 54.8776" stroke="#303030" stroke-width="1.5" stroke-miterlimit="10" stroke-linecap="round" stroke-linejoin="round"/>
<path d="M340.157 49.9548C341.566 47.8321 344.972 45.404 348.12 46.3278" stroke="#303030" stroke-width="1.5" stroke-miterlimit="10" stroke-linecap="round" stroke-linejoin="round"/>
<path d="M354.055 48.9915C355.233 52.9365 357.159 55.2509 358.378 57.1468C359.312 58.6002 359.741 61.2774 355.912 61.9557" stroke="#303030" stroke-width="1.5" stroke-miterlimit="10" stroke-linecap="round" stroke-linejoin="round"/>
<path d="M325.779 61.2614C326.314 60.791 327.7 60.3224 329.175 60.5527C330.649 60.7829 331.96 61.7838 332.527 63.1116" stroke="#303030" stroke-width="1.5" stroke-miterlimit="10" stroke-linecap="round" stroke-linejoin="round"/>
<path d="M328.396 62.5597C328.789 62.2156 330.206 61.2954 331.754 61.9298" stroke="#303030" stroke-width="1.5" stroke-miterlimit="10" stroke-linecap="round" stroke-linejoin="round"/>
<path d="M340.077 39.5594C345.138 35.0185 351.896 35.3061 355.868 40.9052C359.297 45.7382 364.334 49.9413 369.013 47.1861C365.692 43.5645 367.373 36.4144 359.771 31.3637C353.407 27.1354 339.051 28.2528 340.077 39.5594Z" fill="#303030"/>
<path d="M357.755 81.0307C352.608 81.2627 346.733 80.5504 343.13 78.7297C344.231 80.8622 347.89 83.8728 357.678 84.4623L357.755 81.0307Z" fill="#303030"/>
<path d="M298.101 189.776C306.001 185.926 326.374 189.911 345.776 187.786C365.177 185.662 379.955 175.983 381.096 169.007C379.513 164.235 375.452 160.999 375.452 160.999C375.452 160.999 375.603 153.455 378.052 142.947C383.253 120.634 384.163 109.607 377.811 97.113C376.062 93.6715 371.749 88.0374 366.975 86.7974C366.975 86.7974 363.245 87.2624 358.148 87.8842C364.474 101.196 343.679 101.234 333.582 88.4756C329.154 88.4756 323.788 89.1162 317.69 89.8052C296.041 92.2504 300.634 115.327 295.885 145.411C292.568 166.429 288.417 195.803 297.374 196.241L298.101 189.776Z" fill="white" stroke="#303030" stroke-width="1.5" stroke-miterlimit="10" stroke-linecap="round" stroke-linejoin="round"/>
<path d="M371.034 163.645C369.754 165.408 368.296 167.075 366.501 168.422C363.18 170.915 359.275 172.591 355.409 174.016C351.735 175.371 347.88 176.228 344.034 176.913C339.776 177.67 335.473 178.182 331.161 178.496C327.247 178.78 323.285 178.951 319.366 178.66C318.509 178.596 318.513 179.94 319.366 180.004C322.87 180.265 326.409 180.144 329.913 179.924C334.27 179.651 338.618 179.165 342.927 178.458C346.963 177.796 351.007 176.956 354.885 175.625C358.919 174.241 363.011 172.512 366.528 170.052C368.783 168.473 370.574 166.545 372.188 164.323C372.694 163.624 371.536 162.953 371.034 163.645Z" fill="#303030"/>
<path d="M315.911 92.27C306.512 92.882 301.494 94.2394 289.201 108.93C281.31 118.361 277.263 122.999 270.029 131.946C262.795 140.892 259.856 145.473 259.911 152.513C259.999 163.728 260.095 168.566 260.052 179.875C260.037 183.907 260.193 189.839 259.903 193.855C259.724 196.325 256.702 199.105 255.081 200.837C252.969 203.094 250.645 205.136 248.283 207.122C246.908 208.278 245.504 209.431 244.427 210.873C243.296 212.385 242.566 214.157 241.85 215.909C240.638 218.867 239.664 221.401 238.215 225.159L253.918 216.335C252.651 217.976 251.347 219.568 250.751 221.535C250.452 222.522 250.284 223.614 250.675 224.568C251.397 226.33 253.626 226.626 255.097 226.009C256.569 225.391 259.182 223.293 260.229 222.082C262.298 219.692 263.672 217.83 266.392 216.233C268.885 214.769 271.228 213.259 273.638 211.722C275.945 210.252 277.827 208.019 278.588 205.351C279.036 203.782 279.097 202.13 279.154 200.499C279.397 193.575 280.287 186.764 281.129 179.876C282.534 168.37 284.04 156.03 284.04 156.03L309.28 132.644C309.28 132.644 322.337 103.965 315.911 92.27Z" fill="#FFCCCC"/>
<path d="M257.499 207.427C257.556 208.504 257.463 209.365 256.897 210.301C256.312 211.266 255.592 212.138 254.877 213.007C253.556 214.612 252.219 216.201 250.931 217.834C250.402 218.504 251.34 219.461 251.875 218.784C253.285 216.997 254.759 215.264 256.197 213.5C256.927 212.604 257.681 211.684 258.233 210.662C258.789 209.632 258.893 208.581 258.833 207.427C258.787 206.565 257.453 206.56 257.499 207.427Z" fill="#303030"/>
<path d="M317.689 89.8052C309.072 90.6689 303.544 91.6438 294.422 100.554C285.3 109.466 271.619 124.504 271.619 124.504C271.619 124.504 270.375 131.619 275.903 139.479C281.431 147.339 291.105 150.82 291.105 150.82C291.105 150.82 303.267 140.516 309.348 135.225C315.43 129.934 323.957 110.662 317.689 89.8052Z" fill="#909AC9" stroke="#303030" stroke-width="1.5" stroke-miterlimit="10" stroke-linecap="round" stroke-linejoin="round"/>
<path d="M551.375 372.636L551.687 363.785C551.724 362.739 550.948 361.819 549.894 361.685L543.033 360.858C542.546 358.843 541.844 356.918 540.907 355.1L545.553 349.972C546.255 349.183 546.258 347.981 545.535 347.199L539.547 340.721C538.824 339.939 537.633 339.857 536.803 340.506L531.397 344.792C529.663 343.741 527.807 342.879 525.828 342.245L525.515 335.311C525.457 334.242 524.601 333.398 523.544 333.36L514.778 333.046C513.721 333.008 512.809 333.79 512.694 334.852L511.873 341.745C509.854 342.235 507.942 342.962 506.158 343.887L501.049 339.224C500.265 338.517 499.072 338.513 498.296 339.242L491.867 345.275C491.11 346.004 491.01 347.203 491.654 348.04L495.927 353.486C494.864 355.233 494.028 357.103 493.401 359.077L486.499 359.412C485.457 359.471 484.618 360.334 484.582 361.378L484.27 370.229C484.232 371.294 485.008 372.214 486.043 372.328L492.904 373.155C493.392 375.171 494.093 377.115 495.03 378.913L490.383 384.06C489.681 384.849 489.697 386.052 490.401 386.834L496.39 393.292C497.113 394.074 498.303 394.176 499.134 393.507L504.54 389.222C506.273 390.292 508.129 391.135 510.109 391.767L510.441 398.702C510.48 399.77 511.336 400.615 512.393 400.653L521.159 400.966C522.216 401.004 523.129 400.223 523.263 399.161L524.064 392.267C526.083 391.777 527.994 391.07 529.798 390.127L534.888 394.788C535.671 395.515 536.864 395.499 537.641 394.771L544.069 388.757C544.846 388.029 544.927 386.829 544.283 385.992L540.011 380.526C541.072 378.799 541.909 376.91 542.536 374.935L549.438 374.601C550.499 374.563 551.337 373.701 551.375 372.636ZM533.518 367.575C533.213 376.213 526.007 382.993 517.414 382.685C508.822 382.377 502.112 375.098 502.416 366.461C502.722 357.803 509.927 351.042 518.52 351.35C527.114 351.659 533.824 358.919 533.518 367.575Z" fill="#909AC9"/>
<path d="M601.875 342.21L600.153 336.929C599.949 336.306 599.295 335.933 598.645 336.084L594.426 337.097C593.705 336.016 592.877 335.036 591.934 334.17L593.566 330.135C593.808 329.517 593.552 328.808 592.958 328.505L588.037 325.999C587.443 325.696 586.724 325.908 586.374 326.472L584.113 330.177C582.865 329.937 581.587 329.836 580.285 329.895L578.608 325.88C578.344 325.263 577.657 324.952 577.027 325.161L571.797 326.892C571.165 327.101 570.796 327.76 570.958 328.412L571.959 332.651C570.876 333.381 569.907 334.227 569.055 335.161L565.042 333.533C564.428 333.287 563.725 333.546 563.424 334.144L560.937 339.103C560.648 339.698 560.847 340.425 561.406 340.778L565.095 343.053C564.845 344.313 564.756 345.597 564.812 346.897L560.819 348.602C560.218 348.865 559.91 349.556 560.113 350.18L561.835 355.461C562.042 356.096 562.697 356.469 563.332 356.31L567.551 355.297C568.271 356.378 569.104 357.37 570.043 358.224L568.414 362.27C568.172 362.888 568.439 363.593 569.022 363.9L573.939 366.394C574.533 366.697 575.255 366.496 575.601 365.921L577.862 362.216C579.113 362.468 580.387 362.558 581.689 362.498L583.378 366.51C583.632 367.13 584.317 367.441 584.948 367.232L590.178 365.501C590.809 365.292 591.179 364.633 591.028 363.978L590.016 359.742C591.099 359.013 592.073 358.178 592.932 357.228L596.934 358.861C597.551 359.118 598.251 358.847 598.551 358.249L601.042 353.302C601.343 352.703 601.132 351.979 600.573 351.626L596.879 349.341C597.133 348.092 597.218 346.796 597.163 345.496L601.156 343.79C601.773 343.536 602.082 342.846 601.875 342.21ZM590.27 343.132C591.95 348.286 589.166 353.854 584.04 355.551C578.913 357.248 573.394 354.427 571.714 349.273C570.029 344.109 572.817 338.552 577.944 336.855C583.07 335.159 588.585 337.968 590.27 343.132Z" fill="white" stroke="#909AC9" stroke-width="1.5" stroke-miterlimit="10" stroke-linecap="round" stroke-linejoin="round"/>
<path d="M518.121 106.984L503.482 91.4565C502.467 90.3849 500.791 90.3437 499.727 91.366L467.931 121.805C467.383 122.332 467.109 123.033 467.11 123.737C467.11 124.133 467.108 125.658 467.106 126.055C467.103 126.715 467.342 127.376 467.832 127.895L482.472 143.423C483.486 144.494 485.163 144.536 486.225 143.522L518.032 113.075C518.585 112.547 518.856 111.836 518.847 111.124C518.843 110.737 518.849 109.23 518.851 108.832C518.853 108.168 518.613 107.503 518.121 106.984Z" fill="#E85E50"/>
<path d="M513.726 116.809L513.892 116.985C514.082 117.187 514.399 117.195 514.599 117.003L517.585 114.144C517.785 113.952 517.793 113.633 517.603 113.432L517.437 113.255C517.247 113.054 516.93 113.046 516.73 113.237L513.743 116.096C513.543 116.288 513.535 116.607 513.726 116.809Z" fill="#303030"/>
<path d="M508.942 121.388L509.109 121.565C509.299 121.766 509.615 121.774 509.816 121.583L512.803 118.723C513.003 118.532 513.011 118.213 512.821 118.011L512.654 117.835C512.464 117.633 512.147 117.625 511.947 117.817L508.961 120.676C508.76 120.868 508.752 121.187 508.942 121.388Z" fill="#303030"/>
<path d="M500.743 92.3524L468.941 122.798C468.429 123.289 468.406 124.11 468.894 124.626L483.538 140.154C484.026 140.67 484.841 140.692 485.354 140.201L517.156 109.754C517.668 109.263 517.689 108.444 517.201 107.927L502.557 92.399C502.07 91.8829 501.257 91.8613 500.743 92.3524Z" fill="white"/>
<path d="M518.122 106.983L503.482 91.4555C502.468 90.3839 500.791 90.3427 499.728 91.365L467.931 121.804C466.868 122.826 466.818 124.514 467.833 125.586L482.472 141.114C483.487 142.185 485.163 142.226 486.226 141.213L518.032 110.766C519.095 109.753 519.136 108.054 518.122 106.983ZM505.274 99.6297L510.115 104.767C510.508 105.18 511.028 105.44 511.587 105.504C511.871 105.536 512.154 105.516 512.425 105.447C512.667 105.387 512.922 105.469 513.094 105.652L515.597 108.304C515.87 108.592 515.858 109.049 515.571 109.324L484.926 138.661C484.639 138.935 484.186 138.924 483.914 138.635L470.357 124.275C470.084 123.987 470.095 123.53 470.382 123.255L501.038 93.9097C501.325 93.6346 501.778 93.6471 502.051 93.9365L504.532 96.5717C504.704 96.7545 504.792 97.017 504.719 97.258C504.471 98.0761 504.665 98.981 505.274 99.6297Z" fill="#303030"/>
<path d="M499.73 91.3616L467.928 121.808C466.865 122.825 466.822 124.517 467.831 125.587L482.475 141.115C483.485 142.185 485.165 142.228 486.227 141.211L518.03 110.765C519.092 109.749 519.135 108.057 518.125 106.986L503.481 91.4584C502.471 90.3876 500.792 90.3446 499.73 91.3616ZM500.674 92.3615C501.187 91.8696 501.999 91.8911 502.487 92.4081L506.012 96.1462C506.337 96.4912 506.388 97.0136 506.135 97.415C505.883 97.8164 505.933 98.3396 506.258 98.6837L511.104 103.822C511.428 104.166 511.944 104.244 512.355 104.01C512.766 103.777 513.282 103.855 513.606 104.199L517.133 107.938C517.621 108.455 517.6 109.273 517.086 109.765L485.284 140.211C484.772 140.701 483.955 140.68 483.469 140.164L468.825 124.637C468.338 124.121 468.36 123.299 468.871 122.809L500.674 92.3615Z" fill="#303030"/>
<path d="M518.122 106.983L503.482 91.4555C502.468 90.3839 500.791 90.3427 499.728 91.365L467.931 121.804C466.868 122.826 466.818 124.514 467.833 125.586L482.472 141.114C483.487 142.185 485.163 142.226 486.226 141.213L518.032 110.766C519.095 109.753 519.136 108.054 518.122 106.983ZM517.083 109.766L485.287 140.205C484.775 140.7 483.954 140.682 483.472 140.167L468.823 124.639C468.341 124.125 468.359 123.298 468.87 122.812L500.677 92.365C501.188 91.8704 502 91.8874 502.49 92.4125L506.015 96.1506C506.334 96.4901 506.386 97.0116 506.131 97.4157C506.052 97.5537 505.998 97.7042 505.982 97.8503C505.949 98.1504 506.044 98.4551 506.255 98.6818L511.106 103.82C511.423 104.169 511.945 104.246 512.355 104.007C512.55 103.9 512.764 103.86 512.973 103.883C513.207 103.909 513.433 104.017 513.604 104.202L517.129 107.94C517.621 108.455 517.603 109.272 517.083 109.766Z" fill="#303030"/>
<path d="M484.401 113.48L506.34 111.353" stroke="#FC7E72" stroke-width="1.5" stroke-miterlimit="10" stroke-linecap="round" stroke-linejoin="round"/>
<path d="M484.996 119.624L498.539 118.311" stroke="#FC7E72" stroke-width="1.5" stroke-miterlimit="10" stroke-linecap="round" stroke-linejoin="round"/>
<path d="M68.1328 247.795C86.9004 256.157 104.73 250.406 110.838 246.373C117.21 242.166 120.053 238.18 120.053 238.18L127.012 240.33L141.088 227.17C141.088 227.17 122.205 235.121 99.8322 228.493C99.8322 228.493 85.3396 243.436 68.1328 247.795Z" fill="white" stroke="#909AC9" stroke-width="1.5" stroke-miterlimit="10" stroke-linecap="round" stroke-linejoin="round"/>
<path d="M127.013 240.33C120.047 246.511 104.361 250.69 92.7969 251.882C101.604 250.943 110.656 248.996 120.053 238.18L127.013 240.33Z" fill="#909AC9" stroke="#909AC9" stroke-width="1.5" stroke-miterlimit="10" stroke-linecap="round" stroke-linejoin="round"/>
<path d="M24.6709 213.743C35.4959 231.308 53.4408 236.681 60.7432 236.818C68.3594 236.961 72.9395 235.283 72.9395 235.283L77.4857 241.01L96.4757 238.133C96.4757 238.133 76.4292 233.979 61.6556 215.799C61.6556 215.799 41.3237 219.912 24.6709 213.743Z" fill="white" stroke="#909AC9" stroke-width="1.5" stroke-miterlimit="10" stroke-linecap="round" stroke-linejoin="round"/>
<path d="M77.4845 241.011C68.2728 242.16 52.9771 236.706 42.7578 231.125C50.5582 235.351 59.126 238.881 72.9382 235.283L77.4845 241.011Z" fill="#909AC9" stroke="#909AC9" stroke-width="1.5" stroke-miterlimit="10" stroke-linecap="round" stroke-linejoin="round"/>
<path d="M236.311 184.329C238.362 186.07 238.625 189.156 236.897 191.223C235.169 193.289 232.106 193.555 230.054 191.814C228.003 190.073 227.74 186.987 229.468 184.92C231.196 182.853 234.259 182.589 236.311 184.329Z" fill="#303030"/>
<path d="M218.639 152.917C210.809 146.273 198.853 147.802 192.993 156.623C188.382 163.562 189.413 173.047 195.375 178.848C199.459 182.821 204.886 184.352 210.005 183.588C212.876 183.159 215.808 183.602 218.363 184.99L221.619 186.758L229.884 176.87L227.605 173.943C225.791 171.614 224.891 168.739 224.805 165.781C224.665 160.979 222.574 156.255 218.639 152.917Z" fill="white" stroke="#303030" stroke-width="1.5" stroke-miterlimit="10" stroke-linecap="round" stroke-linejoin="round"/>
<path d="M227.945 186.933C227.945 186.933 221.458 180.992 214.643 176.386C206.355 170.783 203.225 174.777 204.055 176.779C204.885 178.781 210.114 177.859 210.8 171.427C211.487 164.995 207.161 162.542 205.473 164.561C203.785 166.58 206.92 170.458 213.095 168.682C219.27 166.906 219.281 161.558 217.182 161.075C215.083 160.591 211.709 164.377 218.599 171.654C224.264 177.636 231.179 183.065 231.179 183.065" stroke="#303030" stroke-width="1.5" stroke-miterlimit="10" stroke-linecap="round" stroke-linejoin="round"/>
<path d="M235.612 178.133C234.87 177.365 233.702 177.393 233.019 178.211C233.702 177.393 233.631 176.084 232.843 175.267C232.036 174.432 230.79 174.432 230.076 175.286L220.103 187.217C219.39 188.071 219.602 189.309 220.555 189.968C221.487 190.611 222.78 190.46 223.464 189.642C222.78 190.46 222.952 191.624 223.829 192.229C224.686 192.822 225.898 192.656 226.555 191.871C225.898 192.656 226.035 193.754 226.844 194.313C227.635 194.859 228.775 194.682 229.406 193.927L238.222 183.381C238.852 182.626 238.831 181.464 238.162 180.772C237.478 180.064 236.381 180.116 235.725 180.9C236.381 180.115 236.336 178.883 235.612 178.133Z" fill="#909AC9"/>
<path d="M223.464 189.641L233.019 178.211" stroke="#303030" stroke-width="1.5" stroke-miterlimit="10" stroke-linecap="round" stroke-linejoin="round"/>
<path d="M226.555 191.87L235.725 180.9" stroke="#303030" stroke-width="1.5" stroke-miterlimit="10" stroke-linecap="round" stroke-linejoin="round"/>
</svg>
