<svg width="160" height="24" viewBox="0 0 160 24" fill="none" xmlns="http://www.w3.org/2000/svg">
<path d="M132.111 0.749919L132.417 18.375H132.263L127.068 0.749919H118.51V22.9497H124.164L123.859 4.72527H124.012L129.589 22.9497H137.765V0.749919H132.111ZM24.4507 0.749919L20.172 23.1755H26.3613L29.494 2.77522H29.6467L32.7033 23.1748H38.816L34.6133 0.749919H24.4507ZM58.9873 0.749919L56.1607 17.8501H56.0073L53.1807 0.749919H43.8587L43.4 23.1755H49.1307L49.284 2.99968H49.36L53.18 23.1748H58.9873L62.808 3.00033H62.9613L63.1133 23.1748H68.844L68.3093 0.749919H58.9873ZM10.5447 16.7999C10.7733 17.3247 10.6973 18.0753 10.6207 18.4502C10.468 19.2001 9.93333 19.95 8.40467 19.95C6.95333 19.95 6.11267 19.1255 6.11267 17.9247V15.7502H0V17.4752C0 22.5002 4.04933 24 8.32867 24C12.4547 24 15.8927 22.5748 16.428 18.8998C16.7333 16.9497 16.504 15.675 16.428 15.2248C15.358 10.5002 6.648 9.15018 6.036 6.52481C5.96 6.0746 5.96 5.62504 6.036 5.32468C6.18933 4.57477 6.724 3.82485 8.09933 3.82485C9.47467 3.82485 10.2393 4.64936 10.2393 5.85015V7.20014H15.9693V5.62504C15.9693 0.749919 11.4613 0 8.252 0C4.20267 0 0.840667 1.34998 0.229333 4.94972C0.076 5.92475 0 6.82517 0.305333 7.95005C1.22267 12.6001 9.39933 13.95 10.5447 16.7999ZM84.8907 16.7999C85.1193 17.3253 85.0427 18 84.9667 18.4502C84.8133 19.2001 84.2787 19.95 82.7507 19.95C81.2987 19.95 80.4587 19.1255 80.4587 17.9247V15.7502H74.3453V17.4752C74.3453 22.4249 78.3187 23.9254 82.598 23.9254C86.724 23.9254 90.086 22.5754 90.6207 18.8252C90.9267 16.8751 90.6973 15.675 90.6207 15.1502C89.704 10.5002 81.0693 9.07493 80.4587 6.52547C80.382 6.07525 80.382 5.62504 80.4587 5.32468C80.6113 4.57477 81.146 3.82485 82.5213 3.82485C83.82 3.82485 84.6613 4.64936 84.6613 5.85015V7.20014H90.3147V5.62504C90.3147 0.749919 85.8833 0 82.6747 0C78.6247 0 75.3387 1.27473 74.728 4.94972C74.5747 5.92475 74.5747 6.82517 74.804 7.95005C75.7213 12.6001 83.744 13.8748 84.8907 16.7999ZM104.145 19.8002C105.75 19.8002 106.208 18.7499 106.361 18.1499C106.437 17.9254 106.437 17.5498 106.437 17.3253V0.749919H112.244V16.8751C112.244 17.3253 112.244 18.1499 112.168 18.375C111.786 22.5754 108.424 23.9254 104.221 23.9254C100.019 23.9254 96.6573 22.5754 96.2747 18.375C96.2747 18.1499 96.1987 17.3253 96.1987 16.8751V0.749919H102.005V17.3253C102.005 17.625 102.005 17.9247 102.082 18.1499C102.082 18.7499 102.541 19.8002 104.145 19.8002ZM151.824 19.5751C153.505 19.5751 154.04 18.5248 154.193 17.9247C154.269 17.7003 154.269 17.3247 154.269 17.1002V13.8748H151.901V10.5748H160V16.5754C160 17.025 160 17.3247 159.923 18.0753C159.541 22.1998 155.95 23.625 151.901 23.625C147.851 23.625 144.26 22.1998 143.878 18.0753C143.801 17.3247 143.801 17.025 143.801 16.5748V7.12553C143.801 6.74992 143.878 6 143.878 5.62504C144.413 1.42458 147.851 0.0746006 151.901 0.0746006C155.95 0.0746006 159.465 1.42458 159.923 5.62504C160 6.29971 160 7.12488 160 7.12488V7.8748H154.269V6.60007C154.269 6.60007 154.269 6.0746 154.193 5.7749C154.117 5.25009 153.658 4.12521 151.901 4.12521C150.22 4.12521 149.761 5.17483 149.609 5.7749C149.532 6.0746 149.532 6.45021 149.532 6.82517V17.1002C149.532 17.3999 149.532 17.6996 149.609 17.9247C149.609 18.5248 150.22 19.5751 151.824 19.5751Z" fill="#E0E0E0"/>
</svg>
