<svg width="255" height="254" viewBox="0 0 255 254" fill="none" xmlns="http://www.w3.org/2000/svg">
<path d="M-38.9664 9.37226C-25.1359 33.0788 13.6145 80.6971 15.7316 109.264C17.7257 136.173 2.22495 158.241 -16.0565 175.427C-18.6524 177.867 -21.5289 179.99 -24.2495 182.291C-25.0676 182.983 -26.7639 183.335 -26.6722 184.403C-26.5981 185.267 -24.9148 184.346 -24.0976 184.061C-18.6761 182.167 -10.227 177.944 -5.48763 175.491C8.02841 168.497 22.5985 157.205 38.6875 158.087C56.2444 159.05 70.8245 171.974 83.3641 183.023C96.0348 194.187 127.7 229.091 104.595 243.612C100.353 246.278 104.718 230.673 108.9 217.064C116.846 197.844 118.801 185.003 133.106 169.672C147.137 154.634 162.245 143.886 182.273 138.51C198.331 134.2 218.844 130.593 234.054 139.791C238.098 142.237 242.281 146.849 244.373 151.157C245.408 153.288 232.598 148.382 232.143 148.196C213.386 140.506 191.381 128.408 179.881 111.022C170.105 96.2433 175.686 78.1173 182.185 63.4266C187.585 51.2198 194.095 40.5508 204.595 32.1125C205.051 31.746 216.786 23.9222 210.541 27.7545C199.106 34.7728 186.094 42.0753 172.192 41.6454C156.575 41.1624 138.464 31.3011 127.405 20.778C119.616 13.3672 118.707 3.53979 117.566 -6.54528C116.39 -16.9404 114.551 -27.4904 114.439 -37.9677C114.413 -40.4066 115.256 -47.4417 115.992 -45.1157C116.469 -43.6098 115.05 -42.1027 114.564 -40.601C111.129 -29.9874 108.2 -19.2222 104.842 -8.58444C100.068 6.5405 95.1422 28.2244 81.2847 38.1935C69.51 46.6642 53.4648 46.0499 40.3735 41.5383C15.1193 32.835 -16.2963 22.452 -38.9664 9.37226Z" stroke="#B7BFE7" stroke-opacity="0.4" stroke-width="20" stroke-linecap="round"/>
</svg>
