<svg width="138" height="21" viewBox="0 0 138 21" fill="none" xmlns="http://www.w3.org/2000/svg">
<path fill-rule="evenodd" clip-rule="evenodd" d="M137.276 18.3089C137.276 18.1357 137.188 17.9536 137.012 17.8667C136.834 17.7753 136.636 17.7663 136.437 17.7663H135.411V19.8176H135.698V18.8714H136.228L136.901 19.8176H137.243L136.531 18.8714C136.951 18.8611 137.276 18.7124 137.276 18.3089ZM136.139 18.6738H135.697V17.9484H136.37C136.663 17.9484 136.984 17.987 136.984 18.3044C136.984 18.7221 136.47 18.6738 136.139 18.6738ZM123.838 8.39138L128.148 4.3846C128.398 4.09045 128.522 3.88448 128.522 3.70812C128.522 3.41397 128.231 3.29618 127.318 3.29618H126.23V0.766598H138V3.29618H136.454C134.668 3.29618 134.336 3.53111 131.844 6.26666L125.026 12.6775V16.5897C125.026 17.5905 125.606 17.9426 127.268 17.9426H129.842V20.3834H113.357V17.9426H115.931C117.591 17.9426 118.173 17.5905 118.173 16.5897V12.6775L110.143 4.94265C108.816 3.59033 108.999 3.29618 105.305 3.29618V0.766598H120.213V3.29618H119.152C118.072 3.29618 117.614 3.47254 117.614 3.82526C117.614 4.12006 117.946 4.35499 118.154 4.58993L122.216 8.44544C122.699 8.88249 123.288 8.93913 123.838 8.39138ZM23.8101 0.765955H27.4063V7.82431H24.085C23.7908 6.41341 22.7766 5.86437 21.8519 5.12416C20.1835 3.78922 16.5702 2.67762 13.5313 2.67762C9.60903 2.67762 6.29883 3.73708 6.29883 5.29473C6.29883 9.61883 28.7303 6.17783 28.7303 14.3536C28.7303 18.6178 23.9254 21 15.2965 21C12.3094 21 7.78909 20.1929 5.12201 18.9596C4.28596 18.5393 3.93114 19.3574 3.77442 20.3827H0.0872272V13.0888H3.42256C4.15807 14.9419 5.17154 15.3236 6.10368 16.0593C7.72108 17.3537 11.5709 18.2953 15.1014 18.2651C20.4245 18.2194 22.2548 17.2063 22.2548 15.7355C22.2548 14.2654 20.4444 13.912 14.6113 13.1184L9.65856 12.4123C4.06937 11.6766 0 10.5888 0 6.70692C0 2.67762 5.14788 0.148039 13.2874 0.148039C16.7173 0.148039 19.5869 0.547111 22.3412 1.90266C23.1041 2.33455 23.8197 2.38604 23.8101 0.765955ZM93.9939 12.5835L94.0649 4.73861C94.0649 3.7094 93.4499 3.35668 91.6927 3.35668H89.6281V0.915924H102.764V3.35668H101.052C99.2933 3.35668 98.6783 3.71005 98.6783 4.73861V20.5321L93.5371 20.4967L76.887 6.76807V16.7383C76.887 17.7386 77.5021 18.1203 79.2592 18.1203H81.5448V20.5321H67.9026V18.1203H70.1632C71.9203 18.1203 72.5353 17.7379 72.5353 16.7383V4.73861C72.5353 3.7094 71.9203 3.35668 70.1632 3.35668H67.9026V0.915924H79.6975L93.9939 12.5835ZM49.9937 0C39.525 0 32.9719 4.02994 32.9719 10.4994C32.9719 16.8529 39.4341 20.852 49.6744 20.852C60.5512 20.852 66.8781 16.9115 66.8781 10.1762C66.8788 4.11813 60.0515 0 49.9937 0ZM49.7557 18.2941C43.961 18.2941 40.6301 15.3821 40.6301 10.3526C40.6301 5.44149 44.1059 2.52958 50.0455 2.52958C55.7433 2.52958 59.0742 5.5007 59.0742 10.5592C59.0742 15.4999 55.6945 18.2941 49.7557 18.2941Z" fill="#E0E0E0"/>
</svg>
