<svg width="71" height="91" viewBox="0 0 71 91" fill="none" xmlns="http://www.w3.org/2000/svg">
<path d="M35.8521 69.4168L30.835 62.7665L22.597 61.5278C22.597 61.5278 8.11384 67.4713 14.4561 90.2863C37.5344 84.9814 35.8521 69.4168 35.8521 69.4168Z" fill="#EAEDFA"/>
<path d="M32.9547 69.3538L29.5781 64.878L24.0338 64.0444C24.0338 64.0444 14.2864 68.0445 18.5549 83.3993C34.0869 79.829 32.9547 69.3538 32.9547 69.3538Z" fill="#191B2B"/>
<path opacity="0.5" d="M30.8339 62.7666L28.0895 63.0312C28.0895 63.0312 22.4446 67.2146 22.3506 77.0205C30.9249 72.2617 31.9102 65.3051 31.9102 65.3051L30.8339 62.7666Z" fill="#191B2B"/>
<path d="M51.802 86.4708C54.7446 83.8812 56.7565 80.4617 57.5758 76.6253C58.5798 71.9245 59.2446 65.1473 57.3718 57.9399C53.9121 44.625 41.9229 69.3656 41.9229 69.3656C41.9229 69.3656 53.433 74.5384 51.802 86.4708Z" fill="#EAEDFA"/>
<path d="M19.746 56.1673C19.746 56.1673 35.7752 33.831 22.4219 37.1395C15.1937 38.9304 9.55369 42.7466 5.90054 45.8707C2.91909 48.4202 0.872918 51.8193 0 55.6408C9.71058 48.517 19.746 56.1673 19.746 56.1673Z" fill="#EAEDFA"/>
<path d="M38.8244 73.5512C38.8244 73.5512 52.2319 68.4001 63.449 47.5726C74.6661 26.7452 70.7782 11.4817 68.1824 0C56.8525 3.19363 41.5951 7.06258 28.6373 26.854C15.6796 46.6456 17.5454 60.8867 17.5454 60.8867L28.1849 67.219L38.8244 73.5512Z" fill="#EAEDFA"/>
<path d="M25.9008 71.0556L39.8967 47.5396C39.8967 47.5396 25.4993 57.6391 25.9008 71.0556Z" fill="#EAEDFA"/>
<path d="M63.4485 47.5727C74.6396 26.7933 70.7957 11.5527 68.2001 0.0800781L28.2266 67.2441L38.8239 73.5512C38.8239 73.5512 52.2314 68.4002 63.4485 47.5727Z" fill="#EAEDFA"/>
<path d="M68.1818 0C60.4784 2.17134 50.9594 4.65698 41.582 12.2453C45.7188 16.8315 55.0398 25.3563 70.0597 29.5139C72.3465 17.5168 69.9611 7.86978 68.1818 0Z" fill="#EAEDFA"/>
<path d="M68.2002 0.0800781L54.624 22.8909C58.8635 25.4459 63.9972 27.8357 70.0598 29.5139C72.339 17.5574 69.9775 7.93528 68.2002 0.0800781Z" fill="#EAEDFA"/>
<path d="M25.9014 71.0556C37.8857 65.0106 39.8972 47.5396 39.8972 47.5396L25.9014 71.0556Z" fill="#EAEDFA"/>
<path d="M46.277 44.5565C49.8755 45.0275 53.554 43.4015 55.5052 40.1233C58.133 35.708 56.6321 29.9676 52.1529 27.3016C47.6736 24.6358 41.9122 26.0539 39.2845 30.4692C36.6566 34.8845 38.1575 40.6249 42.6367 43.2908C43.7902 43.9774 45.0288 44.3931 46.277 44.5565Z" fill="#191B2B"/>
<path d="M54.1079 39.322C56.3249 35.5974 55.0591 30.7546 51.2806 28.5055C47.502 26.2563 42.6416 27.4523 40.4245 31.1769C38.2075 34.9015 39.4733 39.7442 43.2518 41.9934C47.0304 44.2426 51.8908 43.0465 54.1079 39.322Z" fill="#191B2B"/>
</svg>
