<svg width="33" height="33" viewBox="0 0 33 33" fill="none" xmlns="http://www.w3.org/2000/svg">
<path d="M32.2618 7.93365L32.252 7.89556C31.4559 4.78177 27.8667 1.44051 24.5707 0.745383L24.5335 0.737977C19.2022 -0.245992 13.7967 -0.245992 8.46653 0.737977L8.42825 0.745383C5.13328 1.44051 1.54414 4.78177 0.746918 7.89556L0.738169 7.93365C-0.246056 12.2822 -0.246056 16.692 0.738169 21.0405L0.746918 21.0786C1.51013 24.0595 4.832 27.2473 8.00504 28.124V31.5998C8.00504 32.8578 9.58964 33.4757 10.4908 32.5679L14.1307 28.9072C14.9202 28.95 15.7101 28.9738 16.5 28.9738C19.1837 28.9738 21.8684 28.7283 24.5335 28.2363L24.5707 28.2289C27.8667 27.5338 31.4559 24.1925 32.252 21.0787L32.2618 21.0406C33.2461 16.692 33.2461 12.2822 32.2618 7.93365ZM29.3813 20.41C28.8498 22.4414 26.1246 24.9669 23.9593 25.4335C21.1247 25.955 18.2676 26.1779 15.4133 26.1014C15.3565 26.0999 15.302 26.1212 15.2624 26.1606C14.8573 26.5628 12.6047 28.8001 12.6047 28.8001L9.77774 31.6071C9.57105 31.8155 9.20798 31.6738 9.20798 31.386V25.628C9.20798 25.5328 9.13777 25.452 9.04121 25.4337C9.04066 25.4336 9.04175 25.4338 9.04121 25.4337C6.87591 24.9671 4.15015 22.4413 3.61758 20.4098C2.73177 16.4793 2.73177 12.4947 3.61758 8.56413C4.15015 6.53271 6.87427 4.00719 9.03957 3.5406C13.9902 2.62963 19.0098 2.62963 23.9593 3.5406C26.1257 4.00719 28.8498 6.53271 29.3813 8.56413C30.2681 12.4948 30.2681 16.4794 29.3813 20.41Z" fill="white"/>
<path d="M21.2092 23.0678C20.8764 22.97 20.5591 22.9043 20.2645 22.786C17.2116 21.5606 14.402 19.9797 12.1764 17.5563C10.9108 16.1782 9.92025 14.6224 9.0829 12.9759C8.68581 12.1951 8.35118 11.3837 8.01009 10.5776C7.69907 9.84244 8.15717 9.08298 8.63955 8.52911C9.09219 8.0093 9.67463 7.61148 10.3054 7.3183C10.7977 7.08945 11.2834 7.22138 11.643 7.62513C12.4203 8.498 13.1343 9.41552 13.7125 10.4273C14.068 11.0496 13.9705 11.8104 13.3261 12.2339C13.1695 12.3368 13.0268 12.4577 12.8809 12.5739C12.753 12.6758 12.6326 12.7788 12.5449 12.9167C12.3845 13.1692 12.3769 13.4669 12.4801 13.7414C13.2747 15.854 14.614 17.4969 16.8119 18.3817C17.1636 18.5232 17.5169 18.6881 17.922 18.6424C18.6006 18.5657 18.8203 17.8456 19.2958 17.4693C19.7606 17.1017 20.3545 17.0968 20.8551 17.4033C21.3559 17.7099 21.8413 18.0391 22.3238 18.3717C22.7975 18.6982 23.269 19.0177 23.7059 19.3899C24.1259 19.7478 24.2706 20.2174 24.0341 20.7031C23.601 21.5927 22.9709 22.3328 22.0619 22.8052C21.8053 22.9384 21.4987 22.9816 21.2092 23.0678C21.4987 22.9816 20.8764 22.9699 21.2092 23.0678Z" fill="white"/>
<path d="M16.5077 6.30114C20.5009 6.40938 23.7806 8.97331 24.4835 12.7928C24.6032 13.4436 24.6459 14.109 24.6991 14.7695C24.7215 15.0474 24.5589 15.3114 24.249 15.3149C23.9289 15.3187 23.7849 15.0595 23.7641 14.7818C23.723 14.2321 23.6944 13.6799 23.6161 13.1347C23.2028 10.2567 20.8308 7.87571 17.8699 7.36478C17.4244 7.28786 16.9684 7.26765 16.5171 7.22184C16.2317 7.19285 15.8581 7.17613 15.7949 6.83301C15.7418 6.54534 15.9928 6.31627 16.2759 6.30156C16.3529 6.29744 16.4303 6.30082 16.5077 6.30114C20.5009 6.40938 16.4303 6.30082 16.5077 6.30114Z" fill="white"/>
<path d="M22.5758 13.9121C22.5692 13.9604 22.5657 14.0738 22.5365 14.1807C22.4306 14.5685 21.8228 14.6171 21.6828 14.2256C21.6413 14.1095 21.6351 13.9773 21.6349 13.8523C21.6335 13.034 21.4496 12.2165 21.0231 11.5046C20.5847 10.7728 19.9149 10.1577 19.1293 9.78549C18.6542 9.56044 18.1405 9.42057 17.6198 9.3372C17.3923 9.3008 17.1623 9.27869 16.9336 9.2479C16.6565 9.21066 16.5085 9.03978 16.5217 8.77559C16.5339 8.52801 16.7209 8.34995 16.9998 8.36518C17.9162 8.41554 18.8013 8.60715 19.616 9.02455C21.2728 9.87341 22.2192 11.2133 22.4954 13.0024C22.5079 13.0835 22.528 13.1638 22.5344 13.2452C22.55 13.4461 22.5598 13.6472 22.5758 13.9121C22.5692 13.9604 22.5598 13.6472 22.5758 13.9121Z" fill="white"/>
<path d="M20.0924 13.8186C19.7583 13.8244 19.5795 13.6455 19.545 13.3491C19.5211 13.1425 19.5022 12.9331 19.4512 12.7321C19.3508 12.3362 19.1333 11.9692 18.789 11.7266C18.6265 11.612 18.4424 11.5286 18.2495 11.4747C18.0044 11.4062 17.7499 11.4251 17.5054 11.3671C17.2398 11.3042 17.093 11.0961 17.1348 10.8551C17.1727 10.6358 17.3933 10.4646 17.641 10.482C19.1892 10.5901 20.2957 11.3645 20.4536 13.1278C20.4647 13.2522 20.4779 13.3837 20.4493 13.5027C20.4004 13.7065 20.2445 13.8086 20.0924 13.8186C20.2445 13.8086 19.7583 13.8244 20.0924 13.8186Z" fill="white"/>
</svg>
