<svg width="33" height="33" viewBox="0 0 33 33" fill="none" xmlns="http://www.w3.org/2000/svg">
<path fill-rule="evenodd" clip-rule="evenodd" d="M28.05 4.74375C24.9563 1.65 20.8312 0 16.5 0C7.425 0 0 7.425 0 16.5C0 19.3875 0.825013 22.275 2.26876 24.75L0 33L8.66253 30.7312C11.1375 31.9688 13.8188 32.7938 16.5 32.7938C25.575 32.7938 33 25.3687 33 16.2937C33 11.9625 31.1438 7.8375 28.05 4.74375ZM16.5 30.1125C14.025 30.1125 11.55 29.4938 9.48751 28.2563L9.07499 28.05L3.91874 29.4937L5.36251 24.5437L4.94999 23.925C3.50624 21.6562 2.88749 19.1813 2.88749 16.7063C2.88749 9.28125 9.075 3.09375 16.5 3.09375C20.2125 3.09375 23.5125 4.5375 26.1938 7.0125C28.875 9.69375 30.1125 12.9938 30.1125 16.7063C30.1125 23.925 24.1313 30.1125 16.5 30.1125ZM23.925 19.8C23.5125 19.5938 21.45 18.5625 21.0375 18.5625C20.625 18.3563 20.4187 18.3563 20.2125 18.7688C20.0062 19.1813 19.1813 20.0062 18.975 20.4187C18.7688 20.625 18.5625 20.625 18.15 20.625C17.7375 20.4188 16.5 20.0063 14.85 18.5625C13.6125 17.5312 12.7875 16.0875 12.5813 15.675C12.375 15.2625 12.5813 15.0562 12.7875 14.85C12.9938 14.6437 13.2 14.4375 13.4062 14.2312C13.6125 14.025 13.6125 13.8188 13.8188 13.6125C14.025 13.4063 13.8188 13.2 13.8188 12.9938C13.8188 12.7875 12.9938 10.725 12.5813 9.9C12.375 9.28125 11.9625 9.28125 11.7563 9.28125C11.55 9.28125 11.3437 9.28125 10.9312 9.28125C10.725 9.28125 10.3125 9.28125 9.89997 9.69375C9.48747 10.1062 8.45626 11.1375 8.45626 13.2C8.45626 15.2625 9.89999 17.1187 10.1062 17.5312C10.3125 17.7375 12.9937 22.0688 17.1187 23.7188C20.625 25.1625 21.2438 24.75 22.0688 24.75C22.8938 24.75 24.5438 23.7188 24.75 22.8938C25.1625 21.8625 25.1625 21.0375 24.9563 21.0375C24.75 20.0063 24.3375 20.0063 23.925 19.8Z" fill="white"/>
</svg>
